<?xml version="1.0" encoding="UTF-8"?>
<svg version="1.1" xmlns="http://www.w3.org/2000/svg" width="512" height="512">
<path d="M0 0 C0.79762756 -0.00067474 1.59525513 -0.00134949 2.41705322 -0.00204468 C15.74818937 0.01580401 28.68662485 0.76288901 41.8125 3.25 C42.71000977 3.41628906 43.60751953 3.58257812 44.53222656 3.75390625 C102.63960681 14.86902681 154.71371965 49.46031718 188.11621094 98.15039062 C220.99689606 147.17623652 234.674408 207.99263645 223.8125 266.25 C223.65152832 267.13445801 223.49055664 268.01891602 223.32470703 268.93017578 C219.4595343 289.45160682 213.00308047 309.98463962 202.88232422 328.30761719 C201.71076061 330.43471898 200.57616723 332.57961851 199.44140625 334.7265625 C189.37701268 353.54630513 176.4303972 369.75752775 161.8125 385.25 C161.01070313 386.1059375 160.20890625 386.961875 159.3828125 387.84375 C152.74150308 394.72458206 145.43350201 400.51316535 137.8125 406.25 C136.86117188 406.97316406 135.90984375 407.69632812 134.9296875 408.44140625 C87.86664717 443.49856895 27.56652038 457.84772643 -30.375 450.0625 C-75.66723373 443.34971776 -115.24716008 424.35623141 -149.70947266 394.52832031 C-151.05510772 393.3645038 -152.40802834 392.20912454 -153.76171875 391.0546875 C-157.89996166 387.47148905 -161.68173913 383.78939768 -165.203125 379.59765625 C-166.70044393 377.82622184 -168.23918541 376.08968241 -169.796875 374.37109375 C-207.75124794 332.20028134 -227.51271773 273.88075863 -225.06323242 217.38378906 C-221.25171262 153.27262431 -194.17711147 96.51629268 -146.2109375 53.5859375 C-143.58689714 51.39536693 -140.92106666 49.30211095 -138.1875 47.25 C-137.66510742 46.85651367 -137.14271484 46.46302734 -136.60449219 46.05761719 C-127.82807739 39.49193778 -118.69712204 33.68907348 -109.1875 28.25 C-108.60983887 27.91258789 -108.03217773 27.57517578 -107.43701172 27.22753906 C-75.14385487 8.45777112 -37.08937154 0.02826861 0 0 Z " fill="#FF9552" transform="translate(255.1875,32.75)"/>
<path d="M0 0 C1.2859886 -0.01041829 1.2859886 -0.01041829 2.59795678 -0.02104706 C5.45214036 -0.03924863 8.3054863 -0.0290719 11.15969849 -0.01878357 C13.21359883 -0.02584555 15.26749396 -0.03459174 17.32138062 -0.04489136 C22.88760202 -0.06736496 28.4535388 -0.06445007 34.01978827 -0.05556989 C38.67180114 -0.05045392 43.32376082 -0.05775762 47.97576821 -0.06504196 C58.95346689 -0.08203493 69.93102654 -0.07848157 80.90872192 -0.06175232 C92.22186209 -0.04483443 103.5346163 -0.06066256 114.8477143 -0.0929752 C124.57197191 -0.1196943 134.29610955 -0.12694072 144.02040017 -0.11846012 C149.82332749 -0.11353737 155.62602268 -0.11571134 161.42892075 -0.13624763 C166.88741165 -0.15464077 172.34534874 -0.14860121 177.80381012 -0.12404823 C179.80240988 -0.11905177 181.8010521 -0.1224997 183.79961777 -0.13519669 C195.60653867 -0.20424892 204.53932288 -0.05319775 213.94534302 7.8896637 C220.88931682 16.22243226 223.43825469 22.48545437 223.39353943 33.43881226 C223.39736498 34.43397549 223.40119052 35.42913872 223.405132 36.45445842 C223.41544513 39.78683654 223.41147298 43.11904182 223.40750122 46.45143127 C223.41184866 48.84162556 223.41703191 51.23181846 223.42298889 53.62200928 C223.43499601 59.43955937 223.43753053 65.25705572 223.43518863 71.07461671 C223.43340416 75.8050464 223.43515788 80.5354621 223.43941307 85.26589012 C223.44000826 85.93966682 223.44060345 86.61344352 223.44121667 87.30763769 C223.44242846 88.6765249 223.44364259 90.04541212 223.44485905 91.41429933 C223.45573184 104.24779755 223.45357353 117.08126949 223.4474742 129.9147692 C223.44230714 141.64508635 223.45355536 153.37532041 223.47257242 165.10562114 C223.49196404 177.15970468 223.50020439 189.21374895 223.49644917 201.26784819 C223.49453889 208.03148647 223.49700759 214.79505405 223.51116371 221.55867958 C223.52374016 227.92067685 223.52179947 234.28250792 223.50875282 240.64450264 C223.50638701 242.97732347 223.50912188 245.31015598 223.51737595 247.64296341 C223.52784449 250.83202281 223.51974135 254.02052465 223.50706482 257.20956421 C223.5144391 258.1286473 223.52181339 259.04773039 223.52941114 259.99466449 C223.44263636 270.40020326 220.22280647 277.92045715 213.13284302 285.5146637 C203.01257709 294.06066604 189.96167568 292.95104081 177.52151489 292.91871643 C175.53628659 292.92442528 173.55106157 292.93139153 171.56584167 292.93951416 C166.1960513 292.95740202 160.82642472 292.95628561 155.45661354 292.95057178 C150.96605432 292.94747414 146.4755263 292.95357865 141.98497152 292.95961052 C131.38889039 292.97363927 120.79288991 292.97210769 110.19680786 292.96070862 C99.28016601 292.94922394 88.36376974 292.96331282 77.44716024 292.99010509 C68.05832745 293.01228157 58.66957163 293.01889522 49.28071451 293.01302868 C43.68017091 293.0096632 38.07978478 293.01204734 32.47926331 293.02927971 C27.21287607 293.04477815 21.94685209 293.04076097 16.68047905 293.02197456 C14.75282802 293.01829699 12.82514989 293.02137277 10.89752388 293.03186035 C-2.06005841 293.09695282 -12.30338086 292.64628869 -22.17965698 283.30763245 C-29.02663512 276.03271817 -30.16588338 269.01589348 -30.14131165 259.44538879 C-30.14654832 258.43459692 -30.151785 257.42380504 -30.15718037 256.38238311 C-30.17217606 252.99707457 -30.17288544 249.61191723 -30.17355347 246.22657776 C-30.18117524 243.79859665 -30.18960276 241.37061795 -30.19877625 238.94264221 C-30.2207265 232.34749244 -30.22954287 225.75237843 -30.23460269 219.15720081 C-30.23786383 215.03601161 -30.2443888 210.9148317 -30.25160408 206.79364777 C-30.27116497 195.37391588 -30.28757227 183.95419262 -30.29048061 172.5344429 C-30.29066818 171.80420166 -30.29085575 171.07396041 -30.29104901 170.32159065 C-30.29141525 168.8413415 -30.29177895 167.36109234 -30.29214012 165.88084319 C-30.29232293 165.14608794 -30.29250574 164.41133269 -30.29269409 163.65431213 C-30.29287464 162.91865578 -30.29305519 162.18299943 -30.29324121 161.42505047 C-30.29678201 149.50783163 -30.32380072 137.59079358 -30.36119198 125.67363742 C-30.39931039 113.42631511 -30.41863835 101.17908244 -30.41894013 88.93169951 C-30.41952389 82.0600964 -30.42796331 75.188709 -30.45693779 68.31716156 C-30.484072 61.85252894 -30.48532645 55.38821059 -30.46928215 48.92353821 C-30.4674672 46.55403971 -30.47416242 44.1845167 -30.49010086 41.81507111 C-30.51057226 38.57350179 -30.50000187 35.33342438 -30.48188782 32.09187317 C-30.49508779 31.16013912 -30.50828775 30.22840508 -30.52188772 29.26843667 C-30.42460457 21.61619636 -28.15558363 15.08180249 -22.90666765 9.38801217 C-16.10392041 2.96603363 -9.32373909 -0.09763301 0 0 Z " fill="#FFFEFE" transform="translate(159.86715698242188,112.48533630371094)"/>
<path d="M0 0 C14.85 0 29.7 0 45 0 C45 14.19 45 28.38 45 43 C30.15 43 15.3 43 0 43 C0 28.81 0 14.62 0 0 Z " fill="#FF9858" transform="translate(174,237)"/>
<path d="M0 0 C14.19 0 28.38 0 43 0 C43 13.86 43 27.72 43 42 C28.81 42 14.62 42 0 42 C0 28.14 0 14.28 0 0 Z " fill="#FF9552" transform="translate(175,310)"/>
<path d="M0 0 C14.19 0 28.38 0 43 0 C43 13.86 43 27.72 43 42 C28.81 42 14.62 42 0 42 C0 28.14 0 14.28 0 0 Z " fill="#FF9552" transform="translate(175,165)"/>
<path d="M0 0 C30.03 0 60.06 0 91 0 C91 5.94 91 11.88 91 18 C60.97 18 30.94 18 0 18 C0 12.06 0 6.12 0 0 Z " fill="#FF9856" transform="translate(250,322)"/>
<path d="M0 0 C30.03 0 60.06 0 91 0 C91 5.94 91 11.88 91 18 C60.97 18 30.94 18 0 18 C0 12.06 0 6.12 0 0 Z " fill="#FF9856" transform="translate(250,177)"/>
<path d="M0 0 C29.37 0 58.74 0 89 0 C89 5.61 89 11.22 89 17 C59.63 17 30.26 17 0 17 C0 11.39 0 5.78 0 0 Z " fill="#FF9552" transform="translate(251,250)"/>
</svg>
