<?xml version="1.0" encoding="UTF-8"?>
<svg version="1.1" xmlns="http://www.w3.org/2000/svg" width="512" height="512">
<path d="M0 0 C0.6476147 -0.00297112 1.29522941 -0.00594224 1.9624688 -0.0090034 C4.13646583 -0.01768755 6.31040777 -0.0191984 8.48442078 -0.02069092 C10.04161192 -0.0253193 11.59880192 -0.03034399 13.1559906 -0.03573608 C17.38955144 -0.04886027 21.62309642 -0.05530509 25.85667443 -0.05974674 C28.50155046 -0.06267747 31.14642216 -0.06678228 33.79129601 -0.07125092 C42.06623766 -0.08492596 50.34116941 -0.09459255 58.61612159 -0.09845281 C68.16880944 -0.10293357 77.72135421 -0.12048229 87.27399856 -0.1494534 C94.65753419 -0.17106888 102.04102955 -0.18115702 109.42459649 -0.18249393 C113.83462694 -0.18354206 118.24452289 -0.18945163 122.65452003 -0.20731354 C126.80367184 -0.22379191 130.952588 -0.22595092 135.10176086 -0.21717453 C136.62311624 -0.21640402 138.14448426 -0.22074869 139.66580772 -0.23063278 C141.74607232 -0.24335377 143.82550249 -0.23747557 145.90576172 -0.22705078 C147.06885518 -0.22851734 148.23194864 -0.2299839 149.43028736 -0.2314949 C153.63934451 0.25573499 157.26456793 1.49703754 160.04521179 4.81134033 C160.95823531 8.36654212 160.51118189 11.79224403 160.21366882 15.40606689 C158.32188752 49.84077014 169.6975301 75.75270848 184.61869812 105.95651245 C186.75246243 110.50436138 186.78143675 114.51248628 186.76361084 119.43565369 C186.76489248 120.71969226 186.76489248 120.71969226 186.76620001 122.02967101 C186.76785197 124.9086567 186.76233804 127.78758459 186.75688171 130.66656494 C186.75659976 132.72609455 186.75675775 134.78562426 186.75732422 136.84515381 C186.75761185 142.44604596 186.75172057 148.04691683 186.74475026 153.64780402 C186.73851111 159.49746579 186.73791248 165.34712802 186.73672485 171.1967926 C186.7336132 182.27835359 186.72540203 193.35990474 186.71537536 204.44146138 C186.70420909 217.05555809 186.69870248 229.66965525 186.69367993 242.28375566 C186.6832193 268.23599005 186.66542229 294.18821501 186.64335632 320.14044189 C191.92335632 320.14044189 197.20335632 320.14044189 202.64335632 320.14044189 C202.63288269 317.73795166 202.62240906 315.33546143 202.61161804 312.86016846 C202.57848922 304.92532237 202.55639099 296.99047324 202.53973198 289.05557632 C202.52929156 284.24430943 202.5151276 279.43311335 202.49247742 274.62188721 C202.47075831 269.97942152 202.45878964 265.33702398 202.45360184 260.69451141 C202.44990441 258.92267534 202.44268434 257.15084303 202.43189621 255.37903595 C202.41739369 252.89870623 202.41537786 250.4186587 202.41630554 247.93829346 C202.40911499 247.20461548 202.40192444 246.4709375 202.39451599 245.71502686 C202.4093739 242.0475734 202.46762473 239.17719661 204.64335632 236.14044189 C207.74254312 234.07431737 208.39590447 233.88943461 211.9028759 233.88037968 C212.77661445 233.87331409 213.65035299 233.86624849 214.55056846 233.85896879 C215.51115641 233.86138388 216.47174436 233.86379896 217.46144104 233.86628723 C218.99132634 233.85843221 218.99132634 233.85843221 220.55211842 233.85041851 C223.98605327 233.83535944 227.41983988 233.83471206 230.85380554 233.83404541 C233.3091609 233.82642794 235.76451387 233.81800116 238.21986389 233.80882263 C244.90163793 233.78683093 251.58335198 233.77805106 258.26515341 233.77299619 C262.43637281 233.76974059 266.60758297 233.76321898 270.77879715 233.7559948 C282.32537731 233.73642816 293.87194887 233.72002412 305.41854668 233.71711826 C306.15758632 233.71693069 306.89662596 233.71674312 307.65806074 233.71654987 C309.15630221 233.71618362 310.65454369 233.71581992 312.15278517 233.71545876 C312.89652423 233.71527595 313.6402633 233.71509314 314.40653992 233.71490479 C315.15118555 233.71472424 315.89583119 233.71454369 316.66304184 233.71435767 C328.73255824 233.71081502 340.80189633 233.68378736 352.87135087 233.6464069 C365.25980551 233.60834512 377.64817163 233.58896095 390.03668606 233.58865875 C396.99368689 233.58807372 403.95047497 233.57955282 410.90742111 233.55066109 C417.44915587 233.5236188 423.99054214 233.52222417 430.53233719 233.53831673 C432.93618435 233.54013849 435.34005529 233.53337546 437.74385071 233.51749802 C441.02017417 233.49717317 444.29500165 233.5075104 447.57130432 233.52571106 C448.52743083 233.51251109 449.48355734 233.49931112 450.46865737 233.48571116 C455.02047537 233.5436535 457.0112209 233.65987506 460.73359776 236.48972893 C463.08994104 239.76029401 463.2710338 241.56803909 463.27445984 245.57623291 C463.28699295 246.85849258 463.29952606 248.14075226 463.31243896 249.46186829 C463.30016105 250.8560385 463.28673959 252.25019904 463.27226257 253.64434814 C463.27309238 255.08819253 463.27555597 256.53203681 463.27957153 257.97587585 C463.28242785 261.00310699 463.2677593 264.02959772 463.24028015 267.05670166 C463.20641039 270.90420509 463.21214471 274.75036672 463.23094273 278.59793186 C463.24161121 281.58292956 463.23248329 284.56762534 463.21755791 287.55259514 C463.21243285 288.96891312 463.21278759 290.38526344 463.21910286 291.80157661 C463.26243888 307.37626463 458.98793548 320.81448038 448.38554382 332.48809814 C441.50736535 339.01157234 431.5107675 345.83042196 421.78788757 346.26934814 C421.08019226 346.22680908 420.37249695 346.18427002 419.64335632 346.14044189 C419.51380554 347.41274658 419.51380554 347.41274658 419.38163757 348.71075439 C416.73689944 370.79067827 406.38869283 390.38970226 389.64335632 405.14044189 C388.98335632 405.47044189 388.32335632 405.80044189 387.64335632 406.14044189 C412.39335632 406.47044189 437.14335632 406.80044189 462.64335632 407.14044189 C462.64335632 413.08044189 462.64335632 419.02044189 462.64335632 425.14044189 C450.10335632 425.14044189 437.56335632 425.14044189 424.64335632 425.14044189 C423.98335632 427.12044189 423.32335632 429.10044189 422.64335632 431.14044189 C420.68744872 435.59816721 418.53463276 439.95676796 416.39335632 444.32794189 C415.55224304 446.10974854 415.55224304 446.10974854 414.69413757 447.92755127 C414.13597351 449.06385986 413.57780945 450.20016846 413.00273132 451.37091064 C412.50225281 452.40626953 412.00177429 453.44162842 411.48612976 454.50836182 C409.17814005 457.80492211 407.36057182 458.63128856 403.64335632 460.14044189 C400.16417283 460.51533872 400.16417283 460.51533872 396.24597454 460.515172 C395.51912391 460.51923273 394.79227327 460.52329346 394.04339686 460.52747723 C391.60668715 460.53742669 389.17055303 460.52599357 386.7338562 460.5146637 C384.96967511 460.51740417 383.20549565 460.52145615 381.44132024 460.52670735 C376.59231429 460.53730508 371.74349238 460.52915806 366.89449441 460.51795685 C361.66533184 460.50912332 356.43619357 460.51755599 351.20703125 460.52381897 C340.96179214 460.53331454 330.71662339 460.52670012 320.47138949 460.51455603 C308.54196709 460.500942 296.61256148 460.50257342 284.68313328 460.50468936 C263.39666648 460.50788046 242.11023313 460.4962054 220.82377625 460.47662354 C200.16719036 460.45762608 179.51064368 460.45053397 158.85404968 460.45611572 C136.36677209 460.46217417 113.87951174 460.46199467 91.39223558 460.45062989 C88.99399682 460.44942259 86.59575806 460.44821661 84.1975193 460.44701195 C83.01751644 460.44640841 81.83751358 460.44580487 80.62175306 460.44518304 C72.30629681 460.44130388 63.99084697 460.44169755 55.67539024 460.44359779 C45.53928512 460.44572045 35.40321434 460.44049045 25.26711889 460.42598424 C20.09544148 460.41874257 14.92381406 460.41466128 9.75213242 460.4192276 C5.01662904 460.42330705 0.28122885 460.41812978 -4.45425888 460.40560152 C-6.16620439 460.40267619 -7.87815965 460.40310276 -9.59010265 460.4072446 C-32.18655953 460.45694459 -32.18655953 460.45694459 -41.98164368 451.82794189 C-48.9716744 443.91817029 -50.14471393 436.34362177 -49.59199524 426.13458252 C-48.9530952 420.72116396 -46.36066446 415.89890245 -42.29141831 412.3282764 C-39.95007287 409.68069345 -39.8704119 408.59894598 -39.91587448 405.11946487 C-39.91922766 404.10101714 -39.92258085 403.08256941 -39.92603564 402.03325963 C-39.95016693 400.91582521 -39.97429822 399.79839079 -39.99916077 398.64709473 C-40.01330926 396.86363714 -40.01330926 396.86363714 -40.02774358 395.04415011 C-40.05126721 392.43043633 -40.08217449 389.81800658 -40.12544441 387.20465851 C-40.19574745 382.94986845 -40.23829239 378.69505854 -40.27709961 374.43988037 C-40.32812418 369.05354723 -40.38626421 363.6673708 -40.45255706 358.28120384 C-40.58302193 347.63259696 -40.65825142 336.98419963 -40.71339417 326.33496094 C-40.72235694 324.65252017 -40.73133706 322.97007949 -40.74033427 321.2876389 C-40.75843963 317.87921494 -40.77630412 314.47078979 -40.79408121 311.0623641 C-40.84019664 302.28855711 -40.89031037 293.51477945 -40.94599915 284.74102783 C-40.95156599 283.86079479 -40.95713283 282.98056175 -40.96286836 282.07365498 C-41.05450844 267.94913169 -41.2196581 253.82632889 -41.40996334 239.70283404 C-41.60430994 225.12074217 -41.70255765 210.53997768 -41.72111917 195.95660281 C-41.73433254 187.80143313 -41.78881859 179.65141053 -41.95709991 171.49784088 C-42.85175172 126.88444405 -36.65162819 93.76936265 -15.35664368 54.14044189 C-14.18276214 51.79267882 -14.22621165 50.38665427 -14.21479797 47.77008057 C-14.20776352 46.8654155 -14.20072906 45.96075043 -14.19348145 45.02867126 C-14.18931717 44.04848526 -14.18515289 43.06829926 -14.18086243 42.05841064 C-14.15766298 39.99134318 -14.1335456 37.92428586 -14.1085968 35.85723877 C-14.07347916 32.59178908 -14.04413862 29.32671174 -14.03071594 26.06109619 C-14.01524069 22.91390664 -13.97503061 19.76781121 -13.93086243 16.62091064 C-13.93277084 15.64679733 -13.93467926 14.67268402 -13.93664551 13.66905212 C-13.85884436 9.35639814 -13.75669689 6.80976881 -11.508255 3.0479126 C-7.86702631 -0.18015046 -4.68328333 0.01198936 0 0 Z M419.64335632 252.14044189 C419.64335632 276.89044189 419.64335632 301.64044189 419.64335632 327.14044189 C428.04331603 325.46044995 432.99448311 321.15598081 438.78398132 315.00762939 C444.01461598 306.94190284 445.22591061 298.78388733 445.03398132 289.34747314 C445.02832153 288.27543137 445.02266174 287.20338959 445.01683044 286.09886169 C444.99466147 282.71641002 444.94450194 279.33506665 444.89335632 275.95294189 C444.87326615 273.64241045 444.85501983 271.3318622 444.83866882 269.02130127 C444.79828339 263.39359055 444.71995393 257.76823842 444.64335632 252.14044189 C436.39335632 252.14044189 428.14335632 252.14044189 419.64335632 252.14044189 Z " fill="#020100" transform="translate(49.35664367675781,25.85955810546875)"/>
<path d="M0 0 C45.54 0 91.08 0 138 0 C138 65.67 138 131.34 138 199 C125.625 199.495 125.625 199.495 113 200 C101.98223521 205.4861934 101.98223521 205.4861934 95.58984375 215.00390625 C91.59112667 219.62987307 86.75041632 220.16349282 80.9375 221.5 C78.58647182 222.08677609 76.23621431 222.6766482 73.88671875 223.26953125 C72.14140869 223.70193115 72.14140869 223.70193115 70.36083984 224.14306641 C65.61227199 225.35383737 60.92723871 226.72765596 56.25 228.1875 C55.11872681 228.52587891 55.11872681 228.52587891 53.96459961 228.87109375 C46.44538106 231.23572516 40.23781443 235.23753016 36 242 C35.52902345 243.63112218 35.11424854 245.27927762 34.75 246.9375 C32.95150106 253.59194607 28.4722703 256.28951226 23 260 C21.41847732 261.10433322 19.83781871 262.20990446 18.2578125 263.31640625 C14.91435396 265.64091512 11.56441936 267.95498235 8.1953125 270.2421875 C7.48391113 270.7254248 6.77250977 271.20866211 6.03955078 271.70654297 C4 273 4 273 0 275 C0 184.25 0 93.5 0 0 Z " fill="#E5E5E5" transform="translate(28,148)"/>
<path d="M0 0 C59.73 0 119.46 0 181 0 C181.061875 15.7575 181.12375 31.515 181.1875 47.75 C181.22846802 55.18225098 181.22846802 55.18225098 181.27026367 62.76464844 C181.28381348 68.86767578 181.28381348 68.86767578 181.28633118 71.73492432 C181.29090407 73.71525094 181.30138421 75.69556981 181.31672668 77.67584229 C181.41982389 91.6973388 181.00907157 104.28131246 174.4375 117 C174.09235352 117.67297119 173.74720703 118.34594238 173.39160156 119.03930664 C164.11093107 136.42715839 149.45986574 146.89231611 131.06005859 153.10571289 C123.79439484 155.3035733 117.02516835 155.56318859 109.4765625 155.49609375 C108.11860069 155.49624941 106.76063846 155.49774943 105.40267944 155.50050354 C102.57716868 155.50187564 99.75217283 155.48953615 96.92675781 155.46655273 C93.35122487 155.43822625 89.77654829 155.44090647 86.20095253 155.45364285 C83.40203874 155.46068557 80.60331389 155.45271358 77.80442429 155.44038582 C75.8600751 155.43383307 73.91569894 155.43795898 71.97134399 155.44248962 C60.36078599 155.3215993 48.21754042 154.03269244 37.8125 148.5 C37.15451416 148.16033203 36.49652832 147.82066406 35.81860352 147.47070312 C28.87586587 143.69339599 23.44911832 138.65805691 18 133 C16.98679687 132.01580078 16.98679687 132.01580078 15.953125 131.01171875 C4.25426066 118.92461776 -0.18146264 101.81338202 -0.11352539 85.48461914 C-0.11364593 84.54211776 -0.11376646 83.59961637 -0.11389065 82.62855434 C-0.11314814 79.59739709 -0.10555022 76.56630241 -0.09765625 73.53515625 C-0.09618478 71.65588409 -0.09516533 69.77661152 -0.09460449 67.89733887 C-0.08937539 60.9523863 -0.07541413 54.00744253 -0.0625 47.0625 C-0.041875 31.531875 -0.02125 16.00125 0 0 Z " fill="#F6921D" transform="translate(270,278)"/>
<path d="M0 0 C1.20432253 0.00138269 1.20432253 0.00138269 2.43297482 0.00279331 C3.810751 0.00073132 3.810751 0.00073132 5.21636105 -0.00137234 C6.73981388 0.00402058 6.73981388 0.00402058 8.29404354 0.00952244 C9.35732876 0.00937641 10.42061398 0.00923038 11.51611996 0.00907993 C15.04945535 0.00977958 18.58273878 0.0175744 22.11606503 0.02539158 C24.55844246 0.02725557 27.00082026 0.02867956 29.4431982 0.0296793 C35.88600342 0.03350594 42.32878626 0.04333746 48.7715826 0.05438328 C55.34018304 0.06459427 61.90878707 0.06917625 68.47739315 0.0742197 C81.37649127 0.0849596 94.27557383 0.10184679 107.17465878 0.12304783 C107.30693371 1.29313389 107.43920864 2.46321995 107.57549191 3.66876316 C107.75336288 5.21766643 107.93136349 6.76655481 108.10947323 8.31543064 C108.19612492 9.08501102 108.2827766 9.85459141 108.3720541 10.64749241 C110.37045707 27.92625032 116.95939546 42.79476389 128.17465878 56.12304783 C128.60520565 56.67476658 129.03575253 57.22648533 129.47934628 57.79492283 C132.25270445 61.31146849 135.36131518 64.11476657 138.81919003 66.92382908 C139.26649471 67.31957127 139.7137994 67.71531345 140.17465878 68.12304783 C140.17465878 68.45304783 140.17465878 68.78304783 140.17465878 69.12304783 C117.73465878 69.12304783 95.29465878 69.12304783 72.17465878 69.12304783 C72.17465878 75.06304783 72.17465878 81.00304783 72.17465878 87.12304783 C84.71465878 87.12304783 97.25465878 87.12304783 110.17465878 87.12304783 C118.17465878 102.12304783 118.17465878 102.12304783 118.17465878 104.12304783 C80.55465878 104.12304783 42.93465878 104.12304783 4.17465878 104.12304783 C-0.3561729 74.67264196 -0.3561729 74.67264196 -1.82534122 62.18554783 C-3.18512532 50.83191047 -4.73182817 39.52070566 -6.60659122 28.23852634 C-9.60759854 9.25080215 -9.60759854 9.25080215 -6.75039005 4.23657322 C-5.38784122 2.87304783 -5.38784122 2.87304783 -2.82534122 1.12304783 C-1.82534122 0.12304783 -1.82534122 0.12304783 0 0 Z " fill="#8B6138" transform="translate(145.8253412246704,363.8769521713257)"/>
<path d="M0 0 C6.27 0 12.54 0 19 0 C18.511575 12.37343333 14.80478672 23.04513169 6 32 C-8.62831044 45.15141371 -24.32571356 44.55152239 -42.9375 44.5 C-47.34287973 44.48794003 -51.74706875 44.50162517 -56.15234375 44.53125 C-57.6524424 44.51427063 -57.6524424 44.51427063 -59.18284607 44.49694824 C-65.10773062 44.5399225 -68.5005745 45.0316351 -73 49 C-75.68408645 53.02612967 -75.80610406 56.26816918 -75 61 C-73.07643127 64.57339883 -70.9117746 66.69607513 -67 68 C-65.48928301 68.09226275 -63.97483359 68.12894932 -62.46130371 68.13130188 C-61.53069122 68.13531006 -60.60007874 68.13931824 -59.64126587 68.14344788 C-58.62205048 68.14291916 -57.60283508 68.14239044 -56.55273438 68.1418457 C-54.93998123 68.14705734 -54.93998123 68.14705734 -53.29464722 68.15237427 C-50.95546487 68.15973451 -48.61627553 68.16507846 -46.27708435 68.16866493 C-42.56882063 68.17582941 -38.86068931 68.19149791 -35.15246582 68.21000671 C-24.60718207 68.26246361 -14.06200377 68.31041361 -3.51660156 68.32592773 C2.93201314 68.33603715 9.38029729 68.36544174 15.82878113 68.40724754 C18.28140253 68.4195248 20.7340707 68.42468482 23.1867218 68.42244911 C26.63069605 68.42008323 30.07373125 68.44236338 33.51757812 68.4699707 C35.02211044 68.46006859 35.02211044 68.46006859 36.55703735 68.44996643 C46.53324126 68.58045699 55.09583827 71.19685852 62.3515625 78.23046875 C68.43485292 84.76063596 71.08597968 92.38486563 70.94921875 101.31640625 C69.85004067 110.72048541 66.59627853 118.46899196 59.0625 124.4375 C49.11297844 131.13356584 39.72217233 131.14617014 28.1550293 131.12597656 C26.18681785 131.12884423 24.2186064 131.1317198 22.25039542 131.13489199 C20.1450896 131.13756345 18.03979188 131.13801675 15.93448448 131.13809967 C11.53309306 131.13924594 7.13178438 131.15212728 2.73042297 131.16766357 C1.98556584 131.17023643 1.2407087 131.17280928 0.47328013 131.1754601 C-1.04926625 131.18072609 -2.57181256 131.18601157 -4.0943588 131.19131613 C-14.33171803 131.22633957 -24.56897223 131.25297891 -34.80639648 131.25048828 C-41.7251978 131.24889559 -48.64371428 131.26502712 -55.56242436 131.30119491 C-59.21696216 131.31958205 -62.87102475 131.32906147 -66.52559853 131.31671906 C-70.60640532 131.30306901 -74.68611284 131.32830706 -78.7668457 131.35644531 C-79.96354385 131.34624863 -81.160242 131.33605194 -82.39320374 131.32554626 C-90.67473469 131.42765211 -97.79008155 132.90897201 -103.90680408 138.85295486 C-108.27551365 143.91049141 -109.55602938 149.5823528 -111 156 C-116.94 156 -122.88 156 -129 156 C-129 143.47591665 -125.60610789 134.01185732 -116.96484375 124.83984375 C-105.05935659 113.60627121 -92.5001992 111.70001431 -76.64331055 111.71289062 C-74.64731836 111.70240261 -72.65132618 111.69191403 -70.65533412 111.68140411 C-68.52997301 111.67208827 -66.40465086 111.66757676 -64.27927208 111.66447449 C-59.83697405 111.65771406 -55.39482484 111.63590917 -50.95259094 111.61193848 C-40.72928723 111.55902262 -30.5059379 111.52542311 -20.28255463 111.49217987 C-10.89303845 111.46146763 -1.50358705 111.42664256 7.88584489 111.37586927 C12.3000826 111.35256268 16.71421506 111.33879095 21.12850821 111.33237457 C23.21110834 111.32786381 25.29363044 111.31885195 27.37620544 111.30781555 C29.91249784 111.29439811 32.44884139 111.28804235 34.98516846 111.29008484 C36.10508682 111.28181168 37.22500519 111.27353851 38.37886047 111.26501465 C39.3494254 111.26208153 40.31999033 111.25914841 41.31996632 111.2561264 C44.24051483 110.97701439 46.38079674 110.31065141 49 109 C51.44619405 105.03949534 51.71058861 100.53888473 51 96 C49.28178816 92.43140618 48.1477676 90.53281218 44.52679443 88.85189819 C39.71239344 87.68897827 35.1321566 87.72447498 30.19628906 87.74462891 C29.11907593 87.74100845 28.04186279 87.737388 26.93200684 87.73365784 C24.59778946 87.72677613 22.26355604 87.7242561 19.92932892 87.72560501 C16.22944812 87.72657195 12.52985648 87.71360701 8.83001709 87.69662476 C-1.68784802 87.65040803 -12.20567431 87.62575468 -22.72363281 87.61914062 C-29.16271456 87.6141156 -35.60149453 87.58981415 -42.04047394 87.55381393 C-44.48834671 87.54403846 -46.93626112 87.54167162 -49.38414764 87.54698563 C-52.81599487 87.55408541 -56.24694808 87.53671238 -59.67871094 87.51416016 C-61.18156647 87.52641884 -61.18156647 87.52641884 -62.71478271 87.53892517 C-71.71553613 87.43421296 -79.78366705 85.00924021 -86.46875 78.765625 C-92.14210253 72.22390218 -95.53182898 63.87058303 -95.24609375 55.1640625 C-94.24359559 46.34844372 -90.71536524 37.94637198 -83.8203125 32.17578125 C-75.94071056 26.6972028 -69.25599944 25.71744855 -59.828125 25.7265625 C-57.61457832 25.70626859 -55.40103669 25.68541771 -53.1875 25.6640625 C-49.72065967 25.64151235 -46.25401958 25.6250068 -42.78710938 25.61914062 C-39.42541873 25.60956316 -36.06461478 25.57571952 -32.703125 25.5390625 C-31.16824432 25.54663071 -31.16824432 25.54663071 -29.60235596 25.55435181 C-22.63662758 25.46016622 -17.25777362 24.03651595 -11 21 C-10.26992737 20.66578033 -9.53985474 20.33156067 -8.78765869 19.98721313 C-6.45117524 18.69691809 -6.0120208 17.4333478 -5 15 C-4.48759766 14.06220703 -4.48759766 14.06220703 -3.96484375 13.10546875 C-3.45630859 12.15607422 -3.45630859 12.15607422 -2.9375 11.1875 C-2.42509766 10.24970703 -2.42509766 10.24970703 -1.90234375 9.29296875 C-0.62651887 6.3099093 -0.62651887 6.3099093 0 0 Z " fill="#000000" transform="translate(416,87)"/>
<path d="M0 0 C11.55 0 23.1 0 35 0 C35 65.67 35 131.34 35 199 C23.45 199 11.9 199 0 199 C0 133.33 0 67.66 0 0 Z " fill="#28A8DF" transform="translate(183,148)"/>
<path d="M0 0 C1.50298346 0.00138269 1.50298346 0.00138269 3.03633022 0.00279331 C4.18202984 0.00141865 5.32772945 0.00004398 6.50814724 -0.00137234 C8.41030499 0.00402058 8.41030499 0.00402058 10.35089016 0.00952244 C11.69092208 0.00980431 13.03095415 0.00964657 14.37098598 0.00907993 C18.01958415 0.00879196 21.66814971 0.01468863 25.31674027 0.02165389 C29.12576493 0.02788749 32.93479026 0.02849123 36.74381924 0.0296793 C43.96156731 0.0327926 51.17930031 0.04100597 58.39704174 0.05102879 C66.61214234 0.06218997 74.82724364 0.06770039 83.04234993 0.07272422 C99.94590528 0.08318858 116.84944593 0.10078799 133.75298977 0.12304783 C132.91851135 4.7629764 131.29929357 8.82906957 129.40923977 13.12695408 C129.08008572 13.88725422 128.75093166 14.64755436 128.41180325 15.4308939 C127.36346699 17.85114098 126.30876232 20.26853639 125.25298977 22.68554783 C124.1978543 25.1063933 123.1441822 27.52783843 122.09417629 29.95091343 C121.44180192 31.45591141 120.78640493 32.9596037 120.12762356 34.4618082 C118.7273488 37.68794305 117.60904646 40.69882105 116.75298977 44.12304783 C71.21298977 44.12304783 25.67298977 44.12304783 -21.24701023 44.12304783 C-18.99646516 37.37141263 -18.99646516 37.37141263 -17.56707859 34.06128025 C-17.09164867 32.95564983 -17.09164867 32.95564983 -16.60661411 31.82768345 C-16.10183285 30.66484585 -16.10183285 30.66484585 -15.58685398 29.47851658 C-15.23691883 28.66812428 -14.88698368 27.85773197 -14.52644444 27.02278233 C-13.79056531 25.32040298 -13.05343673 23.61856324 -12.31512547 21.91723728 C-11.18131192 19.30317396 -10.05277976 16.68687468 -8.92474461 14.07031345 C-8.20826155 12.41457866 -7.49147543 10.75897497 -6.77435398 9.10351658 C-6.43580891 8.31817036 -6.09726383 7.53282413 -5.74845982 6.72367954 C-2.8923366 0.15838635 -2.8923366 0.15838635 0 0 Z " fill="#C7C7C7" transform="translate(53.247010231018066,86.87695217132568)"/>
<path d="M0 0 C7.46567569 4.38089997 13.77639094 11.12877369 16.52734375 19.48046875 C18.38410739 29.37809312 18.00550648 40.10288848 13 49 C7.1786935 57.39687325 -0.22483378 62.24998395 -10 65 C-20.47552637 66.00099474 -29.04193906 65.30207048 -37.65625 59.08203125 C-45.9210303 52.21497115 -51.04296318 43.53971316 -52.25390625 32.734375 C-52.72766639 23.0146509 -49.31289694 14.50236227 -43.125 7.07421875 C-31.01522097 -4.74617218 -15.1876114 -7.64126699 0 0 Z " fill="#020303" transform="translate(114,195)"/>
<path d="M0 0 C45.54 0 91.08 0 138 0 C138 8.58 138 17.16 138 26 C92.46 26 46.92 26 0 26 C0 17.42 0 8.84 0 0 Z " fill="#28AAE0" transform="translate(54,44)"/>
<path d="M0 0 C0.15855469 1.23105469 0.31710938 2.46210938 0.48046875 3.73046875 C1.69543212 13.11963424 2.92777547 22.50608836 4.20703125 31.88671875 C6.61832372 49.57707223 8.93274731 67.26514795 11 85 C-3.19 85 -17.38 85 -32 85 C-33.87108506 76.35736899 -35.73122222 67.71318595 -37.56274414 59.06219482 C-37.99787455 57.01002408 -38.43536933 54.9583671 -38.87304688 52.90673828 C-39.72169072 48.91997175 -40.54911187 44.92904281 -41.375 40.9375 C-41.63748535 39.70950684 -41.8999707 38.48151367 -42.17041016 37.21630859 C-45.86490574 19.13037749 -45.86490574 19.13037749 -42.25 13.0625 C-37.45518797 10.01963852 -32.42589456 8.5447931 -27 7 C-25.21744579 6.48438234 -23.43489389 5.96875673 -21.65234375 5.453125 C-17.13236449 4.15157854 -12.60713922 2.86968951 -8.07788086 1.60083008 C-2.54164974 0 -2.54164974 0 0 0 Z " fill="#A47A51" transform="translate(122,383)"/>
<path d="M0 0 C58.74 0 117.48 0 178 0 C176 6 176 6 170 17 C116.54 17 63.08 17 8 17 C0 2 0 2 0 0 Z " fill="#F4911D" transform="translate(276,451)"/>
<path d="M0 0 C5.61 0 11.22 0 17 0 C17.0825 2.041875 17.165 4.08375 17.25 6.1875 C18.07725452 17.4064312 20.85136221 27.18969338 28 36 C28.50144531 36.62519531 29.00289063 37.25039063 29.51953125 37.89453125 C36.63507062 45.84108252 47.49550505 50.32071284 57.96484375 51.4140625 C59.27582031 51.48367188 60.58679688 51.55328125 61.9375 51.625 C64.268125 51.74875 66.59875 51.8725 69 52 C69 57.61 69 63.22 69 69 C57.70370225 69.34492512 48.58723435 69.36956221 38 65 C36.67935547 64.45666016 36.67935547 64.45666016 35.33203125 63.90234375 C19.17856415 56.51432391 9.27644382 43.68598991 2.89453125 27.5546875 C0.58970435 20.97234343 -0.26988869 15.47814863 -0.125 8.5625 C-0.11597656 7.73556641 -0.10695313 6.90863281 -0.09765625 6.05664062 C-0.07431512 4.03763292 -0.03845288 2.01877644 0 0 Z " fill="#030100" transform="translate(287,347)"/>
<path d="M0 0 C1.8069593 2.71043894 2.35394634 3.89366424 2.96142578 6.93310547 C3.12144073 7.7175705 3.28145569 8.50203552 3.44631958 9.31027222 C3.61098724 10.15405426 3.77565491 10.9978363 3.9453125 11.8671875 C4.12005096 12.73892609 4.29478943 13.61066467 4.474823 14.50881958 C4.84274003 16.35240363 5.20733286 18.19665374 5.56884766 20.04150391 C6.12184028 22.85890177 6.68703921 25.67364601 7.25390625 28.48828125 C7.61010734 30.28110465 7.96559953 32.07406908 8.3203125 33.8671875 C8.48902863 34.70692108 8.65774475 35.54665466 8.83157349 36.41183472 C8.98528412 37.20260406 9.13899475 37.99337341 9.29736328 38.80810547 C9.43345001 39.4985495 9.56953674 40.18899353 9.70974731 40.90036011 C10.0396978 43.28716732 10.0472212 45.59349071 10 48 C3.25574611 48.10149262 -3.48831055 48.17150433 -10.2331543 48.21972656 C-12.52717448 48.23983106 -14.82114348 48.26711891 -17.11499023 48.30175781 C-20.41402826 48.35032559 -23.71238822 48.37298077 -27.01171875 48.390625 C-28.03585373 48.41127014 -29.05998871 48.43191528 -30.11515808 48.45318604 C-37.26105509 48.45543349 -37.26105509 48.45543349 -41.10083008 46.08886719 C-44.17867807 42.7035905 -45.02249061 41.23698368 -44.9375 36.5625 C-43.09805192 29.5725973 -36.39412279 25.93435893 -30.75 21.9375 C-29.96802246 21.37820801 -29.18604492 20.81891602 -28.38037109 20.24267578 C-25.9244993 18.48904445 -23.46330138 16.74317715 -21 15 C-20.1965918 14.4313623 -19.39318359 13.86272461 -18.56542969 13.27685547 C-15.54059924 11.13793013 -12.5150378 9.00011661 -9.48339844 6.87084961 C-6.28665568 4.62496282 -3.10496019 2.37250804 0 0 Z " fill="#C3996B" transform="translate(62,420)"/>
<path d="M0 0 C23.1 0 46.2 0 70 0 C70 5.94 70 11.88 70 18 C46.9 18 23.8 18 0 18 C0 12.06 0 6.12 0 0 Z " fill="#0B0B0B" transform="translate(62,312)"/>
<path d="M0 0 C22.77 0 45.54 0 69 0 C69 5.61 69 11.22 69 17 C46.23 17 23.46 17 0 17 C0 11.39 0 5.78 0 0 Z " fill="#020202" transform="translate(62,278)"/>
<path d="M0 0 C5.01791684 2.41935276 8.49958655 5.9991731 11 11 C11.76519013 17.74872608 11.16801203 23.48088926 7 29 C1.96752084 33.0054426 -2.25829207 34.43259425 -8.5859375 34.33984375 C-13.48810561 33.64973271 -17.07822269 31.08418102 -20.38671875 27.49609375 C-23.81370445 22.50592159 -23.87366848 16.8421064 -23 11 C-17.99792118 0.81058019 -10.52954659 -0.99231329 0 0 Z " fill="#28A8DF" transform="translate(103,209)"/>
<path d="M0 0 C2.97888525 1.48944263 3.31769777 3.64388714 4.6015625 6.6796875 C5.09140625 7.83597656 5.58125 8.99226563 6.0859375 10.18359375 C6.59382813 11.40175781 7.10171875 12.61992188 7.625 13.875 C8.140625 15.08542969 8.65625 16.29585937 9.1875 17.54296875 C13 26.61026372 13 26.61026372 13 30 C4.75 30 -3.5 30 -12 30 C-8.625 19.875 -8.625 19.875 -6.73828125 15.52734375 C-6.34189453 14.60888672 -5.94550781 13.69042969 -5.53710938 12.74414062 C-5.13298828 11.81794922 -4.72886719 10.89175781 -4.3125 9.9375 C-3.89677734 8.97650391 -3.48105469 8.01550781 -3.05273438 7.02539062 C-2.03848513 4.68212514 -1.02085998 2.34039113 0 0 Z " fill="#006BB2" transform="translate(200,101)"/>
<path d="M0 0 C5.61 0 11.22 0 17 0 C17 5.94 17 11.88 17 18 C11.39 18 5.78 18 0 18 C0 12.06 0 6.12 0 0 Z " fill="#090501" transform="translate(287,312)"/>
</svg>
