<?xml version="1.0" encoding="UTF-8"?>
<svg version="1.1" xmlns="http://www.w3.org/2000/svg" width="512" height="512">
<path d="M0 0 C0.75901611 -0.00067474 1.51803223 -0.00134949 2.30004883 -0.00204468 C75.3151473 0.09872686 168.16584862 10.37456371 224.375 61.25 C224.8901416 61.71599609 225.4052832 62.18199219 225.93603516 62.66210938 C244.12531247 79.34595555 256.28070492 100.89120629 257.79296875 125.87109375 C258.19185885 136.81851303 258.24505841 145.8641624 250.5078125 154.28125 C243.14123496 161.2751991 235.16999152 162.88288296 225.375 164.25 C226.921875 165.36375 226.921875 165.36375 228.5 166.5 C234.74509937 171.8057958 238.89993961 180.5310038 239.578125 188.6953125 C239.74797619 198.40513862 237.5397531 206.05763302 232.375 214.25 C232.89449219 214.6625 233.41398437 215.075 233.94921875 215.5 C243.36420991 223.29651764 247.18185306 231.42696836 248.66015625 243.59765625 C249.08603169 253.8001505 245.94768696 263.46781133 239.375 271.25 C236.47808639 274.23274809 233.65506557 276.75614628 229.375 277.25 C229.4678125 278.920625 229.4678125 278.920625 229.5625 280.625 C229.52790662 290.41492515 225.39572364 299.33934606 218.5625 306.25 C217.840625 306.91 217.11875 307.57 216.375 308.25 C217.18582031 308.27578125 217.99664062 308.3015625 218.83203125 308.328125 C232.25938407 309.01590559 242.52299586 312.66943911 251.6875 322.6875 C257.59095277 329.43671965 257.8947776 336.41309203 257.8125 345 C257.80114014 346.65684814 257.80114014 346.65684814 257.78955078 348.34716797 C257.30252803 372.95070418 248.44836613 396.51437861 232.375 415.25 C231.65957031 416.10980469 230.94414062 416.96960938 230.20703125 417.85546875 C198.92136397 454.04068589 147.61364278 466.46989161 101.86352539 469.97083282 C86.82601668 470.9921835 71.68209139 470.68246674 56.61920547 470.65297651 C51.4065331 470.64523603 46.19387438 470.6524645 40.98120117 470.65713501 C32.23711246 470.6625516 23.49310043 470.65550993 14.74902344 470.64111328 C4.7236437 470.62479482 -5.30155282 470.63008626 -15.32692814 470.6465925 C-24.02514972 470.66032558 -32.72331703 470.66207002 -41.42154598 470.65427649 C-46.57692898 470.64966414 -51.73222667 470.64879272 -56.88760376 470.65888596 C-117.87315719 470.76185717 -180.54115492 464.30651047 -226.24609375 419.69140625 C-244.92858704 399.97279548 -254.74380409 373.3029603 -254.875 346.375 C-254.895625 345.32441406 -254.91625 344.27382813 -254.9375 343.19140625 C-254.98979349 332.74578157 -252.54157184 326.28941414 -245.3046875 318.58984375 C-237.86318608 312.0920896 -229.52530323 309.36302123 -219.875 308.6875 C-218.11929688 308.56181641 -218.11929688 308.56181641 -216.328125 308.43359375 C-215.43609375 308.37300781 -214.5440625 308.31242187 -213.625 308.25 C-214.29595703 307.68345703 -214.29595703 307.68345703 -214.98046875 307.10546875 C-221.42888908 301.2345189 -225.32047217 293.9148112 -226.625 285.25 C-226.68871368 283.64696373 -226.71144214 282.04162328 -226.6875 280.4375 C-226.67847656 279.64730469 -226.66945312 278.85710937 -226.66015625 278.04296875 C-226.64855469 277.45128906 -226.63695312 276.85960937 -226.625 276.25 C-227.285 276.064375 -227.945 275.87875 -228.625 275.6875 C-235.89707179 272.2029656 -240.93603054 266.83572436 -243.625 259.25 C-247.13718272 248.10790309 -246.0825773 238.00872051 -241.625 227.25 C-238.54175793 221.86298718 -234.52789041 217.98553555 -229.625 214.25 C-229.96273437 213.60933594 -230.30046875 212.96867188 -230.6484375 212.30859375 C-235.5513496 202.80034514 -238.50378922 194.09607996 -235.9375 183.37890625 C-233.38817273 175.72030224 -229.37784607 169.84920923 -223.625 164.25 C-224.5428125 164.09144531 -225.460625 163.93289062 -226.40625 163.76953125 C-236.74314766 161.80421772 -243.41973333 159.29394919 -250.30078125 151.2890625 C-254.49454988 144.83140107 -255.14558679 139.439854 -255.0625 131.875 C-255.05492676 130.90691406 -255.04735352 129.93882812 -255.03955078 128.94140625 C-254.46746354 103.58583151 -242.90223033 83.18266395 -225.625 65.25 C-225.05394531 64.61578125 -224.48289063 63.9815625 -223.89453125 63.328125 C-183.42995832 19.63886888 -107.51162631 8.80250795 -51.5 2.9375 C-50.72310822 2.85609772 -49.94621643 2.77469543 -49.14578247 2.69082642 C-32.78475607 1.00420569 -16.44987883 0.01352635 0 0 Z " fill="#FEB554" transform="translate(254.625,20.75)"/>
<path d="M0 0 C0.75901611 -0.00067474 1.51803223 -0.00134949 2.30004883 -0.00204468 C75.3151473 0.09872686 168.16584862 10.37456371 224.375 61.25 C224.8901416 61.71599609 225.4052832 62.18199219 225.93603516 62.66210938 C244.12531247 79.34595555 256.28070492 100.89120629 257.79296875 125.87109375 C258.19185885 136.81851303 258.24505841 145.8641624 250.5078125 154.28125 C243.44626722 160.98559649 235.90344473 163.39907085 226.15834141 163.26131535 C224.56350675 163.21388981 222.96885343 163.1600867 221.37440491 163.10108948 C220.49009794 163.07372127 219.60579098 163.04635306 218.69468683 163.01815552 C216.76356433 162.95815751 214.83251918 162.89562895 212.90155029 162.8308754 C207.52164638 162.6516564 202.1410952 162.4946267 196.76051331 162.33729553 C195.61316527 162.30349324 194.46581722 162.26969095 193.28370106 162.23486435 C177.20438852 161.77268172 161.12060961 161.51832028 145.03695011 161.25964451 C131.97155955 161.04349662 118.91576651 160.75240597 105.85668945 160.28735352 C44.59096387 154.34165738 44.59096387 154.34165738 -10.25352192 174.65168285 C-17.71793212 181.81925497 -23.4380462 190.0455942 -28.72903442 198.88839722 C-34.47002718 208.14792649 -44.45136902 212.34735387 -54.625 215.25 C-55.800625 215.60578125 -56.97625 215.9615625 -58.1875 216.328125 C-71.02787405 219.46426713 -87.67601719 219.13762481 -99.625 213.25 C-100.47449219 212.88777344 -101.32398438 212.52554688 -102.19921875 212.15234375 C-111.62019654 207.89631244 -118.43618665 202.12081899 -124.43208313 193.80784607 C-134.10868501 180.48590146 -145.69339245 164.78312509 -162.89926624 161.86131477 C-180.55452277 159.52677203 -198.94327858 160.8529712 -216.61242676 162.53218079 C-227.53964164 163.52252617 -236.81792336 163.42824096 -245.625 156.25 C-251.24941063 150.90617221 -254.65217244 145.18700478 -255.05859375 137.3515625 C-255.08224359 135.5261944 -255.08254897 133.7004112 -255.0625 131.875 C-255.05492676 130.90691406 -255.04735352 129.93882812 -255.03955078 128.94140625 C-254.46746354 103.58583151 -242.90223033 83.18266395 -225.625 65.25 C-225.05394531 64.61578125 -224.48289063 63.9815625 -223.89453125 63.328125 C-183.42995832 19.63886888 -107.51162631 8.80250795 -51.5 2.9375 C-50.72310822 2.85609772 -49.94621643 2.77469543 -49.14578247 2.69082642 C-32.78475607 1.00420569 -16.44987883 0.01352635 0 0 Z " fill="#FFB654" transform="translate(254.625,20.75)"/>
<path d="M0 0 C1.06907907 -0.04772993 1.06907907 -0.04772993 2.15975571 -0.0964241 C18.98728555 -0.75296076 33.29019618 -0.2524304 46.60546875 11.2265625 C54.58508182 18.61209175 61.7695965 26.9458834 68.25224304 35.67141724 C74.44448444 43.94144493 82.05235 49.41293393 91.75 52.9375 C92.38679687 53.18371094 93.02359375 53.42992187 93.6796875 53.68359375 C108.34889473 59.276229 127.42603413 58.57468907 141.875 52.5625 C142.76832031 52.20027344 143.66164062 51.83804688 144.58203125 51.46484375 C155.00669124 46.74091949 162.05411478 39.5201056 169.18241882 30.82194519 C182.41205124 15.03256868 194.9266906 0.60283177 216.40821552 -1.44813061 C226.14682531 -2.014041 235.83684436 -1.80536848 245.57594895 -1.38666511 C251.44839433 -1.17359029 257.32147793 -1.17334214 263.19718933 -1.14619446 C273.02246768 -1.07238439 282.83681642 -0.86533178 292.6574707 -0.55834961 C306.49842835 -0.12595469 320.33469406 0.0544627 334.18129504 0.18916953 C344.98223518 0.30319833 355.78223156 0.48398465 366.58203125 0.67578125 C367.73289286 0.69554402 368.88375447 0.71530678 370.06949067 0.73566842 C376.67348307 0.85316692 383.27513221 1.00453443 389.87708473 1.20699883 C391.87145402 1.2643441 393.86612765 1.31205661 395.86097336 1.34931183 C398.58818484 1.40258987 401.31181526 1.49237627 404.03767395 1.59199524 C404.82179572 1.59975662 405.6059175 1.607518 406.41380054 1.61551458 C412.63260763 1.90823603 416.33990501 4.40642513 420.875 8.5625 C427.54374578 16.06975212 430.48028655 24.84109216 430.16015625 34.79296875 C429.23902554 43.73929304 426.26979624 50.79753124 419.421875 56.6640625 C410.19058004 63.75514103 402.41046646 66.02132431 390.86445618 65.94104004 C389.78858645 65.94557017 388.71271673 65.9501003 387.60424489 65.9547677 C384.01639327 65.96635037 380.42891744 65.95676102 376.84106445 65.94726562 C374.2614976 65.95137271 371.6819326 65.95683439 369.10237122 65.96354675 C363.55476493 65.97608442 358.00723658 65.97809585 352.45961952 65.97319031 C344.42357629 65.96636321 336.38764983 65.97893402 328.35162749 65.99669749 C315.2917965 66.02531953 302.23197815 66.04285188 289.17211914 66.05126953 C288.3913587 66.05177671 287.61059826 66.05228389 286.80617841 66.05280644 C281.2666191 66.05633232 275.7270596 66.05946146 270.1875 66.0625 C263.86824526 66.06596767 257.54899069 66.06961752 251.22973633 66.07373047 C250.45144965 66.07423308 249.67316297 66.0747357 248.87129185 66.07525355 C235.86447245 66.084017 222.85769634 66.10449325 209.85090607 66.13321257 C201.84205259 66.15033235 193.83332207 66.15700452 185.82445272 66.14990652 C179.67754058 66.14520888 173.53073956 66.15572773 167.38384819 66.17165565 C164.87252203 66.17564361 162.3611816 66.17455854 159.84986115 66.16788292 C138.13971626 65.70038704 138.13971626 65.70038704 117.875 72.5625 C112.82795295 78.83720715 112.72597539 84.3464128 112.77734375 92.14453125 C112.7787587 92.95871017 112.78017365 93.7728891 112.78163147 94.61174011 C112.78720683 97.19953156 112.79975476 99.78723492 112.8125 102.375 C112.81751819 104.13476437 112.82208054 105.89453011 112.82617188 107.65429688 C112.83631519 111.95709209 112.8558953 116.259698 112.875 120.5625 C117.825 116.6025 122.775 112.6425 127.875 108.5625 C131.40800465 110.32900232 133.1164909 111.55529356 135.81738281 114.26196289 C136.57786926 115.01937271 137.33835571 115.77678253 138.12188721 116.55714417 C139.33772491 117.78376015 139.33772491 117.78376015 140.578125 119.03515625 C141.41591492 119.87340439 142.25370483 120.71165253 143.11688232 121.57530212 C144.88433044 123.34576914 146.64934965 125.11866378 148.41210938 126.89379883 C151.12315816 129.62314573 153.8421655 132.34436432 156.5625 135.06445312 C158.2765153 136.78338202 159.990073 138.50276735 161.703125 140.22265625 C162.5217804 141.04242447 163.34043579 141.86219269 164.18389893 142.70680237 C164.93177673 143.46106003 165.67965454 144.21531769 166.45019531 144.99243164 C167.11319641 145.65924454 167.77619751 146.32605743 168.45928955 147.01307678 C169.875 148.5625 169.875 148.5625 169.875 149.5625 C150.735 149.5625 131.595 149.5625 111.875 149.5625 C111.215 151.2125 110.555 152.8625 109.875 154.5625 C105.77321532 158.06402351 102.24260381 159.11198871 97.0234375 159.6796875 C93.60790095 161.08316252 92.62914284 163.38047177 90.875 166.5625 C90.52906773 169.30859762 90.38476066 171.65186774 90.44140625 174.3828125 C90.4317912 175.90364679 90.4220205 177.42448011 90.41210938 178.9453125 C90.42064886 181.30806624 90.43733938 183.67054101 90.4597168 186.03320312 C90.53978382 198.53941024 89.46581164 208.68695534 80.8125 218.5 C72.71284887 225.85116852 63.97532457 228.42164412 53.13671875 227.98046875 C48.43615471 227.37812102 44.88605439 226.04516422 40.875 223.5625 C39.82892578 222.94375 39.82892578 222.94375 38.76171875 222.3125 C31.4500723 217.46560819 27.0671274 209.96832462 24.875 201.5625 C24.60233101 197.57410027 24.64240709 193.59762236 24.6796875 189.6015625 C24.6825174 188.45585785 24.68534729 187.3101532 24.68826294 186.12973022 C24.69942865 182.48221245 24.72452701 178.83494315 24.75 175.1875 C24.76003445 172.70963897 24.76915949 170.23177408 24.77734375 167.75390625 C24.7993562 161.69001986 24.83279806 155.62627769 24.875 149.5625 C24.30394531 149.58026489 23.73289062 149.59802979 23.14453125 149.61633301 C17.17472587 149.79399166 11.20567651 149.91424877 5.23388672 150.00195312 C3.00864133 150.04206512 0.78360523 150.09657093 -1.44091797 150.16601562 C-4.64863777 150.26361068 -7.85356116 150.30854888 -11.0625 150.34375 C-12.04927734 150.38504028 -13.03605469 150.42633057 -14.05273438 150.46887207 C-19.69919749 150.47250028 -22.6039819 149.71738456 -26.70141602 145.7019043 C-29.41515435 142.64235363 -31.50032408 139.68315126 -33.0625 135.875 C-33.44277344 134.98425781 -33.82304688 134.09351563 -34.21484375 133.17578125 C-35.67599635 128.98045468 -36.25367265 125.18356765 -36.1875 120.75 C-36.17847656 119.95980469 -36.16945313 119.16960937 -36.16015625 118.35546875 C-36.14855469 117.76378906 -36.13695313 117.17210937 -36.125 116.5625 C-37.115 116.2840625 -37.115 116.2840625 -38.125 116 C-45.39707179 112.5154656 -50.43603054 107.14822436 -53.125 99.5625 C-56.63718272 88.42040309 -55.5825773 78.32122051 -51.125 67.5625 C-48.04175793 62.17548718 -44.02789041 58.29803555 -39.125 54.5625 C-39.46273437 53.92183594 -39.80046875 53.28117187 -40.1484375 52.62109375 C-45.0513496 43.11284514 -48.00378922 34.40857996 -45.4375 23.69140625 C-42.67050287 15.37888569 -38.39732682 8.61272696 -31.125 3.5625 C-22.5739335 -0.71303325 -9.560353 0.42397597 0 0 Z " fill="#FE5022" transform="translate(64.125,180.4375)"/>
<path d="M0 0 C-0.67804688 0.47308594 -1.35609375 0.94617187 -2.0546875 1.43359375 C-25.59095248 18.15672939 -42.84427924 39.58191754 -48.296875 68.40234375 C-50.11727185 79.4157447 -50.60823131 89.57386949 -44.765625 99.5390625 C-40.12260554 106.01052768 -34.88432335 109.37167131 -27 111 C-21.15909717 111.44168345 -15.33413486 111.41674039 -9.47935486 111.39872742 C-7.68554449 111.40417025 -5.89173771 111.41092321 -4.09793669 111.41886932 C0.8186526 111.43687304 5.73509067 111.43634019 10.65170515 111.43273985 C15.95836978 111.43211558 21.26498386 111.44874003 26.57162476 111.46325684 C35.76155535 111.48604194 44.95144805 111.49792781 54.14140511 111.50238609 C67.42848908 111.50884779 80.71550454 111.53178558 94.00256091 111.55872939 C115.56053552 111.6019984 137.11850726 111.63196452 158.67651367 111.65356445 C179.61663226 111.67457379 200.55672725 111.70184851 221.49682617 111.73754883 C222.78783075 111.73974765 224.07883532 111.74194648 225.40896124 111.74421193 C231.88562857 111.75528158 238.36229567 111.76647439 244.83896267 111.77772844 C298.55928757 111.87091516 352.27962585 111.9425124 406 112 C405.85719575 113.45004222 405.70923754 114.89957753 405.55908203 116.34887695 C405.43631393 117.55976738 405.43631393 117.55976738 405.31106567 118.79512024 C404.42012428 125.11024532 399.63373471 129.91593209 394.8203125 133.75 C387.15248681 139.0154597 378.92534053 139.1813638 369.99940491 138.85108948 C369.11509794 138.82372127 368.23079098 138.79635306 367.31968683 138.76815552 C365.38856433 138.70815751 363.45751918 138.64562895 361.52655029 138.5808754 C356.14664638 138.4016564 350.7660952 138.2446267 345.38551331 138.08729553 C344.23816527 138.05349324 343.09081722 138.01969095 341.90870106 137.98486435 C325.82938852 137.52268172 309.74560961 137.26832028 293.66195011 137.00964451 C280.59655955 136.79349662 267.54076651 136.50240597 254.48168945 136.03735352 C193.21596387 130.09165738 193.21596387 130.09165738 138.37147808 150.40168285 C130.90706788 157.56925497 125.1869538 165.7955942 119.89596558 174.63839722 C114.15497282 183.89792649 104.17363098 188.09735387 94 191 C92.824375 191.35578125 91.64875 191.7115625 90.4375 192.078125 C77.59712595 195.21426713 60.94898281 194.88762481 49 189 C48.15050781 188.63777344 47.30101562 188.27554688 46.42578125 187.90234375 C37.00480346 183.64631244 30.18881335 177.87081899 24.19291687 169.55784607 C14.51631499 156.23590146 2.93160755 140.53312509 -14.27426624 137.61131477 C-31.92952277 135.27677203 -50.31827858 136.6029712 -67.98742676 138.28218079 C-78.91464164 139.27252617 -88.19292336 139.17824096 -97 132 C-102.62441063 126.65617221 -106.02717244 120.93700478 -106.43359375 113.1015625 C-106.45724359 111.2761944 -106.45754897 109.4504112 -106.4375 107.625 C-106.42992676 106.65691406 -106.42235352 105.68882812 -106.41455078 104.69140625 C-105.84246354 79.33583151 -94.27723033 58.93266395 -77 41 C-76.42894531 40.36578125 -75.85789062 39.7315625 -75.26953125 39.078125 C-62.96672451 25.79488893 -18.59944683 -6.19981561 0 0 Z " fill="#FFA733" transform="translate(106,45)"/>
<path d="M0 0 C7.04554308 8.88351084 4.85505354 24.04452621 3.69970703 34.79394531 C0.71695275 54.6967057 -7.89167657 73.72052569 -21 89 C-21.71542969 89.85980469 -22.43085938 90.71960938 -23.16796875 91.60546875 C-54.45363603 127.79068589 -105.76135722 140.21989161 -151.51147461 143.72083282 C-166.54898332 144.7421835 -181.69290861 144.43246674 -196.75579453 144.40297651 C-201.9684669 144.39523603 -207.18112562 144.4024645 -212.39379883 144.40713501 C-221.13788754 144.4125516 -229.88189957 144.40550993 -238.62597656 144.39111328 C-248.6513563 144.37479482 -258.67655282 144.38008626 -268.70192814 144.3965925 C-277.40014972 144.41032558 -286.09831703 144.41207002 -294.79654598 144.40427649 C-299.95192898 144.39966414 -305.10722667 144.39879272 -310.26260376 144.40888596 C-371.24815719 144.51185717 -433.91615492 138.05651047 -479.62109375 93.44140625 C-494.40426591 77.83837012 -502.43951983 58.70910738 -507 38 C-507.30744141 36.60974609 -507.30744141 36.60974609 -507.62109375 35.19140625 C-508.22157197 30.13377013 -508.18442727 25.08843591 -508.1875 20 C-508.19974609 18.93265625 -508.21199219 17.8653125 -508.22460938 16.765625 C-508.23450999 11.45889766 -508.17434322 6.95028338 -506 2 C-504 3 -504 3 -502.7734375 6.2890625 C-502.30501762 7.73363959 -501.83904401 9.1790113 -501.375 10.625 C-490.45876043 42.80417578 -466.89224487 64.36441523 -436.94921875 79.20703125 C-401.8898027 95.97754511 -362.95933804 100.1375213 -324.5378418 100.16113281 C-322.74679974 100.16577584 -320.95575864 100.17080242 -319.16471863 100.17617798 C-314.34582541 100.18916294 -309.52694603 100.19571962 -304.70803809 100.20018864 C-301.6811739 100.20314261 -298.6543133 100.20725152 -295.62745094 100.21169281 C-286.11004142 100.22533238 -276.59264033 100.23501574 -267.07522172 100.2388947 C-256.17640994 100.24336407 -245.27772427 100.26087483 -234.37895077 100.2898953 C-225.89589593 100.3116808 -217.41287611 100.32160791 -208.92979366 100.32293582 C-203.89051573 100.32397206 -198.85135687 100.32962216 -193.81210899 100.34775543 C-172.30715421 100.42076245 -151.32013131 100.10349953 -130 97 C-128.17916391 96.75266014 -126.3581402 96.50669665 -124.53691101 96.26226807 C-94.20054253 92.18044927 -61.53368165 80.97668244 -38 61 C-37.14535156 60.28328125 -36.29070312 59.5665625 -35.41015625 58.828125 C-21.07591521 46.37124989 -11.41353232 32.44496824 -4 15 C-3.67 14.22527344 -3.34 13.45054687 -3 12.65234375 C-1.30253849 8.41685085 -0.46894097 4.5018333 0 0 Z " fill="#FFA733" transform="translate(508,347)"/>
<path d="M0 0 C0.71286667 -0.03167267 1.42573334 -0.06334534 2.16020203 -0.09597778 C20.92725659 -0.8231251 34.99501259 0.48009153 49.37734985 13.78892517 C56.20422168 20.61405598 62.40711265 28.0345565 68.30429077 35.67127991 C72.60346997 41.2279891 76.49604842 45.2691739 82.66699219 48.75195312 C86.54690628 51.93344836 88.47660465 55.98795209 89.24163818 60.93182373 C89.40077834 63.54943147 89.42978059 66.13552675 89.40625 68.7578125 C89.4100769 69.70888885 89.41390381 70.65996521 89.41784668 71.63986206 C89.42055417 73.63833686 89.41327499 75.63684781 89.39648438 77.63525391 C89.37501038 80.68602576 89.39635023 83.73445566 89.421875 86.78515625 C89.41923245 88.73438017 89.41410897 90.68360263 89.40625 92.6328125 C89.41434692 93.53919464 89.42244385 94.44557678 89.43078613 95.37942505 C89.34904881 100.91974023 88.61943357 104.19713452 84.875 108.5625 C81.42581886 110.80847841 78.29827026 111.70920311 74.3125 112.4375 C69.89215729 113.30964182 67.76688596 115.03801399 64.875 118.5625 C64.545 118.8925 64.215 119.2225 63.875 119.5625 C63.74972442 121.3698028 63.69424991 123.18198503 63.66625977 124.9934082 C63.64696915 126.15584549 63.62767853 127.31828278 63.60780334 128.51594543 C63.55006718 133.88179063 63.50038529 139.24746762 63.4699707 144.61352539 C63.45227865 147.43528699 63.41767076 150.25602612 63.36743164 153.07739258 C63.2949661 157.15201382 63.27290356 161.22555391 63.25390625 165.30078125 C63.22607559 166.54813553 63.19824493 167.79548981 63.16957092 169.0806427 C63.19373666 179.50739008 66.06732369 188.08877559 73.5625 195.5625 C78.12469688 199.1856816 83.34173658 200.92489814 88.875 202.5625 C86.68365257 211.57832943 81.7051259 218.46381336 73.875 223.5625 C65.61223069 228.12126928 56.44922702 229.31169643 47.26171875 226.8671875 C44.98154693 225.9299148 42.97014345 224.85930059 40.875 223.5625 C39.82892578 222.94375 39.82892578 222.94375 38.76171875 222.3125 C31.4500723 217.46560819 27.0671274 209.96832462 24.875 201.5625 C24.60233101 197.57410027 24.64240709 193.59762236 24.6796875 189.6015625 C24.6825174 188.45585785 24.68534729 187.3101532 24.68826294 186.12973022 C24.69942865 182.48221245 24.72452701 178.83494315 24.75 175.1875 C24.76003445 172.70963897 24.76915949 170.23177408 24.77734375 167.75390625 C24.7993562 161.69001986 24.83279806 155.62627769 24.875 149.5625 C24.30394531 149.58026489 23.73289062 149.59802979 23.14453125 149.61633301 C17.17472587 149.79399166 11.20567651 149.91424877 5.23388672 150.00195312 C3.00864133 150.04206512 0.78360523 150.09657093 -1.44091797 150.16601562 C-4.64863777 150.26361068 -7.85356116 150.30854888 -11.0625 150.34375 C-12.04927734 150.38504028 -13.03605469 150.42633057 -14.05273438 150.46887207 C-19.69919749 150.47250028 -22.6039819 149.71738456 -26.70141602 145.7019043 C-29.41515435 142.64235363 -31.50032408 139.68315126 -33.0625 135.875 C-33.44277344 134.98425781 -33.82304688 134.09351563 -34.21484375 133.17578125 C-35.67599635 128.98045468 -36.25367265 125.18356765 -36.1875 120.75 C-36.17847656 119.95980469 -36.16945313 119.16960937 -36.16015625 118.35546875 C-36.14855469 117.76378906 -36.13695313 117.17210937 -36.125 116.5625 C-37.115 116.2840625 -37.115 116.2840625 -38.125 116 C-45.39707179 112.5154656 -50.43603054 107.14822436 -53.125 99.5625 C-56.63718272 88.42040309 -55.5825773 78.32122051 -51.125 67.5625 C-48.04175793 62.17548718 -44.02789041 58.29803555 -39.125 54.5625 C-39.46273437 53.92183594 -39.80046875 53.28117187 -40.1484375 52.62109375 C-45.0513496 43.11284514 -48.00378922 34.40857996 -45.4375 23.69140625 C-42.67050287 15.37888569 -38.39732682 8.61272696 -31.125 3.5625 C-22.57440978 -0.71279511 -9.5599765 0.42302864 0 0 Z " fill="#FE3501" transform="translate(64.125,180.4375)"/>
<path d="M0 0 C5.68173327 1.94603708 9.38960932 6.68511103 12.14453125 11.86328125 C17.38672147 24.06466892 18.02760824 35.29386339 13.5546875 47.875 C10.39712854 54.05040291 5.99326216 60.35654025 -0.8203125 62.6875 C-1.3565625 62.749375 -1.8928125 62.81125 -2.4453125 62.875 C-2.3525 64.545625 -2.3525 64.545625 -2.2578125 66.25 C-2.28723333 74.57609588 -5.28893477 82.37514916 -10.4453125 88.875 C-11.54046677 90.40031845 -11.54046677 90.40031845 -12.65774536 91.95645142 C-16.71677747 95.93767479 -21.07841175 95.58547053 -26.52064514 95.621521 C-27.88730738 95.60029036 -29.25396074 95.57848156 -30.62060547 95.55615234 C-32.06974721 95.55445864 -33.51889409 95.55541236 -34.96803284 95.55880737 C-38.89156001 95.56052575 -42.81398195 95.52530311 -46.73725271 95.48336363 C-50.84114541 95.44580235 -54.94506472 95.44232705 -59.04910278 95.43521118 C-66.81586842 95.41657806 -74.58212606 95.36736224 -82.34866822 95.30711424 C-91.1925817 95.24000101 -100.03651971 95.20704807 -108.88062453 95.17694163 C-127.06914164 95.11426149 -145.2571862 95.00875671 -163.4453125 94.875 C-160.30597712 91.16530164 -157.1803406 87.48314814 -153.73486328 84.05102539 C-153.07463165 83.39086929 -152.41440002 82.7307132 -151.73416138 82.05055237 C-151.04329437 81.36484665 -150.35242737 80.67914093 -149.640625 79.97265625 C-148.5546553 78.88880898 -148.5546553 78.88880898 -147.44674683 77.7830658 C-145.15695985 75.49883078 -142.86370257 73.21811688 -140.5703125 70.9375 C-139.00758089 69.37978961 -137.4450786 67.82184913 -135.8828125 66.26367188 C-132.0729594 62.46478398 -128.26025871 58.66877287 -124.4453125 54.875 C-127.78290834 51.42256508 -131.33698316 48.80795322 -135.3828125 46.25 C-135.99060547 45.85554688 -136.59839844 45.46109375 -137.22460938 45.0546875 C-144.3978785 40.47370009 -149.95515415 38.79315157 -158.4453125 39.875 C-165.69128709 42.23182219 -171.31064745 47.97792149 -176.9609375 52.88671875 C-180.52032134 55.96726625 -184.18085545 58.90569031 -187.8828125 61.8125 C-188.7329895 62.48466553 -188.7329895 62.48466553 -189.6003418 63.17041016 C-197.5274397 69.37585428 -202.82970899 72.44818145 -212.9765625 72.3359375 C-218.92049135 71.5460911 -222.8049825 68.49497733 -227.4453125 64.875 C-228.91871094 63.75158203 -228.91871094 63.75158203 -230.421875 62.60546875 C-232.00748968 61.38773241 -233.5929897 60.16976167 -235.16772461 58.93798828 C-239.85222713 55.28014092 -244.65570391 51.80668875 -249.5078125 48.375 C-250.59763428 47.60023315 -250.59763428 47.60023315 -251.70947266 46.80981445 C-252.39702637 46.32601318 -253.08458008 45.84221191 -253.79296875 45.34375 C-254.40148682 44.91513672 -255.01000488 44.48652344 -255.63696289 44.04492188 C-261.96625786 39.95014916 -268.03849697 39.99343241 -275.4453125 40.875 C-279.0317111 42.22510362 -281.54859367 44.39719128 -284.4453125 46.875 C-285.70562883 47.89397916 -286.96893016 48.90927185 -288.234375 49.921875 C-291.03838435 52.1738933 -293.82797292 54.44192795 -296.60546875 56.7265625 C-308.95364211 66.875 -308.95364211 66.875 -310.4453125 66.875 C-310.51997913 61.62804201 -310.57415671 56.38139957 -310.61010742 51.1340332 C-310.62510893 49.35240281 -310.64551683 47.57080881 -310.67163086 45.78930664 C-310.70839759 43.21491465 -310.72512535 40.6410147 -310.73828125 38.06640625 C-310.75376511 37.28165421 -310.76924896 36.49690216 -310.78520203 35.68836975 C-310.787282 28.71107121 -309.60596627 22.35975183 -304.9453125 17 C-300.69369814 13.91757959 -295.50607706 12.92695668 -290.4453125 11.875 C-289.6180173 11.70078427 -288.7907221 11.52656855 -287.93835735 11.34707355 C-283.20470058 10.70733537 -278.54674315 10.73536498 -273.77534485 10.74369812 C-272.6999217 10.74158241 -271.62449855 10.73946669 -270.51648682 10.73728687 C-266.91242955 10.73129481 -263.30840736 10.73228646 -259.7043457 10.7331543 C-257.12035564 10.73012227 -254.53636611 10.72660069 -251.95237732 10.72262573 C-246.38672709 10.71452333 -240.82108144 10.70957252 -235.25542641 10.70633507 C-226.45161139 10.70082816 -217.6478349 10.68391993 -208.84403992 10.66499329 C-205.82932383 10.65863692 -202.81460765 10.65232842 -199.79989147 10.64601612 C-199.04651342 10.64443236 -198.29313538 10.6428486 -197.51692769 10.64121684 C-188.94593958 10.62328943 -180.37494877 10.60705889 -171.80395508 10.59204102 C-170.62908926 10.58997721 -170.62908926 10.58997721 -169.43048879 10.58787171 C-156.74451189 10.5659525 -144.05854498 10.55518757 -131.37255249 10.54767027 C-118.33531171 10.539589 -105.29815618 10.51626644 -92.2609641 10.4797166 C-84.2269525 10.45773617 -76.19311642 10.44801324 -68.1590763 10.45421693 C-61.99586661 10.45777748 -55.83287436 10.44047446 -49.66971779 10.41553879 C-47.14746531 10.40862941 -44.62518352 10.40849767 -42.10293198 10.41573906 C-38.65168526 10.42464491 -35.20136971 10.408904 -31.75019836 10.38725281 C-30.75912199 10.39569534 -29.76804561 10.40413788 -28.74693662 10.41283625 C-20.20009316 10.31412846 -11.94046968 8.58040093 -5.5703125 2.5625 C-5.07789063 2.03011719 -4.58546875 1.49773437 -4.078125 0.94921875 C-2.4453125 -0.125 -2.4453125 -0.125 0 0 Z " fill="#6DC729" transform="translate(486.4453125,235.125)"/>
<path d="M0 0 C6.76640824 3.77126146 12.97624639 8.51578442 19.1875 13.125 C13.83113166 19.59789272 7.98548533 25.56263233 2.0859375 31.53515625 C1.55478962 32.07287596 1.02364174 32.61059566 0.47639847 33.16460991 C-2.33503384 36.0084446 -5.15040872 38.84831935 -7.96826172 41.68579102 C-10.27867521 44.01400568 -12.58026917 46.35043073 -14.87451172 48.69458008 C-17.66898864 51.54972688 -20.4783549 54.38942097 -23.29850388 57.21920586 C-24.36003626 58.28920902 -25.4164954 59.36427379 -26.46733475 60.44478035 C-37.54504511 71.81826923 -50.11078249 78.83740472 -66.25 79.5625 C-84.51332192 78.93182414 -96.8389272 67.71126403 -108.91796875 55.41015625 C-110.13447751 54.18616888 -111.351886 52.96307515 -112.57014465 51.74082947 C-115.74366217 48.55218311 -118.90497103 45.35170485 -122.0637207 42.1484375 C-125.30133961 38.86958804 -128.55059313 35.60231114 -131.79882812 32.33398438 C-138.14803008 25.94213716 -144.48436939 19.5377045 -150.8125 13.125 C-147.42310979 9.67898343 -144.06025169 6.68819494 -140.125 3.875 C-139.17238281 3.18921875 -138.21976563 2.5034375 -137.23828125 1.796875 C-133.3923302 -0.85379658 -130.99697193 -1.14447003 -126.3125 -1.3125 C-125.1471875 -1.37308594 -123.981875 -1.43367188 -122.78125 -1.49609375 C-114.17245216 -0.87865041 -106.19653498 6.87734638 -99.5625 11.875 C-97.91334552 13.10365033 -96.26360035 14.33150818 -94.61328125 15.55859375 C-93.80713379 16.15913574 -93.00098633 16.75967773 -92.17041016 17.37841797 C-88.72171086 19.93298359 -85.24230247 22.44299824 -81.75 24.9375 C-81.17282227 25.35161133 -80.59564453 25.76572266 -80.00097656 26.19238281 C-73.59680674 30.7578478 -68.62562823 30.73453483 -60.8125 30.125 C-53.86209172 28.50572925 -48.56921686 22.70616645 -43.328125 18.14453125 C-39.78197977 15.07007519 -36.13177742 12.14383406 -32.4375 9.25 C-31.8791748 8.81034912 -31.32084961 8.37069824 -30.74560547 7.91772461 C-21.22270182 0.47503944 -12.30277433 -5.7847482 0 0 Z " fill="#FED321" transform="translate(343.8125,275.875)"/>
<path d="M0 0 C0.99 0.33 1.98 0.66 3 1 C2.21625 1.5775 1.4325 2.155 0.625 2.75 C-5.00732342 7.57770579 -4.22213452 11.22134516 -5 19 C33.28 19 71.56 19 111 19 C111 19.33 111 19.66 111 20 C110.35322737 20.00238835 109.70645473 20.00477671 109.04008293 20.00723743 C93.24593717 20.06657452 77.45196467 20.14224265 61.65798759 20.23571491 C54.01988995 20.2805319 46.38183747 20.31997835 38.74365234 20.34643555 C32.08016742 20.36953058 25.41682713 20.40305497 18.75345719 20.44870156 C15.23071655 20.47248009 11.70811776 20.49130878 8.18529892 20.49761391 C4.23649313 20.50487807 0.28804018 20.53544497 -3.66064453 20.56762695 C-5.38048553 20.56547432 -5.38048553 20.56547432 -7.1350708 20.5632782 C-17.42118498 20.68092288 -27.94775711 21.78543109 -37 27 C-42.04704705 33.27470715 -42.14902461 38.7839128 -42.09765625 46.58203125 C-42.09553383 47.80329964 -42.09553383 47.80329964 -42.09336853 49.04924011 C-42.08779317 51.63703156 -42.07524524 54.22473492 -42.0625 56.8125 C-42.05748181 58.57226437 -42.05291946 60.33203011 -42.04882812 62.09179688 C-42.03868481 66.39459209 -42.0191047 70.697198 -42 75 C-37.05 71.04 -32.1 67.08 -27 63 C-23.46699535 64.76650232 -21.7585091 65.99279356 -19.05761719 68.69946289 C-18.29713074 69.45687271 -17.53664429 70.21428253 -16.75311279 70.99464417 C-15.53727509 72.22126015 -15.53727509 72.22126015 -14.296875 73.47265625 C-13.45908508 74.31090439 -12.62129517 75.14915253 -11.75811768 76.01280212 C-9.99066956 77.78326914 -8.22565035 79.55616378 -6.46289062 81.33129883 C-3.75184184 84.06064573 -1.0328345 86.78186432 1.6875 89.50195312 C3.4015153 91.22088202 5.115073 92.94026735 6.828125 94.66015625 C7.6467804 95.47992447 8.46543579 96.29969269 9.30889893 97.14430237 C10.05677673 97.89856003 10.80465454 98.65281769 11.57519531 99.42993164 C12.23819641 100.09674454 12.90119751 100.76355743 13.58428955 101.45057678 C15 103 15 103 15 104 C-4.14 104 -23.28 104 -43 104 C-43.66 105.65 -44.32 107.3 -45 109 C-49.10178468 112.50152351 -52.63239619 113.54948871 -57.8515625 114.1171875 C-61.27469029 115.52378183 -62.24269116 117.80628612 -64 121 C-64.40262944 123.87206602 -64.60458012 126.37528441 -64.609375 129.2421875 C-64.62591125 130.01055939 -64.64244751 130.77893127 -64.65948486 131.57058716 C-64.70775935 134.00547439 -64.72928871 136.43973811 -64.75 138.875 C-64.77817708 140.53388519 -64.80810694 142.19274159 -64.83984375 143.8515625 C-64.91351198 147.90099027 -64.96321134 151.95007609 -65 156 C-70.31240281 157.22615135 -72.68806746 156.27111711 -77.43359375 153.7109375 C-84.61541952 148.92305366 -89.4325834 142.19416596 -92 134 C-92.57467829 129.39833606 -92.58483238 124.84025758 -92.56640625 120.20703125 C-92.57260483 118.90223312 -92.57880341 117.597435 -92.58518982 116.25309753 C-92.5955348 113.50717335 -92.59111494 110.76176939 -92.57641602 108.01586914 C-92.55917049 104.50849725 -92.58282158 101.00275494 -92.61790562 97.49556446 C-92.64520454 94.12845797 -92.63514436 90.76174316 -92.62890625 87.39453125 C-92.64216446 86.14130569 -92.65542267 84.88808014 -92.66908264 83.59687805 C-92.56559032 73.92119814 -92.56559032 73.92119814 -89.5859375 70.24560547 C-85.73641858 66.90271697 -83.06026001 65.8882645 -78.0625 65.1875 C-73.33548688 64.31600053 -71.0098829 62.88371988 -68 59 C-66.85262752 56.70525505 -66.86182329 55.38129171 -66.83886719 52.82910156 C-66.82925964 51.96770569 -66.8196521 51.10630981 -66.80975342 50.21881104 C-66.80550354 49.28550964 -66.80125366 48.35220825 -66.796875 47.390625 C-66.78832489 45.95127594 -66.78832489 45.95127594 -66.77960205 44.48284912 C-66.77014398 42.44853826 -66.76361488 40.41421202 -66.75976562 38.37988281 C-66.75008243 35.27641783 -66.7190758 32.17362133 -66.6875 29.0703125 C-66.68096771 27.09375393 -66.67571813 25.11719063 -66.671875 23.140625 C-66.6595282 22.21542053 -66.6471814 21.29021606 -66.63446045 20.3369751 C-66.65257385 15.06184089 -67.2404673 11.64657948 -70 7 C-70 6.34 -70 5.68 -70 5 C-67.15651448 5.91353659 -64.38438491 6.82358213 -61.66796875 8.0703125 C-48.11724524 13.83203746 -29.63675792 12.97181832 -15.890625 8.21484375 C-10.31028542 5.86959292 -5.04063237 3.36042158 0 0 Z " fill="#FD5122" transform="translate(219,226)"/>
<path d="M0 0 C6.10007421 2.11407152 10.37297233 7.89047592 13.18359375 13.51171875 C14.30200709 16.43756795 14.57961789 17.71852567 14.18359375 20.88671875 C9.3733354 29.76719571 4.72454249 35.30374438 -4.44140625 39.88671875 C-6.76171875 40.125 -6.76171875 40.125 -9.56640625 40.19921875 C-10.47648437 40.23660156 -11.3865625 40.27398437 -12.32421875 40.3125 C-19.87290864 39.28141329 -25.72764055 34.40860608 -31.56640625 29.82421875 C-40.54716653 22.80211952 -46.74748588 19.78295586 -58.44140625 20.88671875 C-65.06898095 23.25370972 -69.43131948 27.52193441 -73.25390625 33.32421875 C-77.42515661 39.24139019 -81.59500952 42.60458651 -88.44140625 44.88671875 C-98.52626678 46.61810189 -105.36427851 42.240121 -113.44140625 36.88671875 C-114.26060547 36.34547363 -115.07980469 35.80422852 -115.92382812 35.24658203 C-120.45922823 32.23992168 -124.9811309 29.21310345 -129.50390625 26.1875 C-130.35597656 25.61854004 -131.20804688 25.04958008 -132.0859375 24.46337891 C-133.51881753 23.50426414 -134.94920349 22.54139098 -136.375 21.57177734 C-143.41153791 16.82048919 -148.88103666 14.43050325 -157.44140625 15.88671875 C-163.8233192 17.75727944 -168.38483462 21.73082678 -173.44140625 25.88671875 C-174.71296204 26.92128573 -175.98514812 27.95507831 -177.2578125 28.98828125 C-179.3560365 30.69265504 -181.45419122 32.39711209 -183.55175781 34.10229492 C-184.9048214 35.20217888 -186.25816396 36.30171975 -187.61181641 37.40087891 C-189.17435867 38.66984504 -190.73573719 39.94024394 -192.296875 41.2109375 C-193.06644531 41.82582031 -193.83601563 42.44070313 -194.62890625 43.07421875 C-195.26183594 43.58339844 -195.89476562 44.09257812 -196.546875 44.6171875 C-200.57401295 47.31578509 -204.31555976 48.23248602 -209.12890625 48.38671875 C-210.08152344 48.43828125 -211.03414063 48.48984375 -212.015625 48.54296875 C-220.81173682 46.85796671 -228.30233091 39.91805843 -235.25390625 34.57421875 C-241.07288954 30.15994855 -246.88829153 25.75406832 -252.87890625 21.57421875 C-253.84699219 20.89746094 -254.81507813 20.22070312 -255.8125 19.5234375 C-261.33946874 16.08242724 -266.01459915 14.96564656 -272.44140625 15.88671875 C-282.18429688 18.66301148 -289.9662743 26.85549054 -297.51220703 33.26171875 C-307.75180288 41.88671875 -307.75180288 41.88671875 -309.44140625 41.88671875 C-309.54993548 39.0106942 -309.62895775 36.13881043 -309.69140625 33.26171875 C-309.72492188 32.45347656 -309.7584375 31.64523437 -309.79296875 30.8125 C-309.88234332 25.3159641 -309.15576594 22.21148021 -305.44140625 17.88671875 C-302.54600094 15.2040371 -299.86670422 14.23042215 -296.06640625 13.26171875 C-294.69355469 12.90207031 -294.69355469 12.90207031 -293.29296875 12.53515625 C-286.69676048 11.03519656 -280.51105796 10.74364628 -273.7714386 10.75541687 C-272.69601545 10.75330116 -271.6205923 10.75118544 -270.51258057 10.74900562 C-266.9085233 10.74301356 -263.30450111 10.74400521 -259.70043945 10.74487305 C-257.11644939 10.74184102 -254.53245986 10.73831944 -251.94847107 10.73434448 C-246.38282084 10.72624208 -240.81717519 10.72129127 -235.25152016 10.71805382 C-226.44770514 10.71254691 -217.64392865 10.69563868 -208.84013367 10.67671204 C-205.82541758 10.67035567 -202.8107014 10.66404717 -199.79598522 10.65773487 C-199.04260717 10.65615111 -198.28922913 10.65456735 -197.51302144 10.65293559 C-188.94203333 10.63500818 -180.37104252 10.61877764 -171.80004883 10.60375977 C-170.62518301 10.60169596 -170.62518301 10.60169596 -169.42658254 10.59959046 C-156.74060564 10.57767125 -144.05463873 10.56690632 -131.36864624 10.55938902 C-118.33140546 10.55130775 -105.29424993 10.52798519 -92.25705785 10.49143535 C-84.22304625 10.46945492 -76.18921017 10.45973199 -68.15517005 10.46593568 C-61.99196036 10.46949623 -55.82896811 10.45219321 -49.66581154 10.42725754 C-47.14355906 10.42034816 -44.62127727 10.42021642 -42.09902573 10.42745781 C-38.64777901 10.43636366 -35.19746346 10.42062275 -31.74629211 10.39897156 C-30.75521574 10.40741409 -29.76413936 10.41585663 -28.74303037 10.424555 C-20.19618691 10.32584721 -11.93656343 8.59211968 -5.56640625 2.57421875 C-5.07398438 2.04183594 -4.5815625 1.50945312 -4.07421875 0.9609375 C-2.44140625 -0.11328125 -2.44140625 -0.11328125 0 0 Z " fill="#7ED53D" transform="translate(486.44140625,235.11328125)"/>
<path d="M0 0 C2.49051308 0.00274102 4.9810278 0.00423176 7.47154236 0.00457764 C13.48082976 0.0090622 19.48991435 0.0277953 25.49913532 0.05352187 C30.37605791 0.07396459 35.25295606 0.08728633 40.12991333 0.09594727 C40.82704766 0.09719542 41.52418198 0.09844357 42.24244159 0.09972954 C43.65857259 0.1022581 45.07470359 0.10478661 46.49083459 0.10731506 C105.57851121 0.21830862 164.6654833 0.73424599 223.75 1.328125 C223.13743286 2.77465773 222.51751637 4.21807963 221.89453125 5.66015625 C221.55010986 6.46428955 221.20568848 7.26842285 220.85083008 8.09692383 C219.32282186 11.19394469 217.35784476 13.08416556 214.75 15.328125 C214.25886719 15.82054687 213.76773437 16.31296875 213.26171875 16.8203125 C205.26941944 24.48834191 195.54972496 25.92854512 184.85766602 25.7980957 C183.71366081 25.80026344 182.56965561 25.80243118 181.39098358 25.80466461 C177.59500018 25.80692022 173.79978829 25.78054329 170.00390625 25.75390625 C167.28462297 25.74709731 164.56534484 25.74623313 161.84605408 25.74504089 C155.27825588 25.73848467 148.71072184 25.71036863 142.14302391 25.67474717 C136.83021971 25.64654071 131.51745363 25.62767972 126.20458984 25.61523438 C125.44906551 25.613464 124.69354117 25.61169362 123.91512215 25.6098696 C122.38302886 25.60631735 120.85093553 25.60278072 119.31884217 25.59925961 C61.12809298 25.46029496 2.9372112 24.961325 -55.25 24.328125 C-55.29067522 22.73068092 -55.31967366 21.13293671 -55.34375 19.53515625 C-55.36115234 18.64546143 -55.37855469 17.7557666 -55.39648438 16.83911133 C-55.1324233 12.31266437 -52.98383043 10.00448039 -49.8359375 6.9609375 C-37.24490622 -2.75542911 -14.84928977 -0.08173649 0 0 Z " fill="#FE3501" transform="translate(269.25,220.671875)"/>
<path d="M0 0 C54.45 0 108.9 0 165 0 C158.24198073 7.88435582 158.24198073 7.88435582 155.38818359 10.78881836 C154.74666351 11.44317368 154.10514343 12.09752899 153.44418335 12.77171326 C152.43153915 13.79543785 152.43153915 13.79543785 151.3984375 14.83984375 C150.68072174 15.56563126 149.96300598 16.29141876 149.22354126 17.03919983 C147.71056488 18.56593017 146.19608431 20.09117121 144.68017578 21.61499023 C143.14961138 23.15706386 141.6235196 24.70359028 140.10205078 26.25463867 C128.69261855 37.8852414 118.09088584 48.40909754 102 53 C100.824375 53.35578125 99.64875 53.7115625 98.4375 54.078125 C85.59712595 57.21426713 68.94898281 56.88762481 57 51 C55.72576172 50.45666016 55.72576172 50.45666016 54.42578125 49.90234375 C44.00879354 45.19635389 35.88226532 37.18814927 27.9296875 29.16015625 C27.12258331 28.35259384 26.31547913 27.54503143 25.48391724 26.71299744 C23.79939325 25.02547913 22.11727269 23.33555841 20.4375 21.64331055 C17.85218916 19.03952617 15.25874705 16.44404978 12.6640625 13.84960938 C11.02296108 12.20359986 9.38231882 10.55713241 7.7421875 8.91015625 C6.96422821 8.13108414 6.18626892 7.35201202 5.38473511 6.54933167 C4.6762442 5.83446091 3.9677533 5.11959015 3.23779297 4.38305664 C2.61065399 3.75210587 1.98351501 3.12115509 1.33737183 2.47108459 C0 1 0 1 0 0 Z " fill="#FED321" transform="translate(98,183)"/>
<path d="M0 0 C4.09500939 1.81169657 7.44901253 4.2938039 11 7 C12.84580404 8.33302423 14.70070017 9.6526685 16.55688477 10.97119141 C17.78630476 11.84804892 19.01099344 12.73158835 20.23022461 13.62255859 C25.83709022 17.70656189 28.67542108 19.2588068 35.6875 19.0625 C37.79108147 19.00868201 39.89583048 18.9794572 42 19 C43 20 43 20 43.25 22.9375 C43.10127764 31.00155707 39.98147672 38.72061991 35 45 C34.26989716 46.01687897 33.53979431 47.03375793 32.78756714 48.08145142 C28.72853503 52.06267479 24.36690075 51.71047053 18.92466736 51.746521 C17.55800512 51.72529036 16.19135176 51.70348156 14.82470703 51.68115234 C13.37556529 51.67945864 11.92641841 51.68041236 10.47727966 51.68380737 C6.55375249 51.68552575 2.63133055 51.65030311 -1.29194021 51.60836363 C-5.39583291 51.57080235 -9.49975222 51.56732705 -13.60379028 51.56021118 C-21.37055592 51.54157806 -29.13681356 51.49236224 -36.90335572 51.43211424 C-45.7472692 51.36500101 -54.59120721 51.33204807 -63.43531203 51.30194163 C-81.62382914 51.23926149 -99.8118737 51.13375671 -118 51 C-114.83286438 47.2558753 -111.67439178 43.54779632 -108.19775391 40.08422852 C-107.51750153 39.40405167 -106.83724915 38.72387482 -106.13638306 38.02308655 C-105.42364227 37.31550705 -104.71090149 36.60792755 -103.9765625 35.87890625 C-102.85729874 34.76176491 -102.85729874 34.76176491 -101.71542358 33.62205505 C-99.35430611 31.26649173 -96.98971838 28.91444784 -94.625 26.5625 C-93.01409144 24.95661237 -91.40341204 23.35049484 -89.79296875 21.74414062 C-85.86462487 17.82676487 -81.93343326 13.91226513 -78 10 C-76.1111587 11.08093486 -74.22495969 12.1664875 -72.33984375 13.25390625 C-70.76384399 14.15991577 -70.76384399 14.15991577 -69.15600586 15.08422852 C-66.16555225 16.8995058 -63.37327132 18.85827288 -60.5625 20.9375 C-54.49092031 24.83313784 -49.03382616 25.12978555 -42 24 C-34.99981871 22.03262879 -30.65389767 17.22419698 -26.87109375 11.203125 C-20.74263802 1.55134106 -11.18688968 -2.21294056 0 0 Z " fill="#884D00" transform="translate(441,279)"/>
<path d="M0 0 C1.9375 1.0625 1.9375 1.0625 4.1875 2.875 C9.74595468 7.29649804 15.83430158 10.18481526 22.98461914 10.18847656 C24.01321548 10.19228333 25.04181183 10.19609009 26.10157776 10.20001221 C27.21403366 10.20103943 28.32648956 10.20206665 29.47265625 10.203125 C31.83269188 10.22146132 34.19271818 10.24103238 36.55273438 10.26171875 C40.26993455 10.29061589 43.98653785 10.31249823 47.70385742 10.31298828 C51.29399449 10.31633975 54.88275905 10.35100172 58.47265625 10.390625 C60.12008568 10.38002045 60.12008568 10.38002045 61.80079651 10.36920166 C69.11116207 10.48341791 74.88747787 11.79564553 80.9375 16.0625 C84.98156958 20.44122683 88.07561184 24.3457246 88.03515625 30.4140625 C88.03032227 31.69023437 88.03032227 31.69023437 88.02539062 32.9921875 C88.01282227 34.32636719 88.01282227 34.32636719 88 35.6875 C87.99548828 36.5846875 87.99097656 37.481875 87.98632812 38.40625 C87.97452591 40.62506648 87.95806155 42.84375018 87.9375 45.0625 C87.10347656 44.629375 86.26945312 44.19625 85.41015625 43.75 C76.07739938 39.07002311 76.07739938 39.07002311 65.9375 39.0625 C57.80908872 42.566453 50.59739016 47.7434461 43.25 52.625 C41.28739121 53.92366806 39.32395491 55.22106927 37.35990906 56.51756287 C36.14569489 57.31963775 34.93242957 58.12315158 33.72029114 58.92835999 C24.25371936 65.19936945 17.28102743 66.40103381 6.015625 64.59375 C-2.49628596 62.37325149 -9.06220498 57.2057786 -14.0625 50.0625 C-19.4063036 38.92771258 -19.18729897 27.66753214 -15.328125 16.1171875 C-12.97998774 10.4497698 -6.95884313 0.21087403 0 0 Z " fill="#6DC729" transform="translate(27.0625,234.9375)"/>
<path d="M0 0 C3.22482282 1.67897885 5.44306534 4.07700568 7.73901367 6.81005859 C12.65301768 12.49292256 17.96141942 17.78694347 23.25390625 23.11328125 C23.79766592 23.66111645 24.34142559 24.20895164 24.90166283 24.77338791 C27.77615262 27.66858945 30.65380211 30.56060852 33.53393555 33.45019531 C36.48412044 36.41146195 39.42242699 39.38423243 42.35827351 42.35970497 C44.64143759 44.66916156 46.93358466 46.96954704 49.22813988 49.26768112 C50.31462886 50.35899698 51.39777968 51.45364814 52.4772892 52.55186844 C58.08505792 58.25081431 63.49946231 63.34288802 70.60539246 67.18417358 C72.8217778 68.41797755 74.7706265 69.82450051 76.765625 71.38671875 C67.44221031 78.31951429 56.23496902 80.41207518 44.765625 79.38671875 C28.9319856 76.19305637 18.59118474 66.80386416 7.66015625 55.671875 C6.44364749 54.44788763 5.226239 53.2247939 4.00798035 52.00254822 C0.83446283 48.81390186 -2.32684603 45.6134236 -5.4855957 42.41015625 C-8.72321461 39.13130679 -11.97246813 35.86402989 -15.22070312 32.59570312 C-21.56990508 26.20385591 -27.90624439 19.79942325 -34.234375 13.38671875 C-30.84498479 9.94070218 -27.48212669 6.94991369 -23.546875 4.13671875 C-22.59425781 3.4509375 -21.64164063 2.76515625 -20.66015625 2.05859375 C-14.82388733 -1.9638267 -6.76574275 -1.85703079 0 0 Z " fill="#EDBF00" transform="translate(227.234375,275.61328125)"/>
<path d="M0 0 C0.33 0 0.66 0 1 0 C1.13873528 10.06601496 0.96684342 20.12507875 0.6875 30.1875 C0.65378296 31.96024292 0.65378296 31.96024292 0.61938477 33.76879883 C0.58385498 34.8905249 0.5483252 36.01225098 0.51171875 37.16796875 C0.48553467 38.17110107 0.45935059 39.1742334 0.43237305 40.20776367 C-0.06744969 43.4355856 -1.10435213 45.36063016 -3 48 C-4.98046875 49.29296875 -4.98046875 49.29296875 -7.1875 50.1875 C-7.97898437 50.51234375 -8.77046875 50.8371875 -9.5859375 51.171875 C-11.82672415 51.94055909 -13.99389962 52.46856959 -16.3125 52.9375 C-20.61056223 54.17592471 -21.75326033 55.19782518 -24 59 C-24.69163095 60.99150473 -25.36170702 62.99076469 -26 65 C-32.54649397 65.20365433 -39.09216531 65.34327236 -45.64111328 65.43945312 C-47.86635867 65.47956512 -50.09139477 65.53407093 -52.31591797 65.60351562 C-55.52363777 65.70111068 -58.72856116 65.74604888 -61.9375 65.78125 C-62.92427734 65.82254028 -63.91105469 65.86383057 -64.92773438 65.90637207 C-70.57419749 65.91000028 -73.4789819 65.15488456 -77.57641602 61.1394043 C-80.29015435 58.07985363 -82.37532408 55.12065126 -83.9375 51.3125 C-84.31777344 50.42175781 -84.69804688 49.53101563 -85.08984375 48.61328125 C-86.94477614 43.28731657 -87.09457707 38.58004738 -87 33 C-85.989375 33.165 -84.97875 33.33 -83.9375 33.5 C-82.2926744 33.67633455 -80.64661689 33.84126139 -79 34 C-77.90816406 34.13792969 -76.81632812 34.27585937 -75.69140625 34.41796875 C-64.68335885 35.22173094 -58.69689646 31.69717934 -49.99951172 25.43310547 C-46.74398377 23.09977835 -43.39883677 20.90288151 -40.0625 18.6875 C-39.44157471 18.26944092 -38.82064941 17.85138184 -38.1809082 17.4206543 C-22.0147139 6.56847891 -22.0147139 6.56847891 -13 8 C-8.79464616 9.7274687 -4.99365737 11.79660283 -1 14 C-0.67 9.38 -0.34 4.76 0 0 Z " fill="#A96100" transform="translate(115,265)"/>
<path d="M0 0 C13.95342492 -2.58707098 31.90966483 -5.84695281 44.79095459 1.61724854 C56.07022834 9.77995083 65.06999005 20.74001172 74.00862122 31.30805969 C81.87665791 40.49075834 90.68766496 46.59010668 102 51 C102 51.66 102 52.32 102 53 C88.19534876 57.16807103 70.10396847 57.45672114 57 51 C55.72576172 50.45666016 55.72576172 50.45666016 54.42578125 49.90234375 C44.00879354 45.19635389 35.88226532 37.18814927 27.9296875 29.16015625 C27.12258331 28.35259384 26.31547913 27.54503143 25.48391724 26.71299744 C23.79939325 25.02547913 22.11727269 23.33555841 20.4375 21.64331055 C17.85218916 19.03952617 15.25874705 16.44404978 12.6640625 13.84960938 C11.02296108 12.20359986 9.38231882 10.55713241 7.7421875 8.91015625 C6.96422821 8.13108414 6.18626892 7.35201202 5.38473511 6.54933167 C4.6762442 5.83446091 3.9677533 5.11959015 3.23779297 4.38305664 C2.61065399 3.75210587 1.98351501 3.12115509 1.33737183 2.47108459 C0 1 0 1 0 0 Z " fill="#EEBE00" transform="translate(98,183)"/>
<path d="M0 0 C14.04361659 -2.6037932 31.93013061 -5.84673905 44.88378906 1.67437744 C58.27629872 11.30673126 70.18639408 24.77805653 80 38 C80 38.33 80 38.66 80 39 C73.20478548 39.05100661 66.40962094 39.08586157 59.61425781 39.10986328 C57.30597081 39.11987684 54.99769636 39.13349163 52.68945312 39.15087891 C49.35804128 39.17533227 46.0267982 39.18652989 42.6953125 39.1953125 C41.67511017 39.20563507 40.65490784 39.21595764 39.60379028 39.22659302 C27.48581731 39.22846044 18.80390094 37.32049768 9.80078125 28.95703125 C3.16091657 22.02260696 -0.25382203 15.36680854 -0.09375 5.67578125 C-0.08021484 4.60884033 -0.06667969 3.54189941 -0.05273438 2.44262695 C-0.03533203 1.63656006 -0.01792969 0.83049316 0 0 Z " fill="#FE5022" transform="translate(56,183)"/>
<path d="M0 0 C4.09495648 1.81167316 7.44855176 4.2945899 11 7 C12.82960291 8.31666339 14.66856575 9.61955915 16.50805664 10.92236328 C17.72388507 11.78697358 18.93555785 12.65746725 20.14233398 13.53466797 C23.34264076 15.86073785 26.57250627 18.0230935 30 20 C25.6407326 25.60477237 19.92908571 27.88373497 13 29 C6.13636207 29.48261872 -0.75783073 29.17344354 -7.62804985 28.96624565 C-12.3330591 28.83574431 -17.03798367 28.78341539 -21.74436283 28.72629642 C-30.47610031 28.62021114 -39.20425318 28.48689535 -47.93237305 28.20825195 C-77.97923221 25.63203207 -77.97923221 25.63203207 -104.72264576 36.18120289 C-109.26640634 40.52460428 -112.93945329 45.51532755 -116 51 C-116.66 50.67 -117.32 50.34 -118 50 C-104.8 36.8 -91.6 23.6 -78 10 C-66 17 -66 17 -60.5625 20.9375 C-54.49092031 24.83313784 -49.03382616 25.12978555 -42 24 C-34.99981871 22.03262879 -30.65389767 17.22419698 -26.87109375 11.203125 C-20.74263802 1.55134106 -11.18688968 -2.21294056 0 0 Z " fill="#A86100" transform="translate(441,279)"/>
<path d="M0 0 C1.9296875 0.76171875 1.9296875 0.76171875 4.1796875 2.57421875 C9.75934321 7.01258125 15.85292677 9.8684537 23.02441406 9.91943359 C24.06269348 9.92969574 25.1009729 9.93995789 26.17071533 9.95053101 C27.2925824 9.95783234 28.41444946 9.96513367 29.5703125 9.97265625 C31.94401726 10.00072895 34.31771509 10.02939344 36.69140625 10.05859375 C40.43505632 10.09982446 44.17857741 10.13671093 47.92236328 10.16308594 C51.53445234 10.19074286 55.14595163 10.23662036 58.7578125 10.28515625 C60.42846771 10.29003555 60.42846771 10.29003555 62.13287354 10.29501343 C68.16542797 10.39011215 72.5864187 10.89387876 77.9296875 13.76171875 C74.84862297 14.78874026 72.56455474 14.72980464 69.35546875 14.50390625 C62.86604742 15.1936032 57.43545539 18.4484866 52.1796875 22.13671875 C51.23802734 22.7706958 51.23802734 22.7706958 50.27734375 23.41748047 C46.47678508 25.97660907 42.74686262 28.61702703 39.0390625 31.30859375 C23.17024993 42.57352921 23.17024993 42.57352921 12.1953125 41.45703125 C1.93767899 39.27298966 -7.04316407 34.58828782 -13.1328125 25.76171875 C-15.25271569 21.89993707 -15.92535564 19.19239686 -15.0703125 14.76171875 C-12.55802873 9.71945906 -6.54886323 -0.75373709 0 0 Z " fill="#7ED43D" transform="translate(27.0703125,235.23828125)"/>
<path d="M0 0 C7.26 0.66 14.52 1.32 22 2 C22 2.33 22 2.66 22 3 C20.35 3.33 18.7 3.66 17 4 C25.8193621 8.73234064 33.0593756 9.31811793 42.93359375 9.4140625 C44.78320457 9.44311172 44.78320457 9.44311172 46.67018127 9.4727478 C50.59255139 9.53232952 54.51495119 9.57884388 58.4375 9.625 C61.10354703 9.66213969 63.76953905 9.70225221 66.43554688 9.7421875 C72.95692367 9.83801359 79.47837377 9.9231235 86 10 C84.23535156 14.83837891 84.23535156 14.83837891 82.1171875 16.29296875 C81.37726563 16.58816406 80.63734375 16.88335937 79.875 17.1875 C78.67423828 17.67476563 78.67423828 17.67476563 77.44921875 18.171875 C75.19679503 18.93346005 73.01451805 19.46598415 70.6875 19.9375 C66.38943777 21.17592471 65.24673967 22.19782518 63 26 C62.30836905 27.99150473 61.63829298 29.99076469 61 32 C54.45350603 32.20365433 47.90783469 32.34327236 41.35888672 32.43945312 C39.13364133 32.47956512 36.90860523 32.53407093 34.68408203 32.60351562 C31.47636223 32.70111068 28.27143884 32.74604888 25.0625 32.78125 C24.07572266 32.82254028 23.08894531 32.86383057 22.07226562 32.90637207 C16.42580251 32.91000028 13.5210181 32.15488456 9.42358398 28.1394043 C6.70984565 25.07985363 4.62467592 22.12065126 3.0625 18.3125 C2.68222656 17.42175781 2.30195313 16.53101563 1.91015625 15.61328125 C-0.02997312 10.0426952 0 6.1830372 0 0 Z " fill="#884D00" transform="translate(28,298)"/>
<path d="M0 0 C3.26479753 1.43129628 5.43119142 3.18289987 7.94238281 5.69946289 C8.70286926 6.45687271 9.46335571 7.21428253 10.24688721 7.99464417 C11.05744568 8.81238815 11.86800415 9.63013214 12.703125 10.47265625 C13.54091492 11.31090439 14.37870483 12.14915253 15.24188232 13.01280212 C17.00933044 14.78326914 18.77434965 16.55616378 20.53710938 18.33129883 C23.24815816 21.06064573 25.9671655 23.78186432 28.6875 26.50195312 C30.4015153 28.22088202 32.115073 29.94026735 33.828125 31.66015625 C35.05610809 32.88980858 35.05610809 32.88980858 36.30889893 34.14430237 C37.05677673 34.89856003 37.80465454 35.65281769 38.57519531 36.42993164 C39.56969696 37.43015099 39.56969696 37.43015099 40.58428955 38.45057678 C42 40 42 40 42 41 C22.86 41 3.72 41 -16 41 C-16 13 -16 13 -9.6875 5.875 C-6.13671875 3.6171875 -6.13671875 3.6171875 -3 2 C-2.01 1.34 -1.02 0.68 0 0 Z " fill="#884D00" transform="translate(192,289)"/>
<path d="M0 0 C4.08636333 1.36212111 5.0457901 3.00742218 7.0859375 6.6796875 C9.92726501 12.82582147 12.0880277 19.24421882 11.1875 26.0625 C9.87454869 29.36171099 8.41450409 32.29079932 5.32421875 34.234375 C1.62484511 35.6681359 -1.92090242 35.75047886 -5.8125 35.0625 C-9.05329649 32.5801878 -11.54449154 29.98179889 -12.8125 26.0625 C-13.784609 18.28562801 -10.88417871 9.90667287 -6.6875 3.375 C-4.36107321 0.5057403 -3.6828286 0.08184064 0 0 Z " fill="#FFF3C8" transform="translate(256.8125,55.9375)"/>
<path d="M0 0 C2.32421875 0.34375 2.32421875 0.34375 4.01171875 1.46875 C7.51467302 6.47297038 7.68888648 11.96468921 7.69921875 17.84375 C7.72371094 18.57722656 7.74820313 19.31070313 7.7734375 20.06640625 C7.80144725 25.28555631 6.73551891 28.19249871 3.32421875 32.34375 C0.58403799 34.5070506 -1.16230276 35.26727448 -4.61328125 35.78125 C-9.52565303 35.0794826 -12.50963943 32.82086298 -15.55078125 28.96875 C-17.27893396 24.93639367 -17.36159212 22.25540639 -15.8671875 18.08984375 C-12.98960944 11.72730957 -7.52291536 0.96644752 0 0 Z " fill="#FFF3C9" transform="translate(196.67578125,108.65625)"/>
<path d="M0 0 C8.18686545 3.20822119 14.93693712 6.87387423 19 15 C19.59968751 20.27725011 18.27164725 22.88707202 15 27 C10.72955569 29.84696287 7.00832711 29.60389796 2 29 C-4.61802031 25.8413994 -7.68891498 17.158523 -10.375 10.6875 C-11.26189315 6.87385947 -11.84661711 3.64032064 -10 0.0625 C-6.5791059 -1.75484999 -3.55660494 -1.01536249 0 0 Z " fill="#FFF3C9" transform="translate(378,60)"/>
<path d="M0 0 C7.76926783 1.08877283 12.39281673 6.89685329 17 12.875 C19.75074719 17.00112078 20.86756904 20.06661852 20.4296875 25.0234375 C19.8095997 27.87584137 18.88827026 29.77453862 17 32 C12.77916016 34.53250391 8.80702374 34.80811318 4 34 C0.51068787 32.28116337 -1.57174099 29.98455421 -3.13671875 26.38671875 C-4.21169676 22.16949734 -4.36788881 18.27177232 -4.375 13.9375 C-4.41173828 12.75317383 -4.41173828 12.75317383 -4.44921875 11.54492188 C-4.47004737 7.40349864 -4.32543573 5.49192312 -1.9765625 1.94140625 C-1.32429688 1.30074219 -0.67203125 0.66007812 0 0 Z " fill="#FFF3C9" transform="translate(312,109)"/>
<path d="M0 0 C2.24917109 2.26531347 2.95320827 3.66557678 3.3984375 6.84765625 C3.26394875 25.29502916 3.26394875 25.29502916 -2.5625 31.1875 C-7.17336278 33.61868219 -10.9037643 34.28642843 -16 33 C-18.87148664 31.11594157 -20.4928725 29.07267079 -22 26 C-23.02547278 20.70172396 -22.31616246 17.99442222 -19.5 13.4375 C-15.18886931 7.51865548 -7.96907042 -1.19536056 0 0 Z " fill="#FFF4CA" transform="translate(139,57)"/>
<path d="M0 0 C3.24276727 1.423555 5.40093304 3.15471065 7.890625 5.66015625 C8.59960938 6.37107422 9.30859375 7.08199219 10.0390625 7.81445312 C10.76867187 8.55630859 11.49828125 9.29816406 12.25 10.0625 C12.99507812 10.80822266 13.74015625 11.55394531 14.5078125 12.32226562 C20 17.85971841 20 17.85971841 20 19 C8.45 19 -3.1 19 -15 19 C-15 25.6 -15 32.2 -15 39 C-15.33 39 -15.66 39 -16 39 C-18.06685792 16.83692358 -18.06685792 16.83692358 -14.77246094 10.72119141 C-11.46464435 6.85172866 -7.44671806 4.39225679 -3 2 C-2.01 1.34 -1.02 0.68 0 0 Z " fill="#A96000" transform="translate(192,289)"/>
</svg>
