<?xml version="1.0" encoding="UTF-8"?>
<svg version="1.1" xmlns="http://www.w3.org/2000/svg" width="512" height="512">
<path d="M0 0 C3.41792814 2.84827345 5.2188576 4.96907279 6.625 9.1875 C6.69240865 10.74868428 6.71014456 12.3125252 6.6875 13.875 C6.67847656 14.68324219 6.66945313 15.49148437 6.66015625 16.32421875 C6.64275391 17.24654297 6.64275391 17.24654297 6.625 18.1875 C7.49511719 18.13529297 7.49511719 18.13529297 8.3828125 18.08203125 C15.29279648 17.84257636 19.20577895 18.98332082 24.4375 23.75 C27.52509723 27.78994053 28.01664818 32.21126434 27.625 37.1875 C26.05644591 42.54443327 23.3575884 46.15378949 18.625 49.1875 C13.32029743 50.95573419 8.35816533 51.03773205 3.3125 48.5625 C2.425625 48.10875 1.53875 47.655 0.625 47.1875 C-5.68246589 49.15951349 -11.02355601 56.01955212 -15.69458008 60.53222656 C-17.01723225 61.79670991 -18.35485538 63.04572671 -19.70727539 64.27832031 C-27.94440405 71.35587344 -27.94440405 71.35587344 -31.89990234 80.98632812 C-31.59862328 84.65175458 -31.59862328 84.65175458 -30.8984375 88.14916992 C-29.91602188 93.85167102 -32.41463119 96.81389159 -35.64453125 101.43359375 C-36.4847077 102.50331312 -37.33256531 103.56703844 -38.1875 104.625 C-39.07718727 105.75231672 -39.96651078 106.8799206 -40.85546875 108.0078125 C-41.28520996 108.54825195 -41.71495117 109.08869141 -42.15771484 109.64550781 C-44.6293046 112.77638645 -46.99192527 115.98916286 -49.375 119.1875 C-48.06382197 121.99733253 -46.60059449 124.3262989 -44.65234375 126.734375 C-37.19172399 136.11614093 -30.80853091 145.50396849 -25.375 156.1875 C-25.02598633 156.86248535 -24.67697266 157.5374707 -24.31738281 158.23291016 C-18.20468469 170.16253069 -13.94298176 182.48753253 -10.515625 195.43359375 C-10.28359375 196.30113281 -10.0515625 197.16867187 -9.8125 198.0625 C-9.64621094 198.76117188 -9.47992188 199.45984375 -9.30859375 200.1796875 C-6.62164294 205.9583181 -1.36979027 208.44847572 4.0625 211.0625 C10.96749046 214.57204406 15.41598318 217.86987621 19 224.875 C20.59839751 233.3465068 20.42430948 240.44289032 16.12890625 248.0546875 C13.56163056 251.69555121 10.63603397 254.18198302 6.625 256.1875 C7.84082764 256.20208252 9.05665527 256.21666504 10.30932617 256.23168945 C14.82899078 256.28975098 19.34816127 256.3669836 23.86743164 256.44995117 C25.82177702 256.48316354 27.77621747 256.51120695 29.73071289 256.53393555 C32.54354282 256.56754933 35.35550447 256.61986854 38.16796875 256.67578125 C39.47449654 256.68536613 39.47449654 256.68536613 40.80741882 256.69514465 C45.53667494 256.80923936 48.79761211 257.09478099 52.625 260.1875 C55.06167013 265.06084026 54.11502772 271.85225442 53.625 277.1875 C51.72910816 282.48183697 48.28210374 286.08276418 43.625 289.1875 C42.82884277 289.72673096 42.82884277 289.72673096 42.01660156 290.27685547 C38.38385404 291.66008824 34.75351422 291.43160894 30.921875 291.3828125 C30.08408508 291.3799826 29.24629517 291.37715271 28.38311768 291.37423706 C25.71359837 291.36306349 23.0444175 291.33796421 20.375 291.3125 C18.56250485 291.30246654 16.75000444 291.29334133 14.9375 291.28515625 C10.49987007 291.2631334 6.06249237 291.22862304 1.625 291.1875 C1.66197998 292.5168457 1.66197998 292.5168457 1.69970703 293.87304688 C1.71888184 295.03900391 1.73805664 296.20496094 1.7578125 297.40625 C1.79479248 299.1377832 1.79479248 299.1377832 1.83251953 300.90429688 C1.43209137 307.23954141 -1.90159682 310.64712395 -6.125 315.0625 C-14.2282219 320.36076047 -24.04285729 319.47235892 -33.36743164 319.44146729 C-34.88671296 319.44377417 -36.40599315 319.44695223 -37.92527103 319.45092177 C-42.08337112 319.45924706 -46.24137903 319.45515482 -50.39947939 319.44894934 C-54.89033911 319.44441657 -59.3811832 319.4514127 -63.87203979 319.45690918 C-72.66301892 319.465796 -81.45396387 319.46388433 -90.24494433 319.4580839 C-97.39044141 319.45356462 -104.53592891 319.45295566 -111.681427 319.45513153 C-112.69894202 319.455438 -113.71645704 319.45574446 -114.76480585 319.45606022 C-116.83195647 319.45669968 -118.89910708 319.4573481 -120.96625769 319.4580054 C-140.34369405 319.46370661 -159.72111147 319.45715407 -179.09854472 319.44640467 C-195.72032835 319.43746935 -212.34208405 319.43902145 -228.96386719 319.44824219 C-248.27261916 319.4589485 -267.58135454 319.46315731 -286.89010906 319.45701766 C-288.94959704 319.45638057 -291.00908502 319.45575183 -293.068573 319.45513153 C-294.08184428 319.45482298 -295.09511556 319.45451443 -296.13909203 319.45419653 C-303.27487115 319.45247067 -310.41063974 319.45538234 -317.54641724 319.46009064 C-326.24415475 319.46570347 -334.94185616 319.46417453 -343.63958955 319.45352915 C-348.07612103 319.44827788 -352.51259236 319.44620644 -356.94912338 319.45282745 C-361.012806 319.45880025 -365.07637288 319.45548985 -369.14004505 319.44487235 C-370.60762381 319.44264397 -372.07521241 319.44376196 -373.54278481 319.44862393 C-394.03969527 319.51130342 -394.03969527 319.51130342 -401.7109375 312.0234375 C-406.02209747 307.2669934 -406.49997658 303.76326858 -406.4375 297.4765625 C-406.42847656 296.3004541 -406.41945313 295.1243457 -406.41015625 293.91259766 C-406.39855469 293.01331543 -406.38695312 292.1140332 -406.375 291.1875 C-407.48423828 291.21368408 -408.59347656 291.23986816 -409.73632812 291.2668457 C-413.88097692 291.35785419 -418.02553875 291.41493163 -422.17089844 291.4621582 C-423.95946136 291.48718775 -425.74792317 291.52122244 -427.53613281 291.56469727 C-430.11809323 291.62586411 -432.69869322 291.65382445 -435.28125 291.67578125 C-436.07116333 291.70158768 -436.86107666 291.7273941 -437.67492676 291.75398254 C-443.72369656 291.75698754 -447.66182246 289.94965717 -452.375 286.1875 C-457.45566037 280.70573487 -458.72085651 276.53681651 -458.6875 269.125 C-458.70361328 268.40505859 -458.71972656 267.68511719 -458.73632812 266.94335938 C-458.74117892 261.71905005 -458.74117892 261.71905005 -457.04296875 259.25390625 C-454.19539639 257.4333272 -451.65380773 257.05485538 -448.36254883 256.98217773 C-447.56194534 256.96223251 -446.76134186 256.94228729 -445.93647766 256.92173767 C-445.07701035 256.90502518 -444.21754303 256.88831268 -443.33203125 256.87109375 C-442.4484343 256.85031265 -441.56483734 256.82953156 -440.65446472 256.80812073 C-437.83222215 256.74274246 -435.00988665 256.68379472 -432.1875 256.625 C-430.27407894 256.58180363 -428.36066727 256.53818898 -426.44726562 256.49414062 C-421.75660563 256.38707305 -417.06585217 256.28577248 -412.375 256.1875 C-413.1803418 255.73004395 -413.98568359 255.27258789 -414.81542969 254.80126953 C-415.88180664 254.18880371 -416.94818359 253.57633789 -418.046875 252.9453125 C-419.0997168 252.34348145 -420.15255859 251.74165039 -421.23730469 251.12158203 C-432.72960548 244.0377035 -441.61618904 233.02526937 -444.9140625 219.76953125 C-447.23264712 206.78152756 -446.90396537 193.91923465 -440.375 182.1875 C-439.88 181.29160156 -439.385 180.39570313 -438.875 179.47265625 C-433.54765685 170.48276468 -426.78882471 163.79835292 -417.375 159.1875 C-416.715 159.1875 -416.055 159.1875 -415.375 159.1875 C-415.69726562 158.04667969 -416.01953125 156.90585937 -416.3515625 155.73046875 C-419.8581205 141.61424544 -417.58527429 126.87608328 -410.1875 114.4375 C-401.67472609 101.99436027 -390.41761726 93.54653324 -375.5234375 90.62890625 C-363.79888643 88.98514165 -352.24479309 89.94568115 -341.75 95.625 C-338.97051409 96.96682078 -337.85002712 97.29884578 -334.80859375 96.5859375 C-332.20190607 95.54592204 -332.20190607 95.54592204 -329.83203125 94.30078125 C-319.11629581 89.44547982 -305.16883382 91.76238243 -294.375 95.1875 C-293.39402344 95.62964844 -292.41304687 96.07179688 -291.40234375 96.52734375 C-288.31166013 97.53565797 -288.31166013 97.53565797 -285.5078125 95.73046875 C-284.51523437 94.95316406 -283.52265625 94.17585938 -282.5 93.375 C-281.35313023 92.52041419 -280.20189498 91.67166279 -279.046875 90.828125 C-278.44681641 90.38791016 -277.84675781 89.94769531 -277.22851562 89.49414062 C-263.02380139 79.48049065 -246.40064237 72.73393503 -229.8125 67.875 C-229.03559814 67.64466064 -228.25869629 67.41432129 -227.45825195 67.17700195 C-213.26299558 63.24149747 -199.09372451 61.68259228 -184.39819336 61.79638672 C-181.94132839 61.81247493 -179.4861129 61.79641727 -177.02929688 61.77734375 C-162.04967989 61.7565659 -147.26024313 63.57512884 -132.875 67.875 C-132.01970703 68.12121094 -131.16441406 68.36742187 -130.28320312 68.62109375 C-123.10415224 70.77322656 -116.26037228 73.58910839 -109.50195312 76.82299805 C-105.27311239 78.83830501 -105.27311239 78.83830501 -100.71875 78.6875 C-97.80604564 76.82336921 -95.08989295 74.83226543 -92.375 72.6875 C-91.81611084 72.25115234 -91.25722168 71.81480469 -90.68139648 71.36523438 C-88.31142597 69.51401562 -85.95312038 67.64859519 -83.60205078 65.7734375 C-82.44232318 64.84901227 -81.28008564 63.92772621 -80.11523438 63.00976562 C-78.52058753 61.75298342 -76.93389069 60.48613327 -75.34765625 59.21875 C-71.31735942 56.4648021 -68.20898876 54.86193729 -63.28466797 55.73608398 C-62.19814941 55.98688721 -61.11163086 56.23769043 -59.9921875 56.49609375 C-55.06961049 56.93577144 -52.26268793 56.47911459 -48.43066406 53.46533203 C-44.17844322 49.6548589 -40.34296962 45.46564111 -36.5 41.25 C-35.12206237 39.79673425 -33.74057732 38.34682337 -32.35546875 36.90039062 C-28.98640108 33.36688068 -25.66891348 29.79111123 -22.375 26.1875 C-22.8390625 25.0428125 -22.8390625 25.0428125 -23.3125 23.875 C-25.76268208 17.67748062 -26.46985636 12.24157301 -24.1875 5.875 C-18.21116492 -2.98646236 -9.2496718 -4.96741634 0 0 Z " fill="#D67F4A" transform="translate(458.375,127.8125)"/>
<path d="M0 0 C3.41792814 2.84827345 5.2188576 4.96907279 6.625 9.1875 C6.69240865 10.74868428 6.71014456 12.3125252 6.6875 13.875 C6.67847656 14.68324219 6.66945313 15.49148437 6.66015625 16.32421875 C6.64275391 17.24654297 6.64275391 17.24654297 6.625 18.1875 C7.49511719 18.13529297 7.49511719 18.13529297 8.3828125 18.08203125 C15.29279648 17.84257636 19.20577895 18.98332082 24.4375 23.75 C27.52509723 27.78994053 28.01664818 32.21126434 27.625 37.1875 C26.05644591 42.54443327 23.3575884 46.15378949 18.625 49.1875 C13.32029743 50.95573419 8.35816533 51.03773205 3.3125 48.5625 C2.425625 48.10875 1.53875 47.655 0.625 47.1875 C-5.68246589 49.15951349 -11.02355601 56.01955212 -15.69458008 60.53222656 C-17.01723225 61.79670991 -18.35485538 63.04572671 -19.70727539 64.27832031 C-27.94440405 71.35587344 -27.94440405 71.35587344 -31.89990234 80.98632812 C-31.59862328 84.65175458 -31.59862328 84.65175458 -30.8984375 88.14916992 C-29.91602188 93.85167102 -32.41463119 96.81389159 -35.64453125 101.43359375 C-36.4847077 102.50331312 -37.33256531 103.56703844 -38.1875 104.625 C-39.07718727 105.75231672 -39.96651078 106.8799206 -40.85546875 108.0078125 C-41.28520996 108.54825195 -41.71495117 109.08869141 -42.15771484 109.64550781 C-44.6293046 112.77638645 -46.99192527 115.98916286 -49.375 119.1875 C-48.06382197 121.99733253 -46.60059449 124.3262989 -44.65234375 126.734375 C-37.19172399 136.11614093 -30.80853091 145.50396849 -25.375 156.1875 C-25.02598633 156.86248535 -24.67697266 157.5374707 -24.31738281 158.23291016 C-18.20468469 170.16253069 -13.94298176 182.48753253 -10.515625 195.43359375 C-10.28359375 196.30113281 -10.0515625 197.16867187 -9.8125 198.0625 C-9.56306641 199.11050781 -9.56306641 199.11050781 -9.30859375 200.1796875 C-6.62164294 205.9583181 -1.36979027 208.44847572 4.0625 211.0625 C10.96749046 214.57204406 15.41598318 217.86987621 19 224.875 C20.59727962 233.34058201 20.4475743 240.47293736 16.10546875 248.0625 C12.25890876 253.58368374 7.16992394 256.61982375 0.625 258.1875 C-4.32748556 258.6093912 -9.27022686 258.56749794 -14.23632812 258.52807617 C-15.73502587 258.52722888 -17.23372485 258.52770703 -18.73242188 258.52940369 C-22.78151619 258.5302611 -26.83034151 258.51267681 -30.87937355 258.49168181 C-35.11809535 258.4728724 -39.35682396 258.47116122 -43.59558105 258.46760559 C-51.61354882 258.45829762 -59.63139322 258.43370081 -67.64930677 258.40355712 C-76.78110282 258.36997418 -85.91290489 258.35351733 -95.04474735 258.33847082 C-113.82156805 258.30715008 -132.59827409 258.25441396 -151.375 258.1875 C-151.375 257.8575 -151.375 257.5275 -151.375 257.1875 C-150.35921875 256.95675781 -149.3434375 256.72601563 -148.296875 256.48828125 C-127.20819965 251.56029915 -108.79028706 242.35788454 -96.5625 223.6875 C-95.47792222 221.86714058 -94.41422647 220.03412549 -93.375 218.1875 C-92.91351563 217.38699219 -92.45203125 216.58648437 -91.9765625 215.76171875 C-86.02687029 204.74577348 -83.62955672 193.65296817 -84.375 181.1875 C-87.24918969 180.37001131 -89.81971539 180.05451328 -92.80426025 180.02928162 C-94.12511627 180.01459839 -94.12511627 180.01459839 -95.47265625 179.99961853 C-96.43075195 179.99386307 -97.38884766 179.9881076 -98.37597656 179.98217773 C-99.39093201 179.97227814 -100.40588745 179.96237854 -101.45159912 179.95217896 C-104.80625069 179.92059254 -108.16091641 179.89581772 -111.515625 179.87109375 C-113.84161751 179.85052176 -116.16760631 179.82952523 -118.49359131 179.80812073 C-124.61573271 179.75292537 -130.73790772 179.70350484 -136.86010742 179.65527344 C-143.10728953 179.60503995 -149.35442285 179.54936352 -155.6015625 179.49414062 C-167.85933332 179.38659004 -180.1171465 179.28513812 -192.375 179.1875 C-193.01948829 177.93544827 -193.65967641 176.68118255 -194.2980957 175.42602539 C-194.65507034 174.72780167 -195.01204498 174.02957794 -195.37983704 173.31019592 C-196.86588027 170.1404458 -197.69480657 167.0214 -198.5625 163.625 C-198.88605469 162.38621094 -199.20960938 161.14742187 -199.54296875 159.87109375 C-204.38656811 138.42736513 -200.53988419 116.39560281 -189.19750977 97.66650391 C-183.07456655 88.00202609 -175.9380479 79.5976084 -166.375 73.1875 C-177.86016761 68.94146834 -189.34375759 66.37388821 -201.375 64.1875 C-201.375 63.5275 -201.375 62.8675 -201.375 62.1875 C-196.16873152 62.11190075 -190.96279991 62.05823435 -185.75610352 62.02270508 C-183.99432799 62.00785462 -182.23258776 61.98756891 -180.47094727 61.96118164 C-164.22620835 61.72440494 -148.50349075 63.20351158 -132.875 67.875 C-132.01970703 68.12121094 -131.16441406 68.36742187 -130.28320312 68.62109375 C-123.10415224 70.77322656 -116.26037228 73.58910839 -109.50195312 76.82299805 C-105.27311239 78.83830501 -105.27311239 78.83830501 -100.71875 78.6875 C-97.80604564 76.82336921 -95.08989295 74.83226543 -92.375 72.6875 C-91.81611084 72.25115234 -91.25722168 71.81480469 -90.68139648 71.36523438 C-88.31142597 69.51401562 -85.95312038 67.64859519 -83.60205078 65.7734375 C-82.44232318 64.84901227 -81.28008564 63.92772621 -80.11523438 63.00976562 C-78.52058753 61.75298342 -76.93389069 60.48613327 -75.34765625 59.21875 C-71.31735942 56.4648021 -68.20898876 54.86193729 -63.28466797 55.73608398 C-62.19814941 55.98688721 -61.11163086 56.23769043 -59.9921875 56.49609375 C-55.06961049 56.93577144 -52.26268793 56.47911459 -48.43066406 53.46533203 C-44.17844322 49.6548589 -40.34296962 45.46564111 -36.5 41.25 C-35.12206237 39.79673425 -33.74057732 38.34682337 -32.35546875 36.90039062 C-28.98640108 33.36688068 -25.66891348 29.79111123 -22.375 26.1875 C-22.684375 25.424375 -22.99375 24.66125 -23.3125 23.875 C-25.76268208 17.67748062 -26.46985636 12.24157301 -24.1875 5.875 C-18.21116492 -2.98646236 -9.2496718 -4.96741634 0 0 Z " fill="#AC5D2D" transform="translate(458.375,127.8125)"/>
<path d="M0 0 C0.84615039 -0.00205263 1.69230079 -0.00410527 2.5640921 -0.0062201 C5.42447219 -0.01191424 8.2848045 -0.01042989 11.14518929 -0.00901413 C13.20661574 -0.01159638 15.26804169 -0.01460914 17.32946694 -0.01801753 C23.01382523 -0.02610716 28.6981709 -0.02787819 34.38253427 -0.028615 C40.50533721 -0.03046212 46.62813355 -0.03800767 52.75093269 -0.04475021 C66.84617337 -0.05905673 80.94140989 -0.0648616 95.03665609 -0.06944216 C101.99918135 -0.07177696 108.96170578 -0.07537946 115.9242304 -0.07913754 C139.74921435 -0.09197309 163.57419784 -0.10269286 187.39918518 -0.10614014 C188.89508665 -0.10636177 190.39098812 -0.10658355 191.88688958 -0.10680549 C193.38643746 -0.10702613 194.88598534 -0.10724661 196.38553321 -0.10746694 C199.39397041 -0.10790949 202.40240761 -0.10835661 205.4108448 -0.10880661 C206.1567637 -0.108916 206.90268259 -0.10902539 207.67120508 -0.1091381 C231.86712556 -0.11277014 256.06301609 -0.1286957 280.2589251 -0.15199697 C305.82969463 -0.17657734 331.40044703 -0.19031212 356.97122872 -0.19150805 C359.77667372 -0.19167951 362.58211871 -0.19189495 365.38756371 -0.19214249 C366.07836233 -0.19219826 366.76916095 -0.19225402 367.48089287 -0.19231148 C378.61078661 -0.19346342 389.74064969 -0.20449739 400.87053307 -0.21902954 C412.05105362 -0.23337573 423.2315353 -0.23638905 434.41206609 -0.22858956 C440.47234246 -0.22467054 446.53251538 -0.22567355 452.59277916 -0.23964691 C458.13561531 -0.2523108 463.67826949 -0.25125486 469.22110511 -0.2390562 C471.23118704 -0.23708611 473.24128152 -0.24023753 475.25134574 -0.24890056 C477.97465224 -0.2598987 480.69730574 -0.25257257 483.42059326 -0.24050903 C484.60286343 -0.25190182 484.60286343 -0.25190182 485.80901784 -0.26352477 C490.31889237 -0.22012323 493.25826079 0.31738481 496.83613777 3.13142776 C499.2728079 8.00476803 498.32616549 14.79618219 497.83613777 20.13142776 C495.94024593 25.42576473 492.49324151 29.02669194 487.83613777 32.13142776 C487.30536629 32.49091507 486.7745948 32.85040237 486.22773933 33.22078323 C482.59499182 34.60401601 478.96465199 34.3755367 475.13301277 34.32674026 C474.29522285 34.32391037 473.45743294 34.32108047 472.59425545 34.31816483 C469.92473614 34.30699125 467.25555527 34.28189197 464.58613777 34.25642776 C462.77364263 34.24639431 460.96114221 34.2372691 459.14863777 34.22908401 C454.71100784 34.20706117 450.27363015 34.17255081 445.83613777 34.13142776 C445.87311775 35.46077347 445.87311775 35.46077347 445.9108448 36.81697464 C445.93001961 37.98293167 445.94919441 39.1488887 445.96895027 40.35017776 C446.00593025 42.08171097 446.00593025 42.08171097 446.0436573 43.84822464 C445.64322915 50.18346917 442.30954095 53.59105172 438.08613777 58.00642776 C429.98291587 63.30468824 420.16828048 62.41628669 410.84370613 62.38539505 C409.32442482 62.38770194 407.80514462 62.39087999 406.28586674 62.39484954 C402.12776665 62.40317482 397.96975874 62.39908259 393.81165838 62.3928771 C389.32079866 62.38834433 384.82995457 62.39534047 380.33909798 62.40083694 C371.54811885 62.40972377 362.7571739 62.40781209 353.96619344 62.40201166 C346.82069637 62.39749239 339.67520886 62.39688342 332.52971077 62.3990593 C331.51219575 62.39936576 330.49468073 62.39967223 329.44633192 62.39998798 C327.3791813 62.40062744 325.31203069 62.40127587 323.24488008 62.40193316 C303.86744373 62.40763438 284.4900263 62.40108184 265.11259305 62.39033243 C248.49080942 62.38139711 231.86905372 62.38294921 215.24727058 62.39216995 C195.93851861 62.40287626 176.62978323 62.40708507 157.32102871 62.40094543 C155.26154073 62.40030834 153.20205275 62.39967959 151.14256477 62.3990593 C150.12929349 62.39875074 149.11602221 62.39844219 148.07204574 62.39812429 C140.93626662 62.39639844 133.80049803 62.3993101 126.66472054 62.4040184 C117.96698302 62.40963123 109.26928161 62.4081023 100.57154822 62.39745691 C96.13501674 62.39220565 91.69854541 62.3901342 87.26201439 62.39675522 C83.19833177 62.40272802 79.13476489 62.39941762 75.07109272 62.38880011 C73.60351396 62.38657173 72.13592536 62.38768973 70.66835296 62.39255169 C50.1714425 62.45523119 50.1714425 62.45523119 42.50020027 54.96736526 C38.1890403 50.21092116 37.71116119 46.70719634 37.77363777 40.42049026 C37.78266121 39.24438187 37.79168465 38.06827347 37.80098152 36.85652542 C37.81258308 35.95724319 37.82418465 35.05796097 37.83613777 34.13142776 C36.72689949 34.15761185 35.61766121 34.18379593 34.47480965 34.21077347 C30.33016085 34.30178196 26.18559902 34.35885939 22.04023933 34.40608597 C20.25167641 34.43111551 18.4632146 34.46515021 16.67500496 34.50862503 C14.09304454 34.56979187 11.51244456 34.59775222 8.92988777 34.61970901 C8.13997444 34.64551544 7.35006111 34.67132187 6.53621101 34.69791031 C0.48744121 34.7009153 -3.45068468 32.89358493 -8.16386223 29.13142776 C-13.24452259 23.64966263 -14.50971874 19.48074427 -14.47636223 12.06892776 C-14.49247551 11.34898636 -14.50858879 10.62904495 -14.52519035 9.88728714 C-14.53004115 4.66297781 -14.53004115 4.66297781 -12.83183098 2.19783401 C-8.79471229 -0.38327465 -4.60196417 -0.01027044 0 0 Z " fill="#DEF6FC" transform="translate(14.163862228393555,384.8685722351074)"/>
<path d="M0 0 C134.64 0 269.28 0 408 0 C408 12.61040919 407.97689515 15.79688235 400.25 23.875 C392.1467781 29.17326047 382.33214271 28.28485892 373.00756836 28.25396729 C371.48828704 28.25627417 369.96900685 28.25945223 368.44972897 28.26342177 C364.29162888 28.27174706 360.13362097 28.26765482 355.97552061 28.26144934 C351.48466089 28.25691657 346.9938168 28.2639127 342.50296021 28.26940918 C333.71198108 28.278296 324.92103613 28.27638433 316.13005567 28.2705839 C308.98455859 28.26606462 301.83907109 28.26545566 294.693573 28.26763153 C293.67605798 28.267938 292.65854296 28.26824446 291.61019415 28.26856022 C289.54304353 28.26919968 287.47589292 28.2698481 285.40874231 28.2705054 C266.03130595 28.27620661 246.65388853 28.26965407 227.27645528 28.25890467 C210.65467165 28.24996935 194.03291595 28.25152145 177.41113281 28.26074219 C158.10238084 28.2714485 138.79364546 28.27565731 119.48489094 28.26951766 C117.42540296 28.26888057 115.36591498 28.26825183 113.306427 28.26763153 C111.78652008 28.2671687 111.78652008 28.2671687 110.23590797 28.26669653 C103.10012885 28.26497067 95.96436026 28.26788234 88.82858276 28.27259064 C80.13084525 28.27820347 71.43314384 28.27667453 62.73541045 28.26602915 C58.29887897 28.26077788 53.86240764 28.25870644 49.42587662 28.26532745 C45.362194 28.27130025 41.29862712 28.26798985 37.23495495 28.25737235 C35.76737619 28.25514397 34.29978759 28.25626196 32.83221519 28.26112393 C12.33530473 28.32380342 12.33530473 28.32380342 4.6640625 20.8359375 C-1.55467572 13.97488829 0 10.38121123 0 0 Z " fill="#98E5FC" transform="translate(52,419)"/>
<path d="M0 0 C2.77948591 1.34182078 3.89997288 1.67384578 6.94140625 0.9609375 C9.54809393 -0.07907796 9.54809393 -0.07907796 11.91796875 -1.32421875 C22.32793194 -6.04097472 36.93866258 -4.26836102 47.375 -0.4375 C50.2109375 1.04296875 50.2109375 1.04296875 52.375 2.5625 C52.375 3.2225 52.375 3.8825 52.375 4.5625 C50.85983244 5.88941027 49.28414348 7.14733832 47.6875 8.375 C30.40565995 22.25822626 17.239398 39.21490089 6.6953125 58.66015625 C2.78694454 65.83253962 -0.75827048 68.06349353 -8.453125 70.43359375 C-15.90803767 72.73697061 -21.56661849 75.62291369 -27.625 80.5625 C-28.26179688 81.06265625 -28.89859375 81.5628125 -29.5546875 82.078125 C-36.55548764 88.23882912 -40.65480489 97.88133233 -43.25 106.6875 C-44.66863889 111.37858197 -47.2560772 113.16101808 -51.39453125 115.609375 C-54.22128031 116.81730279 -56.82186132 117.04581088 -59.875 117.375 C-68.11228456 118.58338105 -72.944073 121.12046158 -78.0625 127.6875 C-81.88271436 133.03788197 -82.46767121 138.12014271 -81.625 144.5625 C-80.26523926 148.09198725 -78.53594663 151.30449263 -76.625 154.5625 C-76.13 155.5525 -76.13 155.5525 -75.625 156.5625 C-86.62248125 153.54706159 -93.59787183 144.23677753 -99.03515625 134.71875 C-105.51822069 121.84819455 -106.25240276 106.84372257 -101.84375 93.1328125 C-100.89928342 90.84492364 -99.82868915 88.72537893 -98.625 86.5625 C-98.13 85.66660156 -97.635 84.77070313 -97.125 83.84765625 C-91.79765685 74.85776468 -85.03882471 68.17335292 -75.625 63.5625 C-74.965 63.5625 -74.305 63.5625 -73.625 63.5625 C-73.94726562 62.42167969 -74.26953125 61.28085937 -74.6015625 60.10546875 C-78.1081205 45.98924544 -75.83527429 31.25108328 -68.4375 18.8125 C-59.92472609 6.36936027 -48.66761726 -2.07846676 -33.7734375 -4.99609375 C-22.04888643 -6.63985835 -10.49479309 -5.67931885 0 0 Z " fill="#8BC627" transform="translate(116.625,223.4375)"/>
<path d="M0 0 C15.93680539 6.52446395 27.45584187 35.64649174 33.82666016 50.16064453 C37.18556572 58.28883257 39.61305041 66.72703496 41.84765625 75.22265625 C42.20150391 76.53556641 42.20150391 76.53556641 42.5625 77.875 C42.81193359 78.92300781 42.81193359 78.92300781 43.06640625 79.9921875 C45.75335706 85.7708181 51.00520973 88.26097572 56.4375 90.875 C63.34249046 94.38454406 67.79098318 97.68237621 71.375 104.6875 C72.97227962 113.15308201 72.8225743 120.28543736 68.48046875 127.875 C64.63390876 133.39618374 59.54492394 136.43232375 53 138 C48.04751444 138.4218912 43.10477314 138.37999794 38.13867188 138.34057617 C36.63997413 138.33972888 35.14127515 138.34020703 33.64257812 138.34190369 C29.59348381 138.3427611 25.54465849 138.32517681 21.49562645 138.30418181 C17.25690465 138.2853724 13.01817604 138.28366122 8.77941895 138.28010559 C0.76145118 138.27079762 -7.25639322 138.24620081 -15.27430677 138.21605712 C-24.40610282 138.18247418 -33.53790489 138.16601733 -42.66974735 138.15097082 C-61.44656805 138.11965008 -80.22327409 138.06691396 -99 138 C-99 137.67 -99 137.34 -99 137 C-97.47632813 136.65388672 -97.47632813 136.65388672 -95.921875 136.30078125 C-74.83319965 131.37279915 -56.41528706 122.17038454 -44.1875 103.5 C-43.10292222 101.67964058 -42.03922647 99.84662549 -41 98 C-40.53851563 97.19949219 -40.07703125 96.39898437 -39.6015625 95.57421875 C-34.49547514 86.12022064 -31.73729681 75.69080369 -31 65 C-30.01 65 -29.02 65 -28 65 C-25.54088679 62.87685203 -25.54088679 62.87685203 -23 60 C-22.53464844 59.53851563 -22.06929688 59.07703125 -21.58984375 58.6015625 C-12.83022497 49.39812304 -8.72217572 37.44198508 -7.66015625 25.02734375 C-6.78908463 15.38820592 -5.14519742 8.3973505 0 0 Z " fill="#C86D36" transform="translate(406,248)"/>
<path d="M0 0 C1.25349747 -0.00845947 2.50699493 -0.01691895 3.79847717 -0.02563477 C5.19015632 -0.01980167 6.5818342 -0.01365716 7.97351074 -0.00723267 C9.43705131 -0.01129712 10.90058881 -0.01663828 12.36412048 -0.02316284 C16.34136645 -0.03685746 20.31837937 -0.03152904 24.2956295 -0.02202559 C28.45425427 -0.01444005 32.61285884 -0.02147151 36.77148438 -0.02618408 C43.75569244 -0.03164487 50.73980539 -0.02444157 57.72399902 -0.01016235 C65.80327301 0.00616482 73.8823199 0.00087653 81.96158838 -0.01564157 C88.893293 -0.02924726 95.82492917 -0.03118061 102.75664282 -0.02332556 C106.89884 -0.01864398 111.04093037 -0.01803745 115.18312073 -0.02793503 C119.07703872 -0.03658913 122.97066339 -0.03061156 126.86454964 -0.01325226 C128.29523799 -0.00927904 129.72595094 -0.01043572 131.15662956 -0.01704025 C133.1062826 -0.02521204 135.05598947 -0.01315743 137.00561523 0 C138.09773064 0.00113108 139.18984604 0.00226215 140.31505585 0.00342751 C143.00280762 0.38095093 143.00280762 0.38095093 144.84833527 1.77121544 C147.46619993 5.42142816 146.52477398 10.14612952 146.00280762 14.38095093 C142.60922073 28.70942888 136.87343584 41.32438771 127.00280762 52.38095093 C126.3363623 53.1414978 125.66991699 53.90204468 124.98327637 54.68563843 C114.7057781 65.70677757 102.17066757 71.92041871 88.00280762 76.38095093 C87.15589355 76.64778687 86.30897949 76.9146228 85.43640137 77.18954468 C66.32311335 82.00941731 46.03143349 77.28691381 29.23718262 67.82235718 C10.70651202 56.61596001 -2.16778594 39.86610909 -7.49719238 18.88095093 C-8.77464363 13.5508957 -9.40911612 8.82749806 -8.99719238 3.38095093 C-6.60952292 -0.18902404 -4.08487669 0.00423061 0 0 Z " fill="#FED05A" transform="translate(228.9971923828125,307.6190490722656)"/>
<path d="M0 0 C3.36993384 1.64222324 3.36993384 1.64222324 7.125 0.9375 C7.764375 0.525 8.40375 0.1125 9.0625 -0.3125 C7.4864703 3.33366602 5.22742802 5.95615846 2.625 8.9375 C-1.45995701 13.71659823 -5.14438846 18.68285492 -8.6875 23.875 C-9.16018311 24.56102295 -9.63286621 25.2470459 -10.11987305 25.95385742 C-12.02335501 28.7435882 -13.82954132 31.48788891 -15.4375 34.4609375 C-19.05239765 41.08071883 -24.44756506 43.1891972 -31.109375 46.0078125 C-46.20467596 52.43118535 -59.0265085 64.09582603 -65.39526367 79.32177734 C-68.66709045 87.02695461 -68.66709045 87.02695461 -72.875 89.21484375 C-75.09829802 89.82572634 -77.33984238 90.37344079 -79.59375 90.859375 C-88.49891495 93.06485978 -95.13626796 99.44027937 -101.2578125 105.96484375 C-101.81210938 106.53332031 -102.36640625 107.10179687 -102.9375 107.6875 C-103.2675 107.6875 -103.5975 107.6875 -103.9375 107.6875 C-104.92189714 94.89033721 -98.96532424 84.25256718 -90.9375 74.6875 C-85.71372217 69.59395486 -81.02101808 65.70988071 -73.9375 63.6875 C-74.25976562 62.54667969 -74.58203125 61.40585937 -74.9140625 60.23046875 C-78.4206205 46.11424544 -76.14777429 31.37608328 -68.75 18.9375 C-60.23722609 6.49436027 -48.98011726 -1.95346676 -34.0859375 -4.87109375 C-22.16718519 -6.54208508 -10.84149604 -5.27762596 0 0 Z " fill="#96D628" transform="translate(116.9375,223.3125)"/>
<path d="M0 0 C5.20626848 -0.07559925 10.41220009 -0.12926565 15.61889648 -0.16479492 C17.38067201 -0.17964538 19.14241224 -0.19993109 20.90405273 -0.22631836 C37.14634955 -0.46305947 52.87465821 1.01121898 68.5 5.6875 C69.35166748 5.93516113 70.20333496 6.18282227 71.08081055 6.43798828 C80.34851639 9.23717189 89.18292584 13.02979746 98 17 C97.505 18.485 97.505 18.485 97 20 C91.84868426 21.93673499 86.82349111 22.3787776 81.375 22.8125 C65.03693402 24.39683782 50.63385015 31.34551422 40 44 C29.82577098 58.4116028 27.5049783 72.63970489 29 90 C30.6083734 99.20084194 34.86879647 107.28695672 40 115 C40.33 115.66 40.66 116.32 41 117 C30.44 117 19.88 117 9 117 C6.17798443 111.35596886 4.31621963 107.32348827 2.8125 101.4375 C2.48894531 100.19871094 2.16539062 98.95992188 1.83203125 97.68359375 C-3.01156811 76.23986513 0.83511581 54.20810281 12.17749023 35.47900391 C18.30043345 25.81452609 25.4369521 17.4101084 35 11 C23.51483239 6.75396834 12.03124241 4.18638821 0 2 C0 1.34 0 0.68 0 0 Z " fill="#C86C36" transform="translate(257,190)"/>
<path d="M0 0 C1.99450542 1.88953145 3.58529558 3.77161805 5.2578125 5.9765625 C7.97822945 9.27483915 10.94049496 10.67894422 14.875 12.375 C22.19890943 15.75548607 26.87321531 19.65396173 30.4375 26.9375 C31.74656485 34.06463085 31.61293465 40.56998694 28 47 C24.73452721 51.45650272 21.98428015 54.50785992 17 57 C36.305 57.495 36.305 57.495 56 58 C56 58.33 56 58.66 56 59 C5.84 59 -44.32 59 -96 59 C-96 58.67 -96 58.34 -96 58 C-94.47632813 57.65388672 -94.47632813 57.65388672 -92.921875 57.30078125 C-73.7325268 52.81663216 -58.09131994 45.16471499 -45 30 C-44.40316406 28.97132813 -43.80632812 27.94265625 -43.19140625 26.8828125 C-40.45400864 23.28174398 -37.66488711 22.33844807 -33.5 21.0625 C-20.27978812 16.51912742 -10.32695975 9.21098184 0 0 Z " fill="#D6804B" transform="translate(403,327)"/>
<path d="M0 0 C1.25361328 0.00966797 2.50722656 0.01933594 3.79882812 0.02929688 C5.10916016 0.05443359 6.41949219 0.07957031 7.76953125 0.10546875 C9.10480288 0.12051908 10.44009062 0.13420688 11.77539062 0.14648438 C15.04467701 0.18189181 18.31315218 0.23127985 21.58203125 0.29296875 C21.76813965 1.50206909 21.76813965 1.50206909 21.95800781 2.7355957 C22.1278418 3.80253662 22.29767578 4.86947754 22.47265625 5.96875 C22.63797852 7.02231689 22.80330078 8.07588379 22.97363281 9.16137695 C25.23208808 20.78625887 31.70693941 31.61931798 41.58203125 38.29296875 C54.46467002 45.05482773 66.51071869 47.41763683 80.9609375 44.64453125 C83.66531864 43.72338833 86.0673061 42.64674251 88.58203125 41.29296875 C89.51273437 40.80699219 90.4434375 40.32101562 91.40234375 39.8203125 C102.27093278 33.55680683 108.04115774 24.77613926 112.58203125 13.29296875 C115.11209334 20.30438265 109.90544074 28.90524838 106.95703125 35.23046875 C97.23693511 53.88914577 81.62044711 67.42150116 61.76953125 74.35546875 C55.88835293 76.1422325 51.49006973 77.09456822 45.58203125 75.29296875 C44.58816406 74.99003906 43.59429687 74.68710937 42.5703125 74.375 C22.53985647 67.42952826 6.63684674 52.46352843 -2.68212891 33.61694336 C-7.08358876 24.17274402 -10.21132788 13.78293951 -9.41796875 3.29296875 C-6.99151613 -0.43240274 -4.18393471 -0.05679549 0 0 Z " fill="#FEE076" transform="translate(229.41796875,307.70703125)"/>
<path d="M0 0 C3.41792814 2.84827345 5.2188576 4.96907279 6.625 9.1875 C6.69240865 10.74868428 6.71014456 12.3125252 6.6875 13.875 C6.67847656 14.68324219 6.66945313 15.49148437 6.66015625 16.32421875 C6.64855469 16.93910156 6.63695312 17.55398437 6.625 18.1875 C7.49511719 18.13529297 7.49511719 18.13529297 8.3828125 18.08203125 C15.29279648 17.84257636 19.20577895 18.98332082 24.4375 23.75 C27.52509723 27.78994053 28.01664818 32.21126434 27.625 37.1875 C26.05644591 42.54443327 23.3575884 46.15378949 18.625 49.1875 C13.32029743 50.95573419 8.35816533 51.03773205 3.3125 48.5625 C2.425625 48.10875 1.53875 47.655 0.625 47.1875 C-2.3156913 48.27953089 -4.28401569 49.85565764 -6.45947266 52.07666016 C-7.32023911 52.94733627 -7.32023911 52.94733627 -8.19839478 53.83560181 C-8.80581512 54.45961884 -9.41323547 55.08363586 -10.0390625 55.7265625 C-10.67234467 56.36741791 -11.30562683 57.00827332 -11.95809937 57.66854858 C-13.97694261 59.71179437 -15.98920492 61.76133523 -18 63.8125 C-20.65318936 66.51867745 -23.31277415 69.21832211 -25.9765625 71.9140625 C-26.58803131 72.54212799 -27.19950012 73.17019348 -27.82949829 73.81729126 C-29.30711225 75.31210537 -30.83654303 76.75538185 -32.375 78.1875 C-33.035 78.1875 -33.695 78.1875 -34.375 78.1875 C-35.75 76.7890625 -35.75 76.7890625 -37.375 74.8125 C-44.48270775 65.91947785 -44.48270775 65.91947785 -53.375 59.1875 C-52.07780076 56.32970983 -50.7113174 54.27741464 -48.48583984 52.07128906 C-47.9053891 51.49098938 -47.32493835 50.9106897 -46.72689819 50.31280518 C-46.10288116 49.69911072 -45.47886414 49.08541626 -44.8359375 48.453125 C-44.19508209 47.81509949 -43.55422668 47.17707397 -42.89395142 46.51971436 C-40.85062179 44.48755931 -38.80044018 42.46247782 -36.75 40.4375 C-35.3615214 39.0590547 -33.9734951 37.68015364 -32.5859375 36.30078125 C-29.18751303 32.92438106 -25.78292746 29.55430712 -22.375 26.1875 C-22.684375 25.424375 -22.99375 24.66125 -23.3125 23.875 C-25.76268208 17.67748062 -26.46985636 12.24157301 -24.1875 5.875 C-18.21116492 -2.98646236 -9.2496718 -4.96741634 0 0 Z " fill="#FEF1DA" transform="translate(458.375,127.8125)"/>
<path d="M0 0 C4.03082 1.612328 6.75944137 4.46234596 9.75 7.5 C10.25660156 7.99886719 10.76320313 8.49773437 11.28515625 9.01171875 C15 12.74658861 15 12.74658861 15 15 C15.66 15 16.32 15 17 15 C19.15357152 20.82731118 19.7772957 25.9571946 18 32 C15.73445135 36.00086252 12.90043891 39.4432909 10 43 C9.02720648 44.26643552 8.05864904 45.53613314 7.09375 46.80859375 C6.10495069 48.10216218 5.11537499 49.39513753 4.125 50.6875 C3.64885254 51.31237305 3.17270508 51.93724609 2.68212891 52.58105469 C1.50175679 54.09196486 0.25611594 55.55144879 -1 57 C-1.66 57 -2.32 57 -3 57 C-3.268125 57.680625 -3.53625 58.36125 -3.8125 59.0625 C-5 62 -5 62 -6.48828125 64.98828125 C-8.57730405 69.85247432 -8.85174486 74.90480559 -9.375 80.125 C-10.9750071 93.80807961 -14.42322492 103.99038968 -23 115 C-23.680625 115.94875 -24.36125 116.8975 -25.0625 117.875 C-27.42163374 120.462437 -30.0258371 122.17494549 -33 124 C-33.2475 123.030625 -33.495 122.06125 -33.75 121.0625 C-34.36875 119.5465625 -34.36875 119.5465625 -35 118 C-38.28524561 116.69018686 -41.79792738 116.79912504 -45.296875 116.68359375 C-46.50214844 116.64169922 -47.70742188 116.59980469 -48.94921875 116.55664062 C-50.20347656 116.51732422 -51.45773437 116.47800781 -52.75 116.4375 C-54.65458984 116.37272461 -54.65458984 116.37272461 -56.59765625 116.30664062 C-59.73166365 116.20060278 -62.86574933 116.09853942 -66 116 C-63.35411724 114.23607816 -60.76872392 112.86736992 -57.9375 111.4375 C-43.95963698 103.83842368 -34.93612501 92.19859431 -30.09375 77.19140625 C-28.72852879 72.16056608 -27.88575921 67.258128 -27.39208984 62.06713867 C-25.95802273 47.57758464 -19.17669529 38.56883913 -10.078125 27.7265625 C-4.22433235 20.72531351 0.16305223 15.16385753 0.0625 5.8125 C0.05347656 4.72582031 0.04445313 3.63914063 0.03515625 2.51953125 C0.02355469 1.68808594 0.01195312 0.85664063 0 0 Z " fill="#9E5528" transform="translate(409,191)"/>
<path d="M0 0 C3.93260944 -0.07421454 7.86494722 -0.12863136 11.7980957 -0.16479492 C13.79327701 -0.18728333 15.78826213 -0.22540198 17.78320312 -0.26367188 C19.03681641 -0.27333984 20.29042969 -0.28300781 21.58203125 -0.29296875 C22.73936768 -0.3086792 23.8967041 -0.32438965 25.08911133 -0.34057617 C28 0 28 0 29.87182617 1.38476562 C32.44261309 5.06542484 31.52266552 9.75950614 31 14 C27.60641312 28.32847796 21.87062822 40.94343678 12 52 C11.33355469 52.76054687 10.66710937 53.52109375 9.98046875 54.3046875 C-0.29702951 65.32582664 -12.83214004 71.53946778 -27 76 C-27.84691406 76.26683594 -28.69382812 76.53367187 -29.56640625 76.80859375 C-39.55511778 79.32748622 -51.94324471 79.02757163 -62 77 C-59.38396229 74.38396229 -56.51127523 73.79564831 -53.0625 72.75 C-33.94129816 66.60748504 -19.22222683 54.1684831 -9.33984375 36.62109375 C-3.26510543 24.73727621 -1.49640741 13.13968699 0 0 Z " fill="#FED05B" transform="translate(344,308)"/>
<path d="M0 0 C2.48472827 3.72709241 2.64289703 6.68227182 2 11 C0.20835914 15.80353442 -2.72589142 19.18808646 -7 22 C-7.66 22 -8.32 22 -9 22 C-8.278125 22.721875 -7.55625 23.44375 -6.8125 24.1875 C-5.884375 25.115625 -4.95625 26.04375 -4 27 C-3.0925 27.86625 -2.185 28.7325 -1.25 29.625 C2.46313922 33.54442473 2.34476196 37.34625221 2.27734375 42.5 C1.70182605 47.68776514 -1.46159373 50.65216149 -5.25 53.875 C-6.1575 54.57625 -7.065 55.2775 -8 56 C-7.2575 56.721875 -6.515 57.44375 -5.75 58.1875 C2.12513748 66.24161788 2.12513748 66.24161788 2.3125 72.75 C2.24175319 77.67397777 1.33945061 80.2324147 -2 84 C-3.7450397 85.53855009 -5.52449052 87.01984306 -7.33203125 88.484375 C-9.71684494 90.65137199 -11.23479166 93.32175287 -13 96 C-15.59429022 97.98895584 -16.76162974 98.0097294 -20.0625 97.875 C-23 97 -23 97 -24.875 95.4375 C-26.7867421 91.29539211 -26.82516162 87.30765537 -25.30859375 83.06640625 C-23.0479461 78.66807504 -20.23637974 76.59959666 -16 74 C-16 73.34 -16 72.68 -16 72 C-17.46796803 70.85579795 -17.46796803 70.85579795 -19.3125 69.75 C-22.90638523 67.24010039 -24.62610036 65.28333418 -26 61 C-26.65720367 55.9641769 -26.60626149 52.21252298 -24.3125 47.625 C-22.03352178 45.03805175 -19.84500432 42.9465819 -17 41 C-16.34 41 -15.68 41 -15 41 C-16.0828125 39.948125 -16.0828125 39.948125 -17.1875 38.875 C-26.11983229 29.94266771 -26.11983229 29.94266771 -26.3125 23.25 C-26.24901678 18.34768474 -25.31705101 15.75350508 -22 12 C-16.80106101 7 -16.80106101 7 -14 7 C-13.896875 6.236875 -13.79375 5.47375 -13.6875 4.6875 C-12.94405866 1.78132022 -12.34113037 0.80086951 -10 -1 C-6.00471255 -2.33176248 -3.90144863 -1.41870859 0 0 Z " fill="#C8EFFE" transform="translate(268,67)"/>
<path d="M0 0 C2.4375 1.375 2.4375 1.375 4 4 C4.99153574 8.52588087 5.05354902 12.33281471 2.53125 16.32421875 C0.77307473 18.3394154 -1.03973538 20.18245271 -3 22 C-4.00225988 22.997735 -5.00307217 23.99693723 -6 25 C-5.36191406 25.55429688 -4.72382813 26.10859375 -4.06640625 26.6796875 C-3.24011719 27.40414062 -2.41382813 28.12859375 -1.5625 28.875 C-0.73878906 29.59429687 0.08492188 30.31359375 0.93359375 31.0546875 C4.20794332 34.13715647 4.23164658 36.29316627 4.375 40.6875 C4.33825019 45.79572301 3.70643514 48.79015323 0.37109375 52.6640625 C-4.07894737 57 -4.07894737 57 -7 57 C-7 57.66 -7 58.32 -7 59 C-6.278125 59.20625 -5.55625 59.4125 -4.8125 59.625 C-0.65471282 61.65769595 1.91410244 64.82820488 4 69 C4.51838766 74.20087292 4.66595399 78.61686478 2.375 83.375 C-0.27244714 86.30112579 -2.82560654 88.65370918 -6 91 C-6.66 91 -7.32 91 -8 91 C-8.0825 91.763125 -8.165 92.52625 -8.25 93.3125 C-9 96 -9 96 -10.6875 97.8125 C-13.78262709 99.40188959 -15.56020007 99.56159999 -19 99 C-22.57569261 96.43482921 -23.83418066 94.99491603 -24.5625 90.625 C-23.76544721 85.4884376 -22.11632402 81.79910201 -18.17578125 78.44921875 C-16.49332085 77.23771076 -14.75051799 76.11090565 -13 75 C-13.54269531 74.56429687 -14.08539063 74.12859375 -14.64453125 73.6796875 C-23.37904269 66.4087969 -23.37904269 66.4087969 -24.2734375 60.05859375 C-24.50772883 55.30968863 -23.72230057 51.99837896 -21 48 C-18.44763731 45.51811675 -15.77528241 43.22813647 -13 41 C-13.54269531 40.63648438 -14.08539063 40.27296875 -14.64453125 39.8984375 C-19.1028469 36.76556704 -22.28093457 34.37207948 -24 29 C-24.75746966 23.61114445 -24.13388195 19.55837375 -21 15 C-18.7491179 12.91814018 -16.44934564 10.94701153 -14.05859375 9.02734375 C-11.7848101 6.78807674 -11.12529908 4.94123237 -10 2 C-6.2794164 -0.48038907 -4.40203429 -0.46337203 0 0 Z " fill="#C8EFFE" transform="translate(349,76)"/>
<path d="M0 0 C2.78536336 2.33611121 2.97227503 3.75047523 3.375 7.375 C2.76435221 13.2779286 0.790976 16.50584901 -3.6875 20.25 C-4.62142578 20.96929687 -4.62142578 20.96929687 -5.57421875 21.703125 C-6.04472656 22.13109375 -6.51523438 22.5590625 -7 23 C-7 23.66 -7 24.32 -7 25 C-5.75146711 26.15271525 -4.45031062 27.24895002 -3.125 28.3125 C1.554786 32.33083215 2.77659133 34.69144378 3.375 40.875 C3.24051965 45.32966147 1.85072985 48.58776276 -1 52 C-2.93299007 53.59825276 -4.80524805 54.75298185 -7 56 C-5.90072095 59.29783715 -5.21616406 59.83371996 -2.5625 61.875 C1.85646336 65.56954314 2.816602 68.10488729 3.375 73.875 C3.22673302 78.25711289 1.84491368 81.66783591 -1 85 C-3.01967254 86.62851066 -5.10198173 88.10905772 -7.234375 89.5859375 C-9.52176143 91.41787088 -10.22520383 93.21073378 -11 96 C-13.41486943 98.41486943 -14.12707789 98.2961925 -17.4375 98.3125 C-18.61119141 98.33763672 -18.61119141 98.33763672 -19.80859375 98.36328125 C-22 98 -22 98 -23.7578125 96.78125 C-26.20253783 93.27560613 -25.57217345 89.07514645 -25 85 C-22.79429911 80.58859823 -20.06117466 77.77869845 -16 75 C-15.34 75 -14.68 75 -14 75 C-14.556875 74.443125 -15.11375 73.88625 -15.6875 73.3125 C-16.8321875 72.1678125 -16.8321875 72.1678125 -18 71 C-18.86625 70.154375 -19.7325 69.30875 -20.625 68.4375 C-25.22568173 63.7157477 -25.60078411 60.4747671 -25.5234375 54.0859375 C-24.6619526 49.00703397 -21.73535084 46.31942313 -18 43 C-16.99547518 42.00454538 -15.9938652 41.00609739 -15 40 C-15.63808594 39.44570312 -16.27617187 38.89140625 -16.93359375 38.3203125 C-17.75988281 37.59585938 -18.58617187 36.87140625 -19.4375 36.125 C-20.26121094 35.40570313 -21.08492187 34.68640625 -21.93359375 33.9453125 C-25.20794332 30.86284353 -25.23164658 28.70683373 -25.375 24.3125 C-25.32668709 19.2698395 -24.76871513 16.2326471 -21.5 12.37890625 C-20 11 -20 11 -16.875 8.9375 C-13.49082193 6.65685825 -12.72989363 4.61705033 -11 1 C-7.52478498 -1.85464091 -4.1688413 -1.0611596 0 0 Z " fill="#C8EFFE" transform="translate(184,87)"/>
<path d="M0 0 C5.32020022 -0.07429915 10.64009669 -0.12867247 15.96069336 -0.16479492 C17.76966617 -0.17985755 19.5786026 -0.20031177 21.38745117 -0.22631836 C23.99146515 -0.2628132 26.5949952 -0.27975157 29.19921875 -0.29296875 C30.40731453 -0.31619453 30.40731453 -0.31619453 31.63981628 -0.33988953 C36.25447766 -0.34126464 39.24856838 0.00495311 43 3 C45.43667013 7.87334026 44.49002772 14.66475442 44 20 C41.84567453 26.01602091 37.59159373 29.90683247 32.13421631 33.08737183 C29.71675936 34.12111865 28.03582128 34.24177428 25.41503906 34.22705078 C24.51440735 34.22689972 23.61377563 34.22674866 22.68585205 34.22659302 C21.72217712 34.21627045 20.7585022 34.20594788 19.765625 34.1953125 C18.27588165 34.19106766 18.27588165 34.19106766 16.75604248 34.18673706 C13.58723856 34.17555143 10.41871835 34.15044962 7.25 34.125 C5.1002645 34.11496812 2.95052457 34.10584263 0.80078125 34.09765625 C-4.46624246 34.07561741 -9.73310096 34.04215584 -15 34 C-12.87063731 32.36237573 -10.88489817 30.93957154 -8.5 29.6875 C-4.52446552 27.00401423 -2.49942723 23.49828169 -1 19 C-0.85426942 17.52034074 -0.75336732 16.03596157 -0.68359375 14.55078125 C-0.64548584 13.78677002 -0.60737793 13.02275879 -0.56811523 12.2355957 C-0.52501221 11.27097412 -0.48190918 10.30635254 -0.4375 9.3125 C-0.35974561 7.65127224 -0.28168228 5.99005893 -0.20336914 4.32885742 C-0.16498428 3.51180832 -0.12659943 2.69475922 -0.08705139 1.85295105 C-0.04396095 0.93574028 -0.04396095 0.93574028 0 0 Z " fill="#C8EFFD" transform="translate(468,385)"/>
<path d="M0 0 C3.6600605 2.45882838 6.66203232 5.55869757 9.79418945 8.64379883 C10.49995117 9.30831055 11.20571289 9.97282227 11.93286133 10.6574707 C12.59479492 11.3090918 13.25672852 11.96071289 13.9387207 12.63208008 C14.5469165 13.22158447 15.1551123 13.81108887 15.78173828 14.41845703 C16.98168945 16.33129883 16.98168945 16.33129883 16.93334961 18.7722168 C15.75266152 21.94717128 14.20374043 23.59559446 11.7980957 25.97583008 C10.95311523 26.81694336 10.10813477 27.65805664 9.23754883 28.5246582 C8.34874023 29.38897461 7.45993164 30.25329102 6.54418945 31.14379883 C5.65924805 32.02745117 4.77430664 32.91110352 3.86254883 33.8215332 C-2.73770003 40.33129883 -2.73770003 40.33129883 -5.01831055 40.33129883 C-6.39331055 38.93286133 -6.39331055 38.93286133 -8.01831055 36.95629883 C-15.1260183 28.06327668 -15.1260183 28.06327668 -24.01831055 21.33129883 C-22.60820062 18.13841339 -20.92147106 15.97757446 -18.46362305 13.51098633 C-17.76624023 12.81102539 -17.06885742 12.11106445 -16.3503418 11.38989258 C-15.62202148 10.66930664 -14.89370117 9.9487207 -14.14331055 9.20629883 C-13.42272461 8.47797852 -12.70213867 7.7496582 -11.9597168 6.99926758 C-11.25975586 6.30188477 -10.55979492 5.60450195 -9.83862305 4.88598633 C-9.2019873 4.25160645 -8.56535156 3.61722656 -7.90942383 2.96362305 C-3.23442959 -1.07162243 -3.23442959 -1.07162243 0 0 Z " fill="#FAE3C2" transform="translate(429.018310546875,165.668701171875)"/>
<path d="M0 0 C12.21 0 24.42 0 37 0 C28.90144231 16.19711538 28.90144231 16.19711538 24.75 23.125 C24.32976562 23.83914063 23.90953125 24.55328125 23.4765625 25.2890625 C21.47344758 28.66538199 19.45384628 31.92472512 17 35 C10.05720467 32.10716861 5.81487679 24.50409886 2.77734375 17.89453125 C0.11725699 11.41140522 0 7.34419494 0 0 Z " fill="#FEB237" transform="translate(251,308)"/>
<path d="M0 0 C12.21 0 24.42 0 37 0 C35.68757101 14.43671885 32.42547184 24.57452816 22 35 C21.01 35 20.02 35 19 35 C18.60208252 34.28457031 18.20416504 33.56914062 17.79418945 32.83203125 C16.29551702 30.13986267 14.79497195 27.44874861 13.29321289 24.75830078 C12.33273062 23.03627108 11.37435026 21.31306956 10.41601562 19.58984375 C7.72060188 14.76350081 5.02619207 9.96780158 2.04296875 5.3125 C0 2 0 2 0 0 Z " fill="#FEB237" transform="translate(307,308)"/>
<path d="M0 0 C4.26749834 3.64226021 6.51886845 8.19437 9.125 13.0625 C10.00158305 14.67893958 10.87914805 16.29484713 11.7578125 17.91015625 C12.1408252 18.62308838 12.52383789 19.33602051 12.91845703 20.07055664 C13.86597175 21.76089723 14.92510674 23.38766011 16 25 C16 25.99 16 26.98 16 28 C10.58368482 30.24861849 5.69821202 30.30056953 -0.0625 30.25 C-1.38991211 30.26160156 -1.38991211 30.26160156 -2.74414062 30.2734375 C-7.26070007 30.25988443 -10.90417154 30.14583944 -15 28 C-14.41392179 24.00352188 -13.16462657 21.18875738 -11.09375 17.734375 C-10.51496094 16.76242187 -9.93617188 15.79046875 -9.33984375 14.7890625 C-8.73269531 13.78617187 -8.12554687 12.78328125 -7.5 11.75 C-6.89285156 10.73164063 -6.28570312 9.71328125 -5.66015625 8.6640625 C-1.17924626 1.17924626 -1.17924626 1.17924626 0 0 Z " fill="#FEB237" transform="translate(297,324)"/>
<path d="M0 0 C3.72433382 1.2125738 7.37802806 2.50859979 11 4 C11 4.33 11 4.66 11 5 C5.62694301 5.44041451 5.62694301 5.44041451 3 5 C1 2.5 1 2.5 0 0 Z " fill="#9F5528" transform="translate(295,302)"/>
</svg>
