<?xml version="1.0" encoding="UTF-8"?>
<svg version="1.1" xmlns="http://www.w3.org/2000/svg" width="512" height="512">
<path d="M0 0 C2.1123799 1.938163 4.27341822 3.79617021 6.4609375 5.6484375 C10.47002731 9.16336514 13.88455411 12.97642949 17.2734375 17.0859375 C17.71204102 17.60687988 18.15064453 18.12782227 18.60253906 18.66455078 C40.3047695 44.49673745 51.96769923 72.60315152 55.2734375 106.0859375 C55.35428589 106.87669678 55.43513428 107.66745605 55.51843262 108.48217773 C56.99533704 123.11652939 57.67836482 137.62907707 57.6484375 152.3359375 C57.64762177 153.86367294 57.64762177 153.86367294 57.64678955 155.42227173 C57.60726853 171.5941149 56.91813944 187.26129411 53.2734375 203.0859375 C53.06976563 203.97587402 52.86609375 204.86581055 52.65625 205.78271484 C43.09898116 245.46455405 16.48694645 277.50454239 -17.62402344 298.91381836 C-58.05945009 323.38509081 -108.79645535 331.12633381 -154.7265625 320.3984375 C-164.6076805 317.93837046 -173.66250872 314.68975189 -182.7265625 310.0859375 C-183.37931152 309.76818359 -184.03206055 309.45042969 -184.70458984 309.12304688 C-202.29342506 300.55878329 -218.5223829 289.34939101 -233.7265625 277.0859375 C-234.67660156 276.32796875 -235.62664062 275.57 -236.60546875 274.7890625 C-242.02145689 270.42011518 -247.25301699 265.88730813 -252.39453125 261.19921875 C-254.47690986 259.31217213 -256.59159314 257.47535517 -258.7265625 255.6484375 C-262.78052625 252.12573916 -266.51334833 248.31209755 -270.2890625 244.49609375 C-272.99339814 241.82209521 -275.79464728 239.31797876 -278.6875 236.8515625 C-280.1344245 235.59867002 -281.55389781 234.31375788 -282.953125 233.0078125 C-307.6502758 210.00004335 -334.76319023 200.99962679 -368.1015625 199.1484375 C-393.48505716 197.7325433 -418.89775784 193.50015597 -437.1875 174.15625 C-445.23878987 164.42038256 -449.89753499 153.33957411 -452.7265625 141.0859375 C-452.91347656 140.28575195 -453.10039062 139.48556641 -453.29296875 138.66113281 C-455.13269961 129.45921657 -455.02944166 120.2507785 -454.98730469 110.90771484 C-454.97668928 108.11923937 -454.98719311 105.33142334 -455 102.54296875 C-455.03075593 69.58789808 -455.03075593 69.58789808 -449.6640625 55.8359375 C-449.36097168 55.01931641 -449.05788086 54.20269531 -448.74560547 53.36132812 C-442.07080358 36.06002621 -431.41832022 21.49331672 -418.7265625 8.0859375 C-417.91832031 7.21324219 -417.11007812 6.34054688 -416.27734375 5.44140625 C-404.7728623 -6.57897123 -391.19860393 -15.83016701 -376.7265625 -23.9140625 C-376.03288574 -24.30803223 -375.33920898 -24.70200195 -374.62451172 -25.10791016 C-285.05497903 -75.65229194 -159.27497107 -82.56696873 0 0 Z " fill="#C23B2F" transform="translate(454.7265625,126.9140625)"/>
<path d="M0 0 C2.1123799 1.938163 4.27341822 3.79617021 6.4609375 5.6484375 C10.47002731 9.16336514 13.88455411 12.97642949 17.2734375 17.0859375 C17.71204102 17.60687988 18.15064453 18.12782227 18.60253906 18.66455078 C40.3047695 44.49673745 51.96769923 72.60315152 55.2734375 106.0859375 C55.35428589 106.87669678 55.43513428 107.66745605 55.51843262 108.48217773 C56.99533704 123.11652939 57.67836482 137.62907707 57.6484375 152.3359375 C57.64762177 153.86367294 57.64762177 153.86367294 57.64678955 155.42227173 C57.60726853 171.5941149 56.91813944 187.26129411 53.2734375 203.0859375 C53.06976563 203.97587402 52.86609375 204.86581055 52.65625 205.78271484 C43.09898116 245.46455405 16.48694645 277.50454239 -17.62402344 298.91381836 C-58.05945009 323.38509081 -108.79645535 331.12633381 -154.7265625 320.3984375 C-164.6076805 317.93837046 -173.66250872 314.68975189 -182.7265625 310.0859375 C-183.37931152 309.76818359 -184.03206055 309.45042969 -184.70458984 309.12304688 C-202.29342506 300.55878329 -218.5223829 289.34939101 -233.7265625 277.0859375 C-234.67660156 276.32796875 -235.62664062 275.57 -236.60546875 274.7890625 C-242.02145689 270.42011518 -247.25301699 265.88730813 -252.39453125 261.19921875 C-254.47690986 259.31217213 -256.59159314 257.47535517 -258.7265625 255.6484375 C-262.78052625 252.12573916 -266.51334833 248.31209755 -270.2890625 244.49609375 C-272.99339814 241.82209521 -275.79464728 239.31797876 -278.6875 236.8515625 C-280.1344245 235.59867002 -281.55389781 234.31375788 -282.953125 233.0078125 C-307.6502758 210.00004335 -334.76319023 200.99962679 -368.1015625 199.1484375 C-393.48505716 197.7325433 -418.89775784 193.50015597 -437.1875 174.15625 C-445.23878987 164.42038256 -449.89753499 153.33957411 -452.7265625 141.0859375 C-452.91347656 140.28575195 -453.10039062 139.48556641 -453.29296875 138.66113281 C-455.13269961 129.45921657 -455.02944166 120.2507785 -454.98730469 110.90771484 C-454.97668928 108.11923937 -454.98719311 105.33142334 -455 102.54296875 C-455.03075593 69.58789808 -455.03075593 69.58789808 -449.6640625 55.8359375 C-449.36097168 55.01931641 -449.05788086 54.20269531 -448.74560547 53.36132812 C-442.07080358 36.06002621 -431.41832022 21.49331672 -418.7265625 8.0859375 C-417.91832031 7.21324219 -417.11007812 6.34054688 -416.27734375 5.44140625 C-404.7728623 -6.57897123 -391.19860393 -15.83016701 -376.7265625 -23.9140625 C-376.03288574 -24.30803223 -375.33920898 -24.70200195 -374.62451172 -25.10791016 C-285.05497903 -75.65229194 -159.27497107 -82.56696873 0 0 Z M-289.12060547 -28.56884766 C-291.90966967 -27.86805412 -294.70815178 -27.22222315 -297.51171875 -26.58203125 C-324.14077589 -20.39598654 -352.38725457 -11.14133578 -374.7265625 5.0859375 C-376.19802734 6.11847656 -376.19802734 6.11847656 -377.69921875 7.171875 C-395.78049705 20.39779182 -416.52351027 40.10498543 -422.38671875 62.62109375 C-423.36810206 69.73894284 -423.89164187 76.99137731 -420.1015625 83.34765625 C-410.30372399 95.73412823 -392.69922096 97.85610081 -378.09716797 99.73974609 C-371.16511366 100.45173023 -364.2116204 100.5620574 -357.24951172 100.73461914 C-348.45089062 100.97870663 -340.26934484 101.84711078 -331.7265625 104.0859375 C-330.95296387 104.28316406 -330.17936523 104.48039063 -329.38232422 104.68359375 C-318.11391085 107.61993084 -307.77498664 111.44169333 -297.57617188 117.06689453 C-295.76766909 118.06328981 -293.94465369 119.02721738 -292.1171875 119.98828125 C-280.1435679 126.41464153 -269.90041331 134.88465323 -259.93359375 144.0625 C-258.00525733 145.83042613 -256.03808272 147.52439796 -254.0390625 149.2109375 C-249.19048306 153.41764797 -244.74780215 158.04029776 -240.23364258 162.59814453 C-236.41570274 166.43957201 -232.5440094 170.13074676 -228.40234375 173.625 C-226.64308269 175.15871477 -225.03538674 176.78265808 -223.4140625 178.4609375 C-219.72605063 182.20748924 -215.70655942 185.47392362 -211.609375 188.76171875 C-209.73031216 190.27668133 -207.86969185 191.81489847 -206.03125 193.37890625 C-177.63216769 217.43119025 -143.13556938 223.66685982 -106.85546875 220.734375 C-98.63089503 219.93567253 -90.66204739 218.4040479 -82.7265625 216.0859375 C-81.7159375 215.79847656 -80.7053125 215.51101563 -79.6640625 215.21484375 C-42.30744179 204.18182219 -8.74577145 182.95631266 10.41210938 148.00878906 C22.7418887 124.34923925 27.41247289 99.98549023 19.2734375 74.0859375 C10.61766236 48.33910537 -7.15735223 25.43402941 -28.7265625 9.0859375 C-29.54350586 8.44857666 -29.54350586 8.44857666 -30.37695312 7.79833984 C-40.25368347 0.09703972 -50.60176708 -6.18069425 -61.7265625 -11.9140625 C-62.47389648 -12.30335937 -63.22123047 -12.69265625 -63.99121094 -13.09375 C-77.08789049 -19.84309805 -90.64382168 -24.64509525 -104.7265625 -28.9140625 C-105.55124023 -29.16671875 -106.37591797 -29.419375 -107.22558594 -29.6796875 C-121.13223277 -33.86388546 -135.35196911 -36.01323963 -149.7265625 -37.9140625 C-150.68915985 -38.04696686 -150.68915985 -38.04696686 -151.67120361 -38.18255615 C-162.43705227 -39.65783683 -172.98986026 -40.24438209 -183.8515625 -40.1640625 C-185.00942261 -40.15891129 -185.00942261 -40.15891129 -186.19067383 -40.15365601 C-220.69419468 -39.97606176 -255.60445945 -37.15058971 -289.12060547 -28.56884766 Z " fill="#EAA960" transform="translate(454.7265625,126.9140625)"/>
<path d="M0 0 C1.3136554 -0.0033284 2.62731079 -0.0066568 3.98077393 -0.01008606 C6.7404462 -0.01601276 9.50008746 -0.01793269 12.25976562 -0.01733398 C15.04824316 -0.0172528 17.83655615 -0.02419459 20.625 -0.0378418 C35.76018751 -0.11067646 50.70659611 -0.08818843 65.703125 2.16796875 C66.97478516 2.34497314 68.24644531 2.52197754 69.55664062 2.7043457 C85.35917395 4.97898384 100.61577998 7.930613 115.703125 13.16796875 C116.57308105 13.4604248 117.44303711 13.75288086 118.33935547 14.05419922 C143.8449179 22.6562359 167.5737452 34.38066121 188.703125 51.16796875 C189.96189453 52.12123047 189.96189453 52.12123047 191.24609375 53.09375 C220.24266259 75.68563041 243.06444052 106.90312512 250.703125 143.16796875 C250.87682617 143.85068848 251.05052734 144.5334082 251.22949219 145.23681641 C257.1138242 168.95902024 250.08482417 191.88192195 239.703125 213.16796875 C239.23261719 214.13734375 238.76210938 215.10671875 238.27734375 216.10546875 C219.15275617 253.16945821 183.37499852 276.41621977 144.703125 289.16796875 C128.90275437 293.93253053 112.74578518 295.52237398 96.31152344 295.42871094 C94.07199267 295.41793925 91.83325763 295.42871506 89.59375 295.44140625 C35.67154532 295.49575176 -9.02858961 262.25798282 -46.296875 226.16796875 C-48.0339383 224.42096801 -49.75672261 222.66071741 -51.47827148 220.8984375 C-66.39624473 205.66729674 -82.87361989 193.89562926 -103.296875 187.16796875 C-104.14894531 186.884375 -105.00101562 186.60078125 -105.87890625 186.30859375 C-119.47910636 182.21390985 -133.4151815 181.00082639 -147.546875 180.60546875 C-171.63002899 179.930987 -195.83727011 177.01245108 -214.1328125 159.640625 C-223.51885083 148.91614439 -224.05583953 137.73897741 -223.296875 124.16796875 C-220.16262105 97.77755048 -196.99130255 71.81098326 -177.171875 56.16796875 C-148.5275857 34.59108733 -115.93863346 20.066195 -81.296875 11.16796875 C-80.34554687 10.91563477 -79.39421875 10.66330078 -78.4140625 10.40332031 C-52.67318134 3.60685398 -26.63046144 0.02414356 0 0 Z M-75.69091797 28.51318359 C-78.47998217 29.21397713 -81.27846428 29.8598081 -84.08203125 30.5 C-110.71108839 36.68604471 -138.95756707 45.94069547 -161.296875 62.16796875 C-162.76833984 63.20050781 -162.76833984 63.20050781 -164.26953125 64.25390625 C-182.35080955 77.47982307 -203.09382277 97.18701668 -208.95703125 119.703125 C-209.93841456 126.82097409 -210.46195437 134.07340856 -206.671875 140.4296875 C-196.87403649 152.81615948 -179.26953346 154.93813206 -164.66748047 156.82177734 C-157.73542616 157.53376148 -150.7819329 157.64408865 -143.81982422 157.81665039 C-135.02120312 158.06073788 -126.83965734 158.92914203 -118.296875 161.16796875 C-117.52327637 161.36519531 -116.74967773 161.56242188 -115.95263672 161.765625 C-104.68422335 164.70196209 -94.34529914 168.52372458 -84.14648438 174.14892578 C-82.33798159 175.14532106 -80.51496619 176.10924863 -78.6875 177.0703125 C-66.7138804 183.49667278 -56.47072581 191.96668448 -46.50390625 201.14453125 C-44.57556983 202.91245738 -42.60839522 204.60642921 -40.609375 206.29296875 C-35.76079556 210.49967922 -31.31811465 215.12232901 -26.80395508 219.68017578 C-22.98601524 223.52160326 -19.1143219 227.21277801 -14.97265625 230.70703125 C-13.21339519 232.24074602 -11.60569924 233.86468933 -9.984375 235.54296875 C-6.29636313 239.28952049 -2.27687192 242.55595487 1.8203125 245.84375 C3.69937534 247.35871258 5.55999565 248.89692972 7.3984375 250.4609375 C35.79751981 274.5132215 70.29411812 280.74889107 106.57421875 277.81640625 C114.79879247 277.01770378 122.76764011 275.48607915 130.703125 273.16796875 C131.71375 272.88050781 132.724375 272.59304688 133.765625 272.296875 C171.12224571 261.26385344 204.68391605 240.03834391 223.84179688 205.09082031 C236.1715762 181.4312705 240.84216039 157.06752148 232.703125 131.16796875 C224.04734986 105.42113662 206.27233527 82.51606066 184.703125 66.16796875 C183.88618164 65.53060791 183.88618164 65.53060791 183.05273438 64.88037109 C173.17600403 57.17907097 162.82792042 50.901337 151.703125 45.16796875 C150.95579102 44.77867188 150.20845703 44.389375 149.43847656 43.98828125 C136.34179701 37.2389332 122.78586582 32.436936 108.703125 28.16796875 C107.87844727 27.9153125 107.05376953 27.66265625 106.20410156 27.40234375 C92.29745473 23.21814579 78.07771839 21.06879162 63.703125 19.16796875 C62.74052765 19.03506439 62.74052765 19.03506439 61.75848389 18.8994751 C50.99263523 17.42419442 40.43982724 16.83764916 29.578125 16.91796875 C28.42026489 16.92311996 28.42026489 16.92311996 27.23901367 16.92837524 C-7.26450718 17.10596949 -42.17477195 19.93144154 -75.69091797 28.51318359 Z " fill="#F0F2F5" transform="translate(241.296875,69.83203125)"/>
<path d="M0 0 C8.64522314 3.31029381 17.39632935 5.85940942 26.36865234 8.11254883 C27.34668823 8.37865967 27.34668823 8.37865967 28.34448242 8.65014648 C39.35480604 11.16535007 51.6214946 9.62847365 61.36865234 4.11254883 C65.33445032 1.49387615 69.11723716 -1.34187659 72.86083984 -4.26635742 C77.97888497 -8.1975369 82.61973176 -11.6908941 89.36865234 -10.88745117 C90.89325932 -9.36284419 90.56993754 -7.99828645 90.61083984 -5.87573242 C90.54511522 -0.82987416 89.32375173 3.25921867 87.49365234 7.92504883 C87.18339111 8.7369165 86.87312988 9.54878418 86.5534668 10.38525391 C77.97268282 32.21907025 65.84507838 51.74722393 51.36865234 70.11254883 C50.94036133 70.65943359 50.51207031 71.20631836 50.07080078 71.76977539 C44.12060007 79.29296386 37.53800791 86.16395182 30.80615234 92.98754883 C30.0268335 93.78459229 29.24751465 94.58163574 28.44458008 95.40283203 C13.18008452 110.648133 13.18008452 110.648133 3.61865234 111.30004883 C1.36865234 111.11254883 1.36865234 111.11254883 0.36865234 110.11254883 C-0.71439202 100.14854072 4.45650403 91.69059195 9.36132812 83.38916016 C12.60680673 77.84600431 15.17397292 72.15458124 17.36865234 66.11254883 C17.61486328 65.44223633 17.86107422 64.77192383 18.11474609 64.08129883 C20.57316444 56.07872326 20.87064324 46.42303193 17.43115234 38.73754883 C12.27704854 30.23865128 4.80577953 25.23438569 -4.25634766 21.61254883 C-5.22378906 21.20858887 -6.19123047 20.80462891 -7.18798828 20.38842773 C-10.01571234 19.21308483 -12.85009545 18.0555995 -15.68762207 16.9041748 C-19.27593418 15.44275396 -22.85503644 13.95896326 -26.43603516 12.47973633 C-39.26331031 7.18952838 -52.11021671 1.94746563 -64.96572876 -3.27371216 C-68.58762769 -4.74567664 -72.20798389 -6.22141132 -75.828125 -7.69769287 C-78.40682202 -8.74737948 -80.98779488 -9.7913273 -83.56884766 -10.83520508 C-85.13798195 -11.4747124 -86.70699888 -12.11450782 -88.27587891 -12.75463867 C-88.99479813 -13.04348938 -89.71371735 -13.33234009 -90.454422 -13.62994385 C-93.30456204 -14.7988575 -95.43005802 -15.68616154 -97.63134766 -17.88745117 C-63.93462164 -23.65198149 -30.9933404 -11.97528387 0 0 Z " fill="#F6CDA0" transform="translate(329.63134765625,182.887451171875)"/>
</svg>
