<?xml version="1.0" encoding="UTF-8"?>
<svg version="1.1" xmlns="http://www.w3.org/2000/svg" width="512" height="512">
<path d="M0 0 C8.04346523 6.31326171 12.64976235 13.84758017 14 24 C14.25869 27.83391842 14.27842039 31.53644505 13.55859375 35.3203125 C12.6316166 39.73605916 12.6316166 39.73605916 14.12890625 43.8046875 C15.18537537 44.95382935 16.26597293 46.0811635 17.3671875 47.1875 C21.73268674 52.03341303 23.62334613 58.59688426 24 65 C23.70210994 66.34169684 23.3756739 67.67797201 23 69 C23.969375 69.268125 24.93875 69.53625 25.9375 69.8125 C53.45601713 77.73087447 77.72680441 94.72058471 92 120 C104 141.96914176 104 141.96914176 104 152 C105.27846802 151.97643433 105.27846802 151.97643433 106.58276367 151.95239258 C109.76031226 151.90111038 112.93764913 151.86357518 116.11547852 151.83520508 C117.48794517 151.82016568 118.86036414 151.79972867 120.23266602 151.77368164 C122.21088656 151.73708779 124.18946514 151.72183302 126.16796875 151.70703125 C127.35672607 151.6913208 128.5454834 151.67561035 129.77026367 151.65942383 C134.28948538 152.13597642 136.8335994 153.8335994 140 157 C140.475864 160.24907146 140.37037705 163.53251502 140.375 166.8125 C140.39949219 167.71548828 140.42398438 168.61847656 140.44921875 169.54882812 C140.46811037 173.83407806 140.39915425 176.33162894 138.1640625 180.07421875 C135.27916382 182.64146614 133.66104109 183.03645447 129.8125 182.82421875 C123.75162027 182.60687163 119.71486176 182.49218191 115.0234375 186.6171875 C112.60439225 189.57550477 110.50573285 192.74944482 108.40966797 195.94140625 C105.97626972 199.49499371 103.19124755 202.75536204 100.4375 206.0625 C96.54541699 210.81765952 92.72644598 215.61394684 89 220.5 C85.15670484 225.52198927 81.2658048 230.50152952 77.3125 235.4375 C76.52842773 236.43136719 76.52842773 236.43136719 75.72851562 237.4453125 C67.94164475 247.10299135 59.4096618 253.14528489 47 255 C42.53241109 255.2759095 38.07705595 255.27011895 33.60205078 255.25396729 C32.25601089 255.25627493 30.90997226 255.25945349 29.56393623 255.26342177 C25.88469819 255.27173667 22.2055645 255.26765962 18.52632618 255.26144934 C14.55080792 255.25691227 10.57530722 255.26391482 6.59979248 255.26940918 C-1.18052242 255.27829144 -8.96079869 255.27638637 -16.74111509 255.2705839 C-23.06567419 255.26606282 -29.39022247 255.26545643 -35.71478271 255.26763153 C-36.61573256 255.267938 -37.51668241 255.26824446 -38.44493377 255.26856022 C-40.27533039 255.26919968 -42.105727 255.26984811 -43.93612361 255.2705054 C-61.09028573 255.27620527 -78.24442647 255.26965617 -95.39858508 255.25890467 C-110.11013514 255.24996947 -124.82165363 255.25152161 -139.53320312 255.26074219 C-156.62697176 255.27145086 -173.72072166 255.27565598 -190.81449318 255.26951766 C-192.63806788 255.26888058 -194.46164258 255.26825184 -196.28521729 255.26763153 C-197.18239593 255.26732298 -198.07957458 255.26701443 -199.00394046 255.26669653 C-205.31918023 255.26497138 -211.63440808 255.2678808 -217.949646 255.27259064 C-225.64826525 255.2782061 -233.34684372 255.27666901 -241.04545832 255.26602915 C-244.97162526 255.26078141 -248.89772428 255.25870038 -252.82389069 255.26532745 C-256.42127213 255.27130763 -260.01852298 255.26797785 -263.61589265 255.25737235 C-265.52652582 255.25409676 -267.43716813 255.26059079 -269.34779167 255.26748681 C-283.33079174 255.20395802 -293.04159795 252.38497118 -303.3671875 242.73828125 C-307.85003404 238.0758548 -311.72250261 232.97671251 -315.61767578 227.82177734 C-317.83703648 224.8968622 -320.10529561 222.01091372 -322.375 219.125 C-322.82206299 218.55450928 -323.26912598 217.98401855 -323.72973633 217.39624023 C-326.21357412 214.23551159 -328.7242823 211.09908761 -331.265625 207.984375 C-331.81863281 207.30624756 -332.37164062 206.62812012 -332.94140625 205.92944336 C-334.05838495 204.56642483 -335.18074612 203.20779841 -336.30859375 201.85375977 C-338.84378417 198.78526103 -341.22495764 195.75813733 -343.296875 192.35546875 C-347.16179266 186.01214807 -347.16179266 186.01214807 -353.7109375 183.1484375 C-356.37797653 182.92569933 -358.85434191 182.98181001 -361.546875 183.08984375 C-365.38557478 182.98996808 -367.00186138 182.33488133 -370 180 C-372.83791629 175.74312556 -372.36791418 172.06862918 -372.375 167.0625 C-372.39949219 166.15564453 -372.42398437 165.24878906 -372.44921875 164.31445312 C-372.47855866 157.66896391 -372.47855866 157.66896391 -370.1640625 154.43359375 C-366.22260146 151.82255367 -362.97954242 151.8821854 -358.36328125 151.90234375 C-356.41518555 151.90717773 -356.41518555 151.90717773 -354.42773438 151.91210938 C-353.05598892 151.92046469 -351.68424413 151.92892963 -350.3125 151.9375 C-348.92903805 151.94251665 -347.54557437 151.94707927 -346.16210938 151.95117188 C-342.77469605 151.96297471 -339.38736967 151.97943981 -336 152 C-335.85828369 150.92113525 -335.71656738 149.84227051 -335.57055664 148.73071289 C-332.11737726 126.15132302 -315.22976243 102.52820868 -297.2578125 89.16015625 C-293.88024141 86.71086642 -290.45439678 84.33943298 -287 82 C-287.2165625 81.2265625 -287.433125 80.453125 -287.65625 79.65625 C-290.54672737 68.84372354 -291.48531976 58.89688116 -285.7109375 48.73046875 C-280.19424294 41.01594668 -273.39472019 35.15397082 -264 33 C-250.25628791 31.79131386 -250.25628791 31.79131386 -244.26171875 34.58984375 C-241.27110526 36.16399702 -241.27110526 36.16399702 -238.90625 35.91015625 C-236.26501499 34.64907478 -233.92918766 33.07080907 -231.5 31.4375 C-223.55065182 26.28492635 -214.8174708 23.11002024 -205.97021484 19.83447266 C-203.74337606 18.96344679 -203.74337606 18.96344679 -201 17 C-201.33 16.46375 -201.66 15.9275 -202 15.375 C-203.26498755 12.37065456 -203.34386442 10.23232558 -203 7 C-201.85546875 5.34375 -201.85546875 5.34375 -200 4 C-190.80301569 2.5499073 -182.02162493 4.52871033 -174.0078125 9.1484375 C-171.41770309 10.24696639 -169.72972045 10.05533634 -166.9375 9.75 C-165.87273437 9.64171875 -164.80796875 9.5334375 -163.7109375 9.421875 C-161.78156844 9.2025362 -159.85220089 8.98318412 -157.92285156 8.76367188 C-155.63645838 8.50544872 -153.34963287 8.25158697 -151.0625 8 C-149.86886841 7.86706543 -149.86886841 7.86706543 -148.65112305 7.73144531 C-141.48456486 6.9708953 -134.3205591 6.62207373 -127.11743164 6.4296875 C-122.0746749 6.25689957 -117.86491282 5.44400239 -113 4 C-109.54296875 3.734375 -109.54296875 3.734375 -106.1875 3.75 C-104.50720703 3.74226562 -104.50720703 3.74226562 -102.79296875 3.734375 C-100 4 -100 4 -98 6 C-95.81598698 6.41241504 -93.61091297 6.71540226 -91.40234375 6.96484375 C-90.73993179 7.04277664 -90.07751984 7.12070953 -89.39503479 7.20100403 C-87.97698354 7.36740066 -86.55849908 7.53013849 -85.13964844 7.6895752 C-81.48537072 8.10098529 -77.83445066 8.53986666 -74.18359375 8.98046875 C-73.11297195 9.10912827 -73.11297195 9.10912827 -72.02072144 9.24038696 C-64.28485828 10.18452818 -56.64238314 11.48073106 -49 13 C-48.74476563 12.25878906 -48.48953125 11.51757812 -48.2265625 10.75390625 C-45.28780524 4.15574106 -39.2918389 -0.34487588 -32.859375 -3.30859375 C-22.08202535 -7.31613763 -9.7296889 -5.91496506 0 0 Z " fill="#FFE1B9" transform="translate(372,230)"/>
<path d="M0 0 C8.04346523 6.31326171 12.64976235 13.84758017 14 24 C14.25869 27.83391842 14.27842039 31.53644505 13.55859375 35.3203125 C12.6316166 39.73605916 12.6316166 39.73605916 14.12890625 43.8046875 C15.18537537 44.95382935 16.26597293 46.0811635 17.3671875 47.1875 C21.68047139 51.97545149 23.75584529 58.65197744 24 65 C22.38322338 71.79046179 16.46101283 75.79412851 10.890625 79.44140625 C4.90505848 82.66875901 -1.58708866 84.78105399 -8 87 C-8.01458252 87.9379541 -8.02916504 88.8759082 -8.04418945 89.84228516 C-8.10546717 93.34269379 -8.17965932 96.84234449 -8.26245117 100.34228516 C-8.29557926 101.85324904 -8.32364855 103.36433307 -8.34643555 104.87548828 C-8.38020681 107.05553082 -8.43252896 109.23448439 -8.48828125 111.4140625 C-8.51446533 112.7232666 -8.54064941 114.0324707 -8.56762695 115.38134766 C-9.3551963 121.9727383 -12.21010747 125.6598665 -17.16796875 129.69921875 C-19 131 -19 131 -22.125 132.5 C-25.23035697 133.87854011 -25.23035697 133.87854011 -27.4375 137 C-30.92190401 141.07930226 -34.0859806 142.57146774 -39.390625 143.3515625 C-45.76581035 143.72312238 -50.16930153 142.20318127 -55 138 C-55.66 137.01 -56.32 136.02 -57 135 C-60.70784459 135.42782822 -62.69666646 137.33319881 -65.42578125 139.74609375 C-67 141 -67 141 -70.0625 142.4375 C-73.21909206 143.87215913 -73.21909206 143.87215913 -75.4375 147 C-78.92405661 151.08182237 -82.07411303 152.5196305 -87.35546875 153.38671875 C-93.31062378 153.80219468 -97.07012357 152.36301756 -101.9921875 149.09375 C-108.17685802 142.64436595 -108.43800511 136.58932136 -108.3515625 127.98828125 C-108.30128906 126.01408203 -108.30128906 126.01408203 -108.25 124 C-108.22989985 122.63934927 -108.21165529 121.2786698 -108.1953125 119.91796875 C-108.14841466 116.61167078 -108.07667957 113.30574136 -108 110 C-112.29 110 -116.58 110 -121 110 C-121.20625 111.32 -121.4125 112.64 -121.625 114 C-123.28533011 121.29400194 -127.27894259 126.02994002 -133.3125 130.3125 C-141.89718997 135.55473164 -149.9391574 137.10118675 -160 136 C-168.86224203 133.68811077 -176.62605087 127.65407764 -181.5 120 C-183.75415353 115.92757899 -184.79849405 112.63463693 -185 108 C-186.29421875 108.02449219 -187.5884375 108.04898438 -188.921875 108.07421875 C-193.78541449 108.06947291 -198.44965683 107.55815136 -203.25 106.8125 C-204.09900879 106.68302979 -204.94801758 106.55355957 -205.82275391 106.42016602 C-216.7568269 104.66715431 -227.86834331 102.41302868 -238.37109375 98.859375 C-242.74278923 97.43029178 -246.66474329 97.55491443 -251 99 C-261.07325798 100.10348679 -270.24144327 97.91475437 -278.375 91.6875 C-285.72177303 84.1658038 -289.84689116 76.73821313 -290.375 66 C-289.83836796 55.08848193 -285.55730164 47.13379235 -277.75 39.75 C-268.89000808 32.71581987 -258.99006081 31.7564763 -248 33 C-246.73643814 33.48683247 -245.4887004 34.01703448 -244.26171875 34.58984375 C-241.27110526 36.16399702 -241.27110526 36.16399702 -238.90625 35.91015625 C-236.26501499 34.64907478 -233.92918766 33.07080907 -231.5 31.4375 C-223.55065182 26.28492635 -214.8174708 23.11002024 -205.97021484 19.83447266 C-203.74337606 18.96344679 -203.74337606 18.96344679 -201 17 C-201.495 16.195625 -201.495 16.195625 -202 15.375 C-203.26498755 12.37065456 -203.34386442 10.23232558 -203 7 C-201.85546875 5.34375 -201.85546875 5.34375 -200 4 C-190.80301569 2.5499073 -182.02162493 4.52871033 -174.0078125 9.1484375 C-171.41770309 10.24696639 -169.72972045 10.05533634 -166.9375 9.75 C-165.87273437 9.64171875 -164.80796875 9.5334375 -163.7109375 9.421875 C-161.78156844 9.2025362 -159.85220089 8.98318412 -157.92285156 8.76367188 C-155.63645838 8.50544872 -153.34963287 8.25158697 -151.0625 8 C-149.86886841 7.86706543 -149.86886841 7.86706543 -148.65112305 7.73144531 C-141.48456486 6.9708953 -134.3205591 6.62207373 -127.11743164 6.4296875 C-122.0746749 6.25689957 -117.86491282 5.44400239 -113 4 C-109.54296875 3.734375 -109.54296875 3.734375 -106.1875 3.75 C-104.50720703 3.74226562 -104.50720703 3.74226562 -102.79296875 3.734375 C-100 4 -100 4 -98 6 C-95.81598698 6.41241504 -93.61091297 6.71540226 -91.40234375 6.96484375 C-90.73993179 7.04277664 -90.07751984 7.12070953 -89.39503479 7.20100403 C-87.97698354 7.36740066 -86.55849908 7.53013849 -85.13964844 7.6895752 C-81.48537072 8.10098529 -77.83445066 8.53986666 -74.18359375 8.98046875 C-73.11297195 9.10912827 -73.11297195 9.10912827 -72.02072144 9.24038696 C-64.28485828 10.18452818 -56.64238314 11.48073106 -49 13 C-48.74476563 12.25878906 -48.48953125 11.51757812 -48.2265625 10.75390625 C-45.28780524 4.15574106 -39.2918389 -0.34487588 -32.859375 -3.30859375 C-22.08202535 -7.31613763 -9.7296889 -5.91496506 0 0 Z " fill="#FE624A" transform="translate(372,230)"/>
<path d="M0 0 C1.40378906 -0.02126953 1.40378906 -0.02126953 2.8359375 -0.04296875 C8.23816002 0.40343339 11.57675352 2.71757444 15.625 6.1875 C16.388125 5.383125 17.15125 4.57875 17.9375 3.75 C22.44339623 -0.54631966 26.73007232 -0.08538888 32.671875 -0.03515625 C37.24795212 0.30986544 40.14105557 1.85195001 43.5 4.875 C44.056875 5.5246875 44.056875 5.5246875 44.625 6.1875 C45.3675 5.383125 46.11 4.57875 46.875 3.75 C51.36284642 -0.4318569 55.90983816 -0.15333373 61.859375 -0.09765625 C66.07930496 0.33744952 68.26246552 1.61194167 71.625 4.1875 C74.12111537 7.76996458 73.82889543 11.17714662 73.75 15.4375 C73.73195313 16.70078125 73.71390625 17.9640625 73.6953125 19.265625 C73.67210937 20.22984375 73.64890625 21.1940625 73.625 22.1875 C74.53266113 22.17178955 75.44032227 22.1560791 76.37548828 22.13989258 C79.76373072 22.0885687 83.15155619 22.05105584 86.54003906 22.02270508 C88.00267075 22.00767804 89.46525782 21.98725045 90.92773438 21.96118164 C93.0378728 21.92452733 95.14741226 21.90771324 97.2578125 21.89453125 C99.15877686 21.87096558 99.15877686 21.87096558 101.09814453 21.84692383 C107.46765668 22.46200547 111.56227865 25.37638261 115.625 30.1875 C119.28950928 35.74991474 119.69949117 39.62020845 119.625 46.1875 C121.34835792 46.18058655 121.34835792 46.18058655 123.10653114 46.17353344 C150.38011714 46.06524079 177.65367973 45.98279581 204.92743657 45.93217335 C208.28446981 45.92591983 211.64150259 45.91944822 214.99853516 45.9128418 C215.666859 45.91153024 216.33518285 45.91021869 217.02375893 45.9088674 C227.84474137 45.88711168 238.66559098 45.84768932 249.48649462 45.80173602 C260.59001155 45.75497586 271.6934743 45.72757981 282.79708707 45.71705753 C289.03376827 45.71053322 295.2701482 45.69517565 301.50673294 45.65884972 C307.37541118 45.62494327 313.24366369 45.61443643 319.11243057 45.62196159 C321.26753553 45.62058467 323.42265454 45.61062069 325.57767487 45.59147263 C328.51882996 45.56661871 331.4583748 45.57256732 334.39956665 45.58622742 C335.25366202 45.57166321 336.10775739 45.557099 336.98773444 45.54209346 C341.17692631 45.59473547 343.82025546 45.92195111 347.13908958 48.60007954 C351.47618008 53.11427146 350.93972253 56.99237134 351.0625 63 C351.13114258 64.35448242 351.13114258 64.35448242 351.20117188 65.73632812 C351.31039905 72.19972729 351.31039905 72.19972729 349.43408203 74.90380859 C343.91885616 79.81820883 337.5936303 79.33171635 330.67167664 79.30775452 C329.31769617 79.30903615 329.31769617 79.30903615 327.93636256 79.31034368 C324.91157504 79.31199087 321.88684296 79.30648953 318.86206055 79.30102539 C316.69386293 79.30074333 314.52566521 79.30090162 312.35746765 79.3014679 C306.46951341 79.30175513 300.58157949 79.29587031 294.69362998 79.28889394 C288.54101905 79.28264812 282.38840768 79.28205563 276.23579407 79.28086853 C264.58410284 79.27775885 252.93242098 79.26955033 241.28073388 79.25951904 C228.01605898 79.24834666 214.75138362 79.24284461 201.48670518 79.23782361 C174.19946493 79.22736743 146.91223299 79.20977498 119.625 79.1875 C119.64949219 80.26902344 119.67398438 81.35054688 119.69921875 82.46484375 C119.56043248 89.42607081 116.40430824 94.29704506 111.625 99.1875 C105.77566904 102.79666165 100.11264587 103.31862696 93.3515625 103.28515625 C92.19785156 103.28193359 91.04414063 103.27871094 89.85546875 103.27539062 C88.66566406 103.26701172 87.47585937 103.25863281 86.25 103.25 C85.03699219 103.24548828 83.82398438 103.24097656 82.57421875 103.23632812 C79.59109493 103.22458354 76.60807321 103.2081584 73.625 103.1875 C73.63610306 104.38939972 73.64720612 105.59129944 73.65864563 106.82962036 C73.76002562 118.15909918 73.83496756 129.48848592 73.88406086 140.81831551 C73.91014888 146.64306678 73.94553335 152.46745174 74.00219727 158.29199219 C74.056544 163.91355869 74.08642652 169.53477294 74.09938622 175.15658188 C74.10862121 177.30081604 74.12665514 179.44503103 74.15365028 181.58911514 C74.18997518 184.59385001 74.1949438 187.59713149 74.19262695 190.60205078 C74.21060333 191.48750076 74.22857971 192.37295074 74.24710083 193.28523254 C74.21144106 197.56244601 73.95397162 200.33042612 71.21452332 203.72409058 C67.21764886 207.52631091 64.18032401 207.45791476 58.875 207.5625 C57.81925781 207.61857422 57.81925781 207.61857422 56.7421875 207.67578125 C52.77046454 207.74222271 50.32927063 207.36578494 47.171875 204.8515625 C43.25753828 200.75711827 43.43586237 197.05476882 43.30859375 191.67578125 C43.28781265 190.94755661 43.26703156 190.21933197 43.24562073 189.46903992 C43.18031254 187.14612125 43.12132763 184.82309094 43.0625 182.5 C43.01929695 180.92381665 42.97568208 179.34764452 42.93164062 177.77148438 C42.8246504 173.91027025 42.72333039 170.04894397 42.625 166.1875 C41.84125 166.826875 41.0575 167.46625 40.25 168.125 C35.27472358 172.03414576 30.78847372 171.65507387 24.625 171.1875 C21.00857287 170.36292864 18.39956743 169.11444509 15.96948242 166.20629883 C14.02606037 161.84268639 14.14554101 157.8028797 14.11328125 153.07421875 C14.09533005 152.10466751 14.07737885 151.13511627 14.05888367 150.13618469 C14.00483951 147.04916694 13.97090353 143.9623033 13.9375 140.875 C13.90432176 138.77797338 13.86983163 136.68096707 13.83398438 134.58398438 C13.74911622 129.4519342 13.68227663 124.31992928 13.625 119.1875 C13.026875 119.826875 12.42875 120.46625 11.8125 121.125 C7.65577239 125.04420032 2.99780084 124.46125327 -2.421875 124.40234375 C-6.09641636 124.13501601 -8.41133889 123.39124801 -11.375 121.1875 C-14.11447331 117.69230992 -14.8664457 114.56106702 -15.375 110.1875 C-15.99375 110.826875 -16.6125 111.46625 -17.25 112.125 C-21.29286593 116.04895811 -25.23496364 115.52799785 -30.68798828 115.58349609 C-34.52558512 115.51402475 -37.26198131 115.31478166 -40.25 112.8125 C-43.79252586 108.43643864 -43.53468225 105.03870635 -43.55200195 99.59448242 C-43.56185875 98.2600988 -43.56185875 98.2600988 -43.57191467 96.89875793 C-43.59166937 93.94682741 -43.60331486 90.99494779 -43.61328125 88.04296875 C-43.61735678 87.03604792 -43.6214323 86.02912708 -43.62563133 84.9916935 C-43.64650095 79.6626773 -43.66079903 74.33368692 -43.67016602 69.00463867 C-43.68123469 63.49639836 -43.71563747 57.98856156 -43.75533772 52.48046398 C-43.78146488 48.24855287 -43.78985437 44.01673848 -43.79344749 39.7847538 C-43.79832324 37.75415635 -43.8099652 35.7235635 -43.82848549 33.69304466 C-43.85279473 30.85127024 -43.85192696 28.01054741 -43.8449707 25.16870117 C-43.85778076 24.3295517 -43.87059082 23.49040222 -43.88378906 22.62582397 C-43.8481562 18.63300548 -43.67572368 16.66408603 -41.49430847 13.20698547 C-36.68820693 8.62725941 -31.59609298 8.82443139 -25.265625 8.92578125 C-21.7302257 9.24587821 -19.27981214 10.14628066 -16.375 12.1875 C-16.045 12.8475 -15.715 13.5075 -15.375 14.1875 C-15.148125 12.970625 -14.92125 11.75375 -14.6875 10.5 C-13.62427123 6.21670697 -11.85325152 3.9870683 -8.375 1.1875 C-5.33978606 0.17576202 -3.17766921 0.02176486 0 0 Z " fill="#FED75A" transform="translate(161.375,26.8125)"/>
<path d="M0 0 C131.01 0 262.02 0 397 0 C395.56177909 2.87644183 394.5164879 4.78571205 392.56640625 7.1796875 C392.08792236 7.77168945 391.60943848 8.36369141 391.11645508 8.97363281 C390.6036499 9.60108398 390.09084473 10.22853516 389.5625 10.875 C388.47337572 12.22088291 387.38484738 13.56724826 386.296875 14.9140625 C385.74580078 15.59500977 385.19472656 16.27595703 384.62695312 16.97753906 C382.1591444 20.04526527 379.73634301 23.14751551 377.3125 26.25 C375.97038293 27.95884583 374.62661677 29.66637362 373.28173828 31.37304688 C372.03900151 32.95049408 370.79875668 34.52990349 369.55859375 36.109375 C360.98700682 46.84198808 352.85516956 53.84049272 339 56 C335.12037865 56.26895344 331.2563934 56.27462288 327.36857605 56.26069641 C326.22595836 56.26452196 325.08334066 56.26834751 323.90609819 56.27228898 C320.09254351 56.282575 316.27914064 56.27863513 312.46557617 56.2746582 C309.72512886 56.27791505 306.98468989 56.28412676 304.24424744 56.29014587 C297.58187938 56.302869 290.91955167 56.30468952 284.2571735 56.30234561 C278.83891284 56.30055948 273.42066438 56.30231841 268.00240517 56.30657005 C267.2299881 56.30716524 266.45757104 56.30776043 265.6617474 56.30837366 C264.09234998 56.30958546 262.52295256 56.3107996 260.95355514 56.31201603 C246.24862566 56.32288255 231.54371914 56.32073339 216.83878837 56.31463119 C203.40352986 56.30946382 189.9683439 56.32071429 176.53309973 56.33972941 C162.71947842 56.35912931 148.90589139 56.36735997 135.09225637 56.36360615 C127.34432386 56.36169725 119.59645308 56.36415127 111.84853172 56.37832069 C105.25194047 56.390263 98.65544891 56.39160763 92.05885621 56.37953053 C88.69728327 56.37366144 85.33604103 56.37412972 81.97445679 56.38453293 C78.32026231 56.39502361 74.66655231 56.3868804 71.01237488 56.3742218 C69.43981636 56.38528323 69.43981636 56.38528323 67.83548898 56.39656812 C54.82473189 56.30221043 43.20440634 53.04785523 33.5625 44 C28.82355937 38.95030917 24.67590568 33.3610903 20.45263672 27.88037109 C18.09056978 24.82278461 15.70086931 21.78705192 13.3125 18.75 C12.85931396 18.17145264 12.40612793 17.59290527 11.93920898 16.99682617 C8.4740428 12.57844062 4.93972081 8.21962198 1.36328125 3.890625 C0 2 0 2 0 0 Z " fill="#FEEACE" transform="translate(80,429)"/>
<path d="M0 0 C33.4 0 33.4 0 39.625 5.1875 C44.92356419 11.46211549 46.09150843 15.93243243 46 24 C47.72335792 23.99308655 47.72335792 23.99308655 49.48153114 23.98603344 C76.75511714 23.87774079 104.02867973 23.79529581 131.30243657 23.74467335 C134.65946981 23.73841983 138.01650259 23.73194822 141.37353516 23.7253418 C142.041859 23.72403024 142.71018285 23.72271869 143.39875893 23.7213674 C154.21974137 23.69961168 165.04059098 23.66018932 175.86149462 23.61423602 C186.96501155 23.56747586 198.0684743 23.54007981 209.17208707 23.52955753 C215.40876827 23.52303322 221.6451482 23.50767565 227.88173294 23.47134972 C233.75041118 23.43744327 239.61866369 23.42693643 245.48743057 23.43446159 C247.64253553 23.43308467 249.79765454 23.42312069 251.95267487 23.40397263 C254.89382996 23.37911871 257.8333748 23.38506732 260.77456665 23.39872742 C261.62866202 23.38416321 262.48275739 23.369599 263.36273444 23.35459346 C267.55192631 23.40723547 270.19525546 23.73445111 273.51408958 26.41257954 C277.85118008 30.92677146 277.31472253 34.80487134 277.4375 40.8125 C277.48326172 41.71548828 277.52902344 42.61847656 277.57617188 43.54882812 C277.68539905 50.01222729 277.68539905 50.01222729 275.80908203 52.71630859 C270.29385616 57.63070883 263.9686303 57.14421635 257.04667664 57.12025452 C255.69269617 57.12153615 255.69269617 57.12153615 254.31136256 57.12284368 C251.28657504 57.12449087 248.26184296 57.11898953 245.23706055 57.11352539 C243.06886293 57.11324333 240.90066521 57.11340162 238.73246765 57.1139679 C232.84451341 57.11425513 226.95657949 57.10837031 221.06862998 57.10139394 C214.91601905 57.09514812 208.76340768 57.09455563 202.61079407 57.09336853 C190.95910284 57.09025885 179.30742098 57.08205033 167.65573388 57.07201904 C154.39105898 57.06084666 141.12638362 57.05534461 127.86170518 57.05032361 C100.57446493 57.03986743 73.28723299 57.02227498 46 57 C46.03673828 58.62228516 46.03673828 58.62228516 46.07421875 60.27734375 C45.93543248 67.23857081 42.77930824 72.10954506 38 77 C26.75463029 83.93863237 12.50337955 81 0 81 C0 54.27 0 27.54 0 0 Z " fill="#DA9B2D" transform="translate(235,49)"/>
<path d="M0 0 C3 1 3 1 4.625 3.6875 C8.30655559 9.53302338 15.32218688 13.33598139 21.75 15.5390625 C27.35544543 16.68740028 33.56123205 16.81292265 39 15 C42.94108543 14.68471317 46.12566862 14.91723581 49.8125 16.25 C66.51284475 22.16875779 84.52155509 23.76626408 102 26 C102.2575708 26.74403076 102.5151416 27.48806152 102.78051758 28.25463867 C103.12751709 29.2366626 103.4745166 30.21868652 103.83203125 31.23046875 C104.17210205 32.20137451 104.51217285 33.17228027 104.86254883 34.17260742 C108.03084937 42.0481362 113.55161567 47.1020122 121 51 C130.16487681 54.6115304 139.55052935 53.94156774 148.5625 50.1953125 C155.77597394 46.65793586 160.95688833 42.14470288 163.97265625 34.55078125 C164.70363606 32.38504108 165.35868731 30.19396445 166 28 C170.29 28 174.58 28 179 28 C179.03867187 31.0009375 179.03867187 31.0009375 179.078125 34.0625 C179.1198858 36.02525751 179.16178835 37.98801458 179.20751953 39.95068359 C179.24923272 41.9629854 179.27128531 43.97566395 179.29296875 45.98828125 C179.47848035 53.37164311 179.7803868 58.82658703 184 65 C186.02386069 66.8810068 186.02386069 66.8810068 188.25 67.9375 C189.50614401 68.61370891 190.75823305 69.29773859 192 70 C192 70.33 192 70.66 192 71 C112.47 71 32.94 71 -49 71 C-48.27655793 65.21246348 -47.4779859 60.67241531 -45.4375 55.375 C-45.17356445 54.68623779 -44.90962891 53.99747559 -44.63769531 53.2878418 C-36.86583276 33.71218221 -23.53056601 16.73258232 -6.5625 4.3125 C-5.95889648 3.86559814 -5.35529297 3.41869629 -4.73339844 2.95825195 C-3.00390625 1.73828125 -3.00390625 1.73828125 0 0 Z " fill="#FEDF74" transform="translate(85,312)"/>
<path d="M0 0 C7.12177756 0.35042031 12.93433028 1.73582297 19.4375 4.625 C20.67790039 5.16459351 20.67790039 5.16459351 21.94335938 5.71508789 C49.32082344 17.90879566 68.67005096 40.47030103 79.60546875 67.94921875 C81.60322524 73.30454917 83 77.22966495 83 83 C20.63 83 -41.74 83 -106 83 C-104.04297985 81.6953199 -102.06417543 80.42257633 -100.0625 79.1875 C-96.95253221 77.19907408 -96.95253221 77.19907408 -95.125 74.5 C-92.63401953 71.56943474 -90.33961613 70.54280803 -86.890625 68.984375 C-84.7707715 68.00628261 -84.7707715 68.00628261 -82.75 65.6875 C-81 64 -81 64 -79.0625 63.9375 C-76.16127722 65.43206931 -74.26871369 67.67456847 -72 70 C-67.51608252 72.75642927 -63.1088693 72.48956707 -58 72 C-52.42234736 70.41966509 -50.02906191 68.07591335 -46.6015625 63.6953125 C-44.35761255 61.32000938 -41.84656649 60.34152955 -38.8984375 59.03125 C-34.84664816 56.83027801 -32.44654886 53.33964659 -31 49 C-30.84730819 46.56219623 -30.74317303 44.14716099 -30.68359375 41.70703125 C-30.6524221 40.64798836 -30.6524221 40.64798836 -30.62062073 39.56755066 C-30.55532509 37.31596449 -30.49633353 35.06426338 -30.4375 32.8125 C-30.39429575 31.2844934 -30.35068084 29.75649836 -30.30664062 28.22851562 C-30.19966426 24.48579438 -30.09834078 20.7429577 -30 17 C-29.20916016 16.67604248 -28.41832031 16.35208496 -27.60351562 16.01831055 C-22.14681632 13.76704708 -16.75377948 11.50434031 -11.5 8.8125 C-10.5409375 8.32394531 -9.581875 7.83539063 -8.59375 7.33203125 C-7.7378125 6.89246094 -6.881875 6.45289063 -6 6 C-5.2678125 5.69449219 -4.535625 5.38898438 -3.78125 5.07421875 C-1.54258197 3.72414483 -1.07316575 2.3341355 0 0 Z " fill="#FFDE74" transform="translate(393,300)"/>
<path d="M0 0 C33.4 0 33.4 0 39.625 5.1875 C45.45805716 12.09506769 46.59754721 18.124396 46.49609375 27.03515625 C46.49754898 28.07264511 46.49900421 29.11013397 46.50050354 30.17906189 C46.49885105 32.36167219 46.48736314 34.54429493 46.46655273 36.72680664 C46.43755655 40.05600738 46.44596693 43.38361732 46.45898438 46.71289062 C46.45274725 48.84115352 46.44435651 50.96941143 46.43359375 53.09765625 C46.43652939 54.08637222 46.43946503 55.0750882 46.44248962 56.09376526 C46.32378373 64.84072615 44.28092632 70.57300562 38 77 C26.75463029 83.93863237 12.50337955 81 0 81 C0 54.27 0 27.54 0 0 Z " fill="#DB9B2E" transform="translate(235,49)"/>
<path d="M0 0 C1.81884884 2.89799069 2.25279529 5.10863463 2.26742554 8.5027771 C2.27595551 9.39991928 2.28448547 10.29706146 2.29327393 11.22138977 C2.29236755 12.19811142 2.29146118 13.17483307 2.29052734 14.18115234 C2.30060318 15.73301994 2.30060318 15.73301994 2.31088257 17.3162384 C2.32989508 20.73952016 2.3337884 24.16260621 2.3359375 27.5859375 C2.34236305 29.96481406 2.34909123 32.34368982 2.35610962 34.7225647 C2.36809046 39.71089511 2.3717896 44.69915622 2.37060547 49.6875 C2.37040221 56.07893573 2.39770802 62.46992714 2.43214989 68.86125755 C2.45438882 73.77519776 2.45844393 78.68903052 2.45738602 83.6030159 C2.45974636 85.95933184 2.46859416 88.31565054 2.48405075 90.67191696 C2.50364955 93.9682806 2.49789604 97.26367937 2.48583984 100.56005859 C2.49707886 101.53273178 2.50831787 102.50540497 2.51989746 103.5075531 C2.46730439 109.16736934 1.87256 112.56127978 -2 117 C-5.68703143 119.45802095 -8.60174091 119.40285195 -12.875 119.4375 C-13.58269531 119.47037109 -14.29039062 119.50324219 -15.01953125 119.53710938 C-19.10415326 119.57894442 -20.77465202 119.18858697 -23.9453125 116.53515625 C-24.62335938 115.69855469 -25.30140625 114.86195313 -26 114 C-26.33 113.67 -26.66 113.34 -27 113 C-27.10637046 111.56949902 -27.14404607 110.13381833 -27.15390015 108.69940186 C-27.16250061 107.77128189 -27.17110107 106.84316193 -27.17996216 105.88691711 C-27.18422211 104.86043564 -27.18848206 103.83395416 -27.19287109 102.77636719 C-27.20104858 101.70160629 -27.20922607 100.6268454 -27.21765137 99.51951599 C-27.24256384 95.9453081 -27.25903666 92.37114008 -27.2734375 88.796875 C-27.27876118 87.57941841 -27.28408485 86.36196182 -27.28956985 85.10761261 C-27.31632734 78.66338225 -27.33569361 72.21917143 -27.35009766 65.77490234 C-27.36551953 59.10857536 -27.41152297 52.44281003 -27.4624691 45.77665329 C-27.49608168 40.66031305 -27.50766864 35.54409088 -27.51332474 30.42765045 C-27.52005415 27.97000606 -27.53531967 25.51236989 -27.55921555 23.05483246 C-27.59073891 19.6165463 -27.59092239 16.17960292 -27.58349609 12.74121094 C-27.59990143 11.72282639 -27.61630676 10.70444183 -27.63320923 9.65519714 C-27.59113638 4.90394511 -27.56812772 2.7350973 -24.58731079 -1.12176514 C-17.29282756 -6.41712925 -6.92705586 -5.30583002 0 0 Z " fill="#FEDE73" transform="translate(233,31)"/>
<path d="M0 0 C7.98237635 4.85272218 13.61165257 11.90837501 15.91015625 20.9921875 C17.89353015 31.53444516 16.37985949 39.79552822 10.47265625 48.8046875 C5.11344121 56.04018956 -1.36049178 60.99554334 -10.33984375 62.6171875 C-18.84787539 63.41666611 -25.98542858 63.18346848 -33.33984375 58.6171875 C-34.03722656 58.19308594 -34.73460937 57.76898438 -35.453125 57.33203125 C-42.54287593 52.53877215 -47.14592931 45.88425602 -49.33984375 37.6171875 C-50.52062352 27.24263024 -50.01896198 18.0968778 -43.796875 9.48046875 C-32.89246186 -4.019045 -15.74568035 -7.5019796 0 0 Z " fill="#BE6B0D" transform="translate(369.33984375,228.3828125)"/>
<path d="M0 0 C0.93005859 0.61681641 0.93005859 0.61681641 1.87890625 1.24609375 C2.79349609 1.84744141 2.79349609 1.84744141 3.7265625 2.4609375 C9.75929261 7.03520539 14.4950765 14.0946045 16.87890625 21.24609375 C17.56256308 32.94714332 17.3313199 42.90060202 9.671875 52.39453125 C2.6913012 59.60322838 -6.00544646 63.2548573 -15.93359375 63.74609375 C-25.10231853 63.50018925 -33.7195129 59.80009319 -40.12109375 53.24609375 C-46.21010723 46.67597303 -49.05522538 39.21041736 -49.49609375 30.24609375 C-48.95946171 19.33457568 -44.67839539 11.3798861 -36.87109375 3.99609375 C-26.93800807 -3.89004369 -11.41841894 -6.26171361 0 0 Z " fill="#BF6B0D" transform="translate(131.12109375,265.75390625)"/>
<path d="M0 0 C8.27596743 -0.52881581 15.57830977 2.27217241 22.15625 7.23046875 C28.75240329 13.3335541 32.93812188 19.95843077 34.0078125 28.96484375 C34.26256433 36.87011159 33.42170457 43.33860903 29.5703125 50.28125 C29.044375 51.24804688 29.044375 51.24804688 28.5078125 52.234375 C24.19296374 59.12614732 16.78970691 63.55941632 9.0859375 65.80859375 C-1.23893269 67.74851501 -9.02540377 66.31199285 -17.76953125 60.80859375 C-25.51797616 55.35502936 -30.7486844 47.69486736 -32.4296875 38.28125 C-33.45357274 29.00229003 -31.04553651 20.74363576 -25.8046875 13.03125 C-20.3384584 6.35640743 -13.53708083 1.68090049 -4.921875 0.5 C-3.27912213 0.35580853 -1.63813045 0.18962282 0 0 Z " fill="#BF6B0D" transform="translate(218.4296875,299.71875)"/>
<path d="M0 0 C5.28 0 10.56 0 16 0 C16.02578125 1.18078125 16.0515625 2.3615625 16.078125 3.578125 C16.13441397 5.13545323 16.19176114 6.69274347 16.25 8.25 C16.26417969 9.02730469 16.27835937 9.80460937 16.29296875 10.60546875 C16.45392532 14.3718526 16.55296698 16.40270377 18.859375 19.484375 C22.97282371 22.39681679 26.95903099 22.14600382 31.7925415 22.14044189 C32.9956677 22.14489858 32.9956677 22.14489858 34.22309947 22.1494453 C36.91990231 22.15814041 39.6166608 22.15964123 42.31347656 22.16113281 C44.24342443 22.16576044 46.17337138 22.17078502 48.10331726 22.17617798 C53.35344184 22.18930996 58.60355362 22.19574858 63.85369205 22.20018864 C67.13310227 22.20311828 70.41250897 22.2072229 73.69191742 22.21169281 C83.95043333 22.22537029 94.20894124 22.23503553 104.46746564 22.2388947 C116.31294205 22.2433752 128.15830305 22.2609217 140.00374436 22.2898953 C149.15713178 22.31150762 158.31048671 22.32159876 167.46389937 22.32293582 C172.93197421 22.32398423 178.3999406 22.32989978 183.86798859 22.34775543 C189.01273076 22.36422812 194.15728287 22.36639546 199.30204201 22.35761642 C201.1890266 22.3568456 203.07602138 22.3611947 204.96298027 22.37107468 C207.54205432 22.38378513 210.12045435 22.37792236 212.69952393 22.36749268 C213.81564477 22.37957728 213.81564477 22.37957728 214.95431352 22.39190602 C220.73639731 22.33734187 225.50325274 21.17458632 229.9375 17.3125 C230.288125 16.879375 230.63875 16.44625 231 16 C231.90661857 25.58665187 231.90661857 25.58665187 229.83984375 28.80859375 C224.27879169 33.60162328 217.94315711 33.14412817 211.04667664 33.12025452 C209.69269617 33.12153615 209.69269617 33.12153615 208.31136256 33.12284368 C205.28657504 33.12449087 202.26184296 33.11898953 199.23706055 33.11352539 C197.06886293 33.11324333 194.90066521 33.11340162 192.73246765 33.1139679 C186.84451341 33.11425513 180.95657949 33.10837031 175.06862998 33.10139394 C168.91601905 33.09514812 162.76340768 33.09455563 156.61079407 33.09336853 C144.95910284 33.09025885 133.30742098 33.08205033 121.65573388 33.07201904 C108.39105898 33.06084666 95.12638362 33.05534461 81.86170518 33.05032361 C54.57446475 33.03986743 27.28723329 33.02207385 0 33 C0 22.11 0 11.22 0 0 Z " fill="#C06D0E" transform="translate(281,73)"/>
<path d="M0 0 C4.56375721 1.20158255 8.89650196 2.78739525 12.9921875 5.1484375 C15.58229691 6.24696639 17.27027955 6.05533634 20.0625 5.75 C21.65964844 5.58757812 21.65964844 5.58757812 23.2890625 5.421875 C25.21843156 5.2025362 27.14779911 4.98318412 29.07714844 4.76367188 C31.36354162 4.50544872 33.65036713 4.25158697 35.9375 4 C36.73325439 3.91137695 37.52900879 3.82275391 38.34887695 3.73144531 C45.51543514 2.9708953 52.6794409 2.62207373 59.88256836 2.4296875 C64.9237199 2.25695457 69.13894717 1.4560229 74 0 C77.421875 -0.3359375 77.421875 -0.3359375 80.75 -0.375 C82.41289062 -0.41753906 82.41289062 -0.41753906 84.109375 -0.4609375 C87 0 87 0 88.8828125 1.85546875 C90 4 90 4 90.125 6.6875 C85.84565193 19.28780264 72.86450005 26.39464007 61.5625 32.0625 C53.96799376 35.65413637 45.9041996 36.52398998 37.71484375 34.41015625 C35.93723323 33.78425933 35.93723323 33.78425933 34.25 34.9375 C28.88050836 37.47309328 23.59931908 36.05961294 18.1875 34.375 C5.48838816 29.80651448 -9.68893978 21.62212044 -16 9 C-16.45423905 3.66269121 -16.45423905 3.66269121 -14.859375 1.3359375 C-10.73443547 -1.62777955 -4.81612926 -0.49933113 0 0 Z " fill="#CBBF32" transform="translate(185,234)"/>
<path d="M0 0 C7.12177756 0.35042031 12.93433028 1.73582297 19.4375 4.625 C20.67790039 5.16459351 20.67790039 5.16459351 21.94335938 5.71508789 C49.32082344 17.90879566 68.67005096 40.47030103 79.60546875 67.94921875 C81.60322524 73.30454917 83 77.22966495 83 83 C77.06 83 71.12 83 65 83 C64.29875 81.246875 63.5975 79.49375 62.875 77.6875 C53.80718667 56.10711743 38.56677476 38.53217865 16.84667969 29.06103516 C1.69171801 22.95798195 -12.79499291 21.60312465 -29 21 C-29 19.35 -29 17.7 -29 16 C-27.42412109 15.45472656 -27.42412109 15.45472656 -25.81640625 14.8984375 C-18.51364968 12.30534151 -11.85531706 9.80998775 -5.6015625 5.1015625 C-4 4 -4 4 -2 4 C-1.34 2.68 -0.68 1.36 0 0 Z " fill="#FFDE73" transform="translate(393,300)"/>
<path d="M0 0 C2.01916119 0.09214964 4.04124337 0.13000931 6.0625 0.125 C7.10535156 0.12757813 8.14820313 0.13015625 9.22265625 0.1328125 C12.08680628 0.12137157 12.08680628 0.12137157 15 -1 C18.94108543 -1.31528683 22.12566862 -1.08276419 25.8125 0.25 C42.51284475 6.16875779 60.52155509 7.76626408 78 10 C78.3863562 11.11604614 78.3863562 11.11604614 78.78051758 12.25463867 C79.12751709 13.2366626 79.4745166 14.21868652 79.83203125 15.23046875 C80.17210205 16.20137451 80.51217285 17.17228027 80.86254883 18.17260742 C83.98057675 25.92317221 89.49329736 31.38739936 97 35 C98.88913319 35.38832182 100.78567162 35.74208326 102.6875 36.0625 C106.6249462 36.95284949 107.70748778 37.57304466 110.03125 40.96484375 C114 49.43587854 114 49.43587854 114 54 C109.05 54 104.1 54 99 54 C97.6078125 50.9371875 97.6078125 50.9371875 96.1875 47.8125 C87.13386311 29.17136702 71.67390706 18.35580681 52.734375 10.67578125 C34.53329651 4.52968247 12.56760026 6.86890681 -4.5625 15.3125 C-12.31283753 19.5016292 -19.00705972 24.53393286 -25 31 C-25.54269531 31.56074219 -26.08539063 32.12148438 -26.64453125 32.69921875 C-32.5532331 39.04560222 -36.15006727 46.30013455 -40 54 C-44.95 54 -49.9 54 -55 54 C-51.33443839 41.27834498 -44.80127028 30.81436613 -36 21 C-35.44828125 20.36578125 -34.8965625 19.7315625 -34.328125 19.078125 C-27.65347835 11.87479347 -10.09180727 -3.24793797 0 0 Z " fill="#FEC24C" transform="translate(109,328)"/>
<path d="M0 0 C0.33 0.66 0.66 1.32 1 2 C0.195625 2.61875 -0.60875 3.2375 -1.4375 3.875 C-4.03874519 5.74164041 -4.03874519 5.74164041 -5 8 C-5.10229634 9.42842846 -5.14374117 10.86145211 -5.15390015 12.29350281 C-5.16250061 13.19486465 -5.17110107 14.0962265 -5.17996216 15.02490234 C-5.18422211 16.01659424 -5.18848206 17.00828613 -5.19287109 18.0300293 C-5.20104858 19.07246292 -5.20922607 20.11489655 -5.21765137 21.18891907 C-5.24253372 24.65067973 -5.25902973 28.11239928 -5.2734375 31.57421875 C-5.27876118 32.75516428 -5.28408485 33.93610981 -5.28956985 35.15284157 C-5.31631524 41.4048663 -5.33568473 47.65687097 -5.35009766 53.90893555 C-5.36673831 60.36764185 -5.41150802 66.82583719 -5.4624691 73.2843504 C-5.49612592 78.24893276 -5.50767352 83.21339372 -5.51332474 88.17807961 C-5.52004271 90.55871289 -5.53527877 92.93933804 -5.55921555 95.31986046 C-5.59083133 98.65466269 -5.5909084 101.9880853 -5.58349609 105.32299805 C-5.6081041 106.79535416 -5.6081041 106.79535416 -5.63320923 108.29745483 C-5.57390337 114.82415069 -4.2982672 118.05764498 0 123 C-12.57407065 123.76567413 -12.57407065 123.76567413 -16.0078125 121.921875 C-17.3125 120.5625 -17.3125 120.5625 -19 118 C-19.33 117.67 -19.66 117.34 -20 117 C-20.1139912 115.61007219 -20.16008514 114.21449656 -20.17840576 112.82002258 C-20.19253006 111.91859024 -20.20665436 111.0171579 -20.22120667 110.08840942 C-20.23167526 109.09155121 -20.24214386 108.09469299 -20.25292969 107.06762695 C-20.26764816 106.02373306 -20.28236664 104.97983917 -20.29753113 103.90431213 C-20.34463832 100.43234824 -20.38389234 96.96035632 -20.421875 93.48828125 C-20.43573494 92.3051705 -20.44959488 91.12205975 -20.46387482 89.90309715 C-20.53723802 83.63930444 -20.60478803 77.37548057 -20.66748047 71.11157227 C-20.73333373 64.63593345 -20.81794253 58.16068501 -20.9070549 51.68533039 C-20.97218104 46.71230378 -21.0236505 41.7392028 -21.07138824 36.76598167 C-21.09664498 34.37891953 -21.12700795 31.99190577 -21.16255951 29.60497475 C-21.21100612 26.26306396 -21.24017188 22.92150625 -21.26464844 19.5793457 C-21.28321396 18.59260864 -21.30177948 17.60587158 -21.32090759 16.5892334 C-21.3373483 11.29855487 -21.02975929 7.54884992 -18 3 C-12.6491274 -1.11605584 -6.42466261 -0.28068914 0 0 Z " fill="#FFDE73" transform="translate(197,27)"/>
<path d="M0 0 C0 34.98 0 69.96 0 106 C-9 106 -9 106 -12.5 103.625 C-16.55679637 99.36536381 -16.15908091 96.04022999 -16.17700195 90.40698242 C-16.18685875 89.0725988 -16.18685875 89.0725988 -16.19691467 87.71125793 C-16.21666937 84.75932741 -16.22831486 81.80744779 -16.23828125 78.85546875 C-16.24235678 77.84854792 -16.2464323 76.84162708 -16.25063133 75.8041935 C-16.27150095 70.4751773 -16.28579903 65.14618692 -16.29516602 59.81713867 C-16.30623469 54.30889836 -16.34063747 48.80106156 -16.38033772 43.29296398 C-16.40646488 39.06105287 -16.41485437 34.82923848 -16.41844749 30.5972538 C-16.42332324 28.56665635 -16.4349652 26.5360635 -16.45348549 24.50554466 C-16.47779473 21.66377024 -16.47692696 18.82304741 -16.4699707 15.98120117 C-16.48278076 15.1420517 -16.49559082 14.30290222 -16.50878906 13.43832397 C-16.47313381 9.44299629 -16.30227769 7.47779819 -14.11515808 4.02070618 C-9.517042 -0.37208207 -6.52128632 0 0 0 Z " fill="#FFDF74" transform="translate(134,36)"/>
<path d="M0 0 C3 1 3 1 4.625 3.6875 C6.93518881 7.4124556 10.11083053 9.32402651 13.78125 11.60546875 C15.94824542 12.96747115 17.97343984 14.43862752 20 16 C18.71029297 16.58394531 18.71029297 16.58394531 17.39453125 17.1796875 C-6.73557405 28.60004268 -20.27030422 46.00449852 -31 70 C-36.94 70 -42.88 70 -49 70 C-45.51473815 45.60316708 -29.6290339 22.08558446 -10.36328125 7.125 C-9.10118078 6.18101224 -7.83428178 5.24340364 -6.5625 4.3125 C-5.95889648 3.86559814 -5.35529297 3.41869629 -4.73339844 2.95825195 C-3.00390625 1.73828125 -3.00390625 1.73828125 0 0 Z " fill="#FEDE73" transform="translate(85,312)"/>
<path d="M0 0 C1.21300781 0.49628906 2.42601562 0.99257813 3.67578125 1.50390625 C14.89162621 6.59087418 24.54385898 14.39348261 31 25 C31 25.33 31 25.66 31 26 C15.98477007 27.07495396 15.98477007 27.07495396 11.51171875 24.65234375 C10.28292939 23.45512928 9.09248523 22.21742215 7.94140625 20.9453125 C4.08442645 17.08057217 -1.04779157 15.14184637 -6 13 C-6.76699219 12.65710938 -7.53398437 12.31421875 -8.32421875 11.9609375 C-21.99901748 6.85377009 -39.23772349 9.32643907 -52.1875 15.1875 C-55.9006091 17.09375759 -58.20617576 19.24200579 -61 22.3125 C-64.86000384 26.04640571 -67.88677997 26.46876251 -73.04882812 26.55151367 C-76.71352361 26.47641162 -80.34514039 26.28387259 -84 26 C-75.17947036 10.83299172 -60.48386414 1.16135647 -43.8125 -3.60791016 C-28.90764473 -7.29087328 -14.05516287 -5.90443497 0 0 Z " fill="#FFC34C" transform="translate(165,356)"/>
<path d="M0 0 C0.33 1.32 0.66 2.64 1 4 C2.92199219 3.94779297 2.92199219 3.94779297 4.8828125 3.89453125 C15.32228378 3.69505736 24.89729094 4.03285477 35 7 C36.13566406 7.32871094 37.27132812 7.65742188 38.44140625 7.99609375 C64.1402285 16.29437267 81.0789481 34.54654132 93.18725586 58.03051758 C94 60 94 60 95 65 C90.05 65 85.1 65 80 65 C79.319375 63.55625 78.63875 62.1125 77.9375 60.625 C69.02169792 42.76806686 54.98795749 29.52589033 36.03125 22.95703125 C35.0309375 22.64121094 34.030625 22.32539063 33 22 C32.28666504 21.75064697 31.57333008 21.50129395 30.83837891 21.24438477 C24.30637918 19.07722598 18.23078384 18.47268187 11.375 18.3125 C10.37082031 18.27833984 9.36664063 18.24417969 8.33203125 18.20898438 C5.88838546 18.12752952 3.44421503 18.06206851 1 18 C1 21.3 1 24.6 1 28 C0.67 28 0.34 28 0 28 C0 18.76 0 9.52 0 0 Z " fill="#FFC24C" transform="translate(363,317)"/>
<path d="M0 0 C8 1 8 1 10.95956421 2.99267578 C13.75912064 7.11884034 13.70490852 10.23362631 13.64697266 15.1171875 C13.65573425 16.0267218 13.66449585 16.9362561 13.67352295 17.87335205 C13.69549687 20.87438926 13.68097116 23.87394829 13.6640625 26.875 C13.6674312 28.96338178 13.67228428 31.05176165 13.67855835 33.14013672 C13.68592697 37.51483851 13.67522418 41.8890295 13.65185547 46.26367188 C13.62336807 51.86958473 13.63977204 57.47430073 13.66971779 63.08016968 C13.68779081 67.39193734 13.68203263 71.70342152 13.66907883 76.01519775 C13.66574485 78.08205304 13.66983159 80.14893411 13.68147659 82.21575928 C13.69418509 85.10546983 13.67480802 87.99324595 13.64697266 90.8828125 C13.65709381 91.73595032 13.66721497 92.58908813 13.67764282 93.46807861 C13.59981795 97.83194182 13.41197501 99.48707292 10.58456421 103.00732422 C6.2854809 106.32187882 6.11832565 106 0 106 C0 71.02 0 36.04 0 0 Z " fill="#FFD551" transform="translate(134,36)"/>
<path d="M0 0 C0.33 0 0.66 0 1 0 C1.11596607 9.80541753 1.20475187 19.61067131 1.25906086 29.41663551 C1.28512967 33.97022386 1.32047752 38.52334226 1.37719727 43.07666016 C1.43161481 47.47278827 1.46144098 51.86846503 1.47438622 56.26490402 C1.4836087 57.94025145 1.50161856 59.6155748 1.52865028 61.29072952 C1.5650723 63.64178651 1.56994018 65.99099041 1.56762695 68.34228516 C1.58560333 69.03136963 1.60357971 69.7204541 1.62210083 70.43041992 C1.56317407 75.98352235 -0.18398756 78.25964947 -4 82 C-6.9375 83.1875 -6.9375 83.1875 -10 83 C-12.97729804 81.22746907 -15.42768983 79.14462034 -17 76 C-17.09167789 73.90644981 -17.11750933 71.80990823 -17.11352539 69.71435547 C-17.11367142 69.07032776 -17.11381744 68.42630005 -17.1139679 67.76275635 C-17.1132704 65.63086598 -17.10548566 63.49906263 -17.09765625 61.3671875 C-17.09579149 59.89031014 -17.09436786 58.41343216 -17.09336853 56.93655396 C-17.08954792 53.04687801 -17.07972152 49.15723933 -17.06866455 45.26757812 C-17.05844064 41.29948429 -17.05386881 37.33138445 -17.04882812 33.36328125 C-17.03809885 25.57550384 -17.02102789 17.78775714 -17 10 C-16.24219238 9.88390381 -15.48438477 9.76780762 -14.70361328 9.64819336 C-13.71087402 9.48456299 -12.71813477 9.32093262 -11.6953125 9.15234375 C-10.71062988 8.99499756 -9.72594727 8.83765137 -8.71142578 8.67553711 C-4.98341884 7.74672429 -3.24163171 6.06356334 -1 3 C-0.67 2.01 -0.34 1.02 0 0 Z " fill="#FFDE73" transform="translate(234,151)"/>
<path d="M0 0 C0.495 0.99 0.495 0.99 1 2 C1.55236328 1.97381592 2.10472656 1.94763184 2.67382812 1.9206543 C23.47981389 1.06953951 41.36440156 5.15051146 57.73828125 18.9140625 C62.28318606 23.10573636 66.3966292 27.342675 69 33 C53.17950794 34.22877608 53.17950794 34.22877608 48.15234375 31.39453125 C46.720116 30.00909134 45.33182156 28.57672374 43.9921875 27.1015625 C40.61099543 23.53473636 36.50468205 21.81285985 32 20 C30.824375 19.52046875 30.824375 19.52046875 29.625 19.03125 C16.6569138 14.65452091 0.41209135 15.44541768 -12 21 C-17.07355156 23.55110785 -21.2648637 26.14875908 -25.0625 30.375 C-29.28100254 34.32598774 -34.89430867 33.46328104 -40.31079102 33.30615234 C-42.20818807 33.22464724 -44.10434709 33.11514652 -46 33 C-41.67857143 25.34821429 -41.67857143 25.34821429 -39 22 C-38.34 22.33 -37.68 22.66 -37 23 C-30.73632693 23.59544972 -25.51055167 23.28513657 -20 20 C-18.4391872 18.29504881 -17.02568708 16.51545033 -15.6015625 14.6953125 C-13.35761255 12.32000938 -10.84656649 11.34152955 -7.8984375 10.03125 C-3.84664816 7.83027801 -1.44654886 4.33964659 0 0 Z " fill="#FFC34C" transform="translate(362,349)"/>
<path d="M0 0 C0.66 0.33 1.32 0.66 2 1 C1.67773438 1.67675781 1.35546875 2.35351562 1.0234375 3.05078125 C-1.72532342 10.97182894 -0.97622159 21.18960217 2.62109375 28.72265625 C6.88632971 35.76694113 11.94592204 41.05768568 19.66015625 44.1953125 C28.42707316 46.30757552 38.57372831 46.3356783 47 43 C45.59474558 47.47126407 43.44928976 49.8715744 40 53 C38.948125 54.0209375 38.948125 54.0209375 37.875 55.0625 C29.64439055 60.60921506 20.79061351 62.20825637 11 61 C2.14699586 58.66953629 -5.6180652 52.69705849 -10.4375 45 C-14.79167256 36.99121723 -16.50653602 29.14598217 -14.3125 20.1953125 C-11.521577 11.79928581 -7.29677083 5.15066176 0 0 Z " fill="#A66021" transform="translate(201,305)"/>
<path d="M0 0 C0 0.66 0 1.32 0 2 C-0.79664063 2.35191406 -1.59328125 2.70382812 -2.4140625 3.06640625 C-13.14253066 8.06519373 -17.81597228 12.88863143 -22.0859375 23.94921875 C-24.73332318 32.7851513 -22.86780774 41.31034299 -18.78125 49.41796875 C-15.69306071 54.539216 -12.26116656 57.64330007 -7.1484375 60.7109375 C-4.97956201 62.01226279 -2.99906227 63.45321426 -1 65 C-6.10015012 67.55007506 -12.96012761 66.5908765 -18.25 65.05859375 C-27.32260095 61.44089412 -34.06399027 56.5906954 -39 48 C-43.03871196 37.62338425 -43.0296754 28.37717161 -39 18 C-34.47177867 10.02758608 -27.63245906 3.902411 -19.04296875 0.6796875 C-12.79036019 -0.7169157 -6.36478646 -0.28428327 0 0 Z " fill="#A66020" transform="translate(124,263)"/>
<path d="M0 0 C-1 3 -1 3 -2.8125 4.625 C-7.14801428 9.33212979 -9.49220269 15.65253363 -10 22 C-10.08636719 22.78890625 -10.17273438 23.5778125 -10.26171875 24.390625 C-10.85383061 33.60125395 -7.40368987 40.76838557 -1.6875 47.875 C-0.3571875 48.926875 -0.3571875 48.926875 1 50 C1.86625 50.76763672 1.86625 50.76763672 2.75 51.55078125 C9.73757695 57.09584705 17.40836923 57.38857106 26 58 C21.1687502 63.19627756 16.62542948 64.65252812 9.6171875 65.32421875 C2.14640211 65.55818503 -3.61108833 64.96680976 -10 61 C-10.69738281 60.57589844 -11.39476562 60.15179688 -12.11328125 59.71484375 C-19.20303218 54.92158465 -23.80608556 48.26706852 -26 40 C-27.18077977 29.62544274 -26.67911823 20.4796903 -20.45703125 11.86328125 C-15.26161316 5.43142498 -8.51672221 -0.22412427 0 0 Z " fill="#A66020" transform="translate(346,226)"/>
<path d="M0 0 C4.74786917 2.63977795 7.49205526 5.98562381 10.125 10.75 C11.76654678 17.01772408 11.37473227 20.9748486 8.3125 26.625 C5.2112048 31.32393212 2.33423149 34.03008427 -3.1875 35.375 C-8.50055045 36.08542211 -12.6883334 36.09682096 -17.5625 33.75 C-21.96580865 29.76605408 -25.76251527 26.13307928 -26.4609375 19.95703125 C-26.71225195 13.1038794 -25.86463722 8.53933901 -21.1875 3.375 C-14.61671209 -1.75021457 -7.74724201 -3.53614645 0 0 Z " fill="#FF8F78" transform="translate(295.1875,267.625)"/>
<path d="M0 0 C8.58 0 17.16 0 26 0 C26.25 12.4375 26.25 12.4375 26.29785156 16.30249023 C26.55202463 24.88083111 27.81569008 31.43660557 33.625 37.9375 C37.9558718 40.58414388 42.01693047 41.34018645 47 42 C45.37719935 47.31098394 42.53643465 49.55060877 37.8125 52.25 C32.53875446 53.65633215 27.61125634 54.10632667 22.4921875 51.9375 C17.15614649 48.69713186 13.7936264 45.10957579 12 39 C11.53232709 33.98724464 11.62194203 29.02873791 11.75 24 C11.77010015 22.63934927 11.78834471 21.2786698 11.8046875 19.91796875 C11.8515915 16.611237 11.91722275 13.30599584 12 10 C8.04 10 4.08 10 0 10 C0 6.7 0 3.4 0 0 Z " fill="#FE4C34" transform="translate(252,330)"/>
<path d="M0 0 C2.9375 0.625 2.9375 0.625 5.375 2.8125 C6.9375 5.625 6.9375 5.625 6.72265625 8.05859375 C4.44466929 15.50455111 -3.65261266 21.6693488 -10.0625 25.625 C-19.90960718 30.15092694 -28.33774903 31.81884947 -39.0625 31.875 C-40.04734375 31.895625 -41.0321875 31.91625 -42.046875 31.9375 C-51.47932661 31.98848622 -51.47932661 31.98848622 -55.0625 28.625 C-55.69140625 26.6875 -55.69140625 26.6875 -55.625 24.625 C-55.62628906 23.944375 -55.62757813 23.26375 -55.62890625 22.5625 C-55.0625 20.625 -55.0625 20.625 -53.46484375 18.87890625 C-50.18235768 17.16560864 -47.74670901 17.40515357 -44.0625 17.5625 C-30.07339324 17.88047289 -18.49669849 15.33123115 -8.0625 5.625 C-7.2375 4.696875 -6.4125 3.76875 -5.5625 2.8125 C-3.0625 0.625 -3.0625 0.625 0 0 Z " fill="#FCF8DD" transform="translate(435.0625,445.375)"/>
<path d="M0 0 C0.01401855 0.88353149 0.01401855 0.88353149 0.02832031 1.78491211 C0.08263875 4.50323016 0.1661584 7.21993848 0.25 9.9375 C0.26417969 10.86369141 0.27835937 11.78988281 0.29296875 12.74414062 C0.57105233 20.66952266 2.27305446 26.94841808 7.625 32.9375 C11.9558718 35.58414388 16.01693047 36.34018645 21 37 C19.60678155 41.87626457 17.06141704 44.07577973 13 47 C7.78888088 48.69414984 1.80153403 49.13473899 -3.32421875 47.05859375 C-7.47886375 44.60881232 -9.89298532 42.42436311 -12 38 C-12.18505535 35.051282 -12.21400477 32.34978227 -12.07421875 29.41796875 C-12.04777786 28.60378983 -12.02133698 27.7896109 -11.99409485 26.95075989 C-11.9066502 24.36223359 -11.79739322 21.7751608 -11.6875 19.1875 C-11.62420791 17.42778569 -11.56234299 15.66801943 -11.50195312 13.90820312 C-11.35116111 9.60469156 -11.18080829 5.30235075 -11 1 C-7.26718625 0.34339703 -3.79417763 -0.11159346 0 0 Z " fill="#FF4C34" transform="translate(326,325)"/>
<path d="M0 0 C2.109375 0.26953125 2.109375 0.26953125 4.75 0.8125 C6.04164063 1.06966797 6.04164063 1.06966797 7.359375 1.33203125 C10 2 10 2 12.22265625 2.94921875 C16.27581839 4.4826936 20.43856421 5.19128062 24.6875 6 C26.39973958 6.33333333 28.11197917 6.66666667 29.82421875 7 C30.66774902 7.16242188 31.5112793 7.32484375 32.38037109 7.4921875 C36.59088821 8.30839212 40.79512581 9.15525398 45 10 C44.67 14.29 44.34 18.58 44 23 C38.13779774 23.12700324 32.60391211 22.70295135 26.8125 21.8125 C25.9560791 21.68230469 25.0996582 21.55210937 24.21728516 21.41796875 C10.91055361 19.29236996 -2.13321613 15.97371622 -15 12 C-13.05754356 10.70502904 -11.09984893 9.43251346 -9.125 8.1875 C-6.04566666 6.03196666 -3.57744834 3.7247311 -1 1 C-0.67 0.67 -0.34 0.34 0 0 Z " fill="#FE4C34" transform="translate(142,315)"/>
<path d="M0 0 C0.33 0 0.66 0 1 0 C1.1485957 5.32010722 1.25733006 10.63900079 1.32958984 15.96069336 C1.35971777 17.76982672 1.40062963 19.57881454 1.45263672 21.38745117 C1.52563407 23.99173897 1.55949398 26.59409277 1.5859375 29.19921875 C1.61690521 30.00461594 1.64787292 30.81001312 1.67977905 31.63981628 C1.68303913 37.10997782 1.68303913 37.10997782 -0.26800537 39.6522522 C-2.89040171 41.9633525 -4.54091976 42.98126203 -8.0625 43.125 C-11.69527568 41.73372421 -13.52269523 39.97276572 -16 37 C-17.11911712 33.64264863 -17.11365586 31.11794614 -17.09765625 27.58203125 C-17.09443359 26.32841797 -17.09121094 25.07480469 -17.08789062 23.78320312 C-17.07951172 22.47287109 -17.07113281 21.16253906 -17.0625 19.8125 C-17.05748317 18.47721519 -17.05292059 17.14192859 -17.04882812 15.80664062 C-17.03702695 12.53771527 -17.02056297 9.26888009 -17 6 C-16.17072998 5.9575415 -15.34145996 5.91508301 -14.48706055 5.87133789 C-12.85957886 5.76680298 -12.85957886 5.76680298 -11.19921875 5.66015625 C-10.12244873 5.59707275 -9.04567871 5.53398926 -7.9362793 5.46899414 C-3.72372133 4.79614772 -2.48588021 3.34308028 0 0 Z " fill="#FFDE73" transform="translate(204,154)"/>
<path d="M0 0 C7.73193421 2.48526457 13.03524706 6.79195491 17.02734375 13.8046875 C19.55565044 19.42055767 20.09431373 25.96834951 19 32 C16.88466455 34.6320249 15.83372066 35.83325587 12.5 36.5 C9.02337649 35.8046753 8.0081653 34.94052776 6 32 C5.60296899 29.7501576 5.42975468 27.52689261 5.25 25.25 C4.87254619 21.85291568 4.03151835 19.75237971 2 17 C-0.56430969 15.60438013 -3.19774479 14.78929305 -6 14 C-11.83783784 12.16216216 -11.83783784 12.16216216 -14 10 C-14.5642502 3.79324784 -14.5642502 3.79324784 -12.796875 1.30859375 C-9.06846701 -1.4066599 -4.36823949 -0.60034705 0 0 Z " fill="#FEB64A" transform="translate(256,58)"/>
<path d="M0 0 C0.8125 1.625 0.8125 1.625 1 4 C-6.03488134 14.10102773 -20.11208763 22.65426401 -32 26 C-36.67265837 26.67298885 -41.31229728 26.45504664 -46 26 C-46 21.56596299 -45.14306873 20.21341403 -42.234375 17 C-30.27554261 6.29559059 -16.07764802 -0.52332308 0 0 Z " fill="#E9CD32" transform="translate(271,243)"/>
<path d="M0 0 C0.90878906 0.00451172 1.81757813 0.00902344 2.75390625 0.01367188 C4.96101089 0.02528822 7.16796697 0.04161832 9.375 0.0625 C6.28620845 2.50411618 3.06556348 4.40503734 -0.375 6.3125 C-8.46824487 11.01052995 -14.46908572 15.57750835 -18.625 24.0625 C-19.285 24.0625 -19.945 24.0625 -20.625 24.0625 C-21.8515625 22.55859375 -21.8515625 22.55859375 -23.25 20.5 C-27.9843677 13.97581037 -33.92470079 9.41769449 -40.625 5.0625 C-40.625 4.7325 -40.625 4.4025 -40.625 4.0625 C-37.50064509 3.57906634 -34.37540869 3.10156941 -31.25 2.625 C-29.94482422 2.42293945 -29.94482422 2.42293945 -28.61328125 2.21679688 C-19.03110297 0.76172536 -9.69705463 -0.09337904 0 0 Z " fill="#FE634A" transform="translate(241.625,236.9375)"/>
<path d="M0 0 C1.13566406 -0.03738281 2.27132812 -0.07476562 3.44140625 -0.11328125 C6.4375 0.3125 6.4375 0.3125 8.359375 2.12890625 C9.84791146 5.14373191 9.23497734 7.12259063 8.4375 10.3125 C6.66604637 10.3125 4.89318731 10.2793999 3.125 10.171875 C-11.50270232 9.57656153 -24.4525181 17.24621925 -35.45703125 26.34375 C-38.0886554 28.80448946 -39.83204134 31.16621153 -41.5625 34.3125 C-42.5525 33.6525 -43.5425 32.9925 -44.5625 32.3125 C-44.75 29.6875 -44.75 29.6875 -44.5625 27.3125 C-43.9025 27.3125 -43.2425 27.3125 -42.5625 27.3125 C-42.35625 26.631875 -42.15 25.95125 -41.9375 25.25 C-36.45548708 13.53842694 -22.09489396 6.15005851 -10.5625 1.3125 C-7.06610786 0.1763558 -3.66335142 0.07918507 0 0 Z " fill="#CEBF33" transform="translate(265.5625,233.6875)"/>
<path d="M0 0 C0.639375 0.66 1.27875 1.32 1.9375 2 C2.95640221 3.00196755 3.97751582 4.00168802 5 5 C5.59683594 5.60457031 6.19367188 6.20914063 6.80859375 6.83203125 C16.02389107 15.66408369 29.76588411 23.99625707 42.8125 24.25 C45.68794899 24.18714866 48.2296537 23.77196167 51 23 C52.25 29.625 52.25 29.625 50 33 C40.92587203 36.02470932 32.44139595 32.50912937 24.13671875 28.6796875 C14.71230213 23.8008523 3.89930706 16.79861412 -1 7 C-1.125 3.9375 -1.125 3.9375 -1 1 C-0.67 0.67 -0.34 0.34 0 0 Z " fill="#AF9B1A" transform="translate(170,236)"/>
<path d="M0 0 C3.49566856 1.80079896 6.34305537 4.31678877 7.859375 7.99609375 C8.23765295 11.84434448 5.34964483 14.16173095 3.0625 17.0625 C8.0125 17.3925 12.9625 17.7225 18.0625 18.0625 C18.0625 18.3925 18.0625 18.7225 18.0625 19.0625 C3.2125 19.0625 -11.6375 19.0625 -26.9375 19.0625 C-24.98047985 17.7578199 -23.00167543 16.48507633 -21 15.25 C-17.89003221 13.26157408 -17.89003221 13.26157408 -16.0625 10.5625 C-13.57151953 7.63193474 -11.27711613 6.60530803 -7.828125 5.046875 C-5.7082715 4.06878261 -5.7082715 4.06878261 -3.6875 1.75 C-1.9375 0.0625 -1.9375 0.0625 0 0 Z " fill="#FFDB75" transform="translate(313.9375,363.9375)"/>
<path d="M0 0 C4.29 0 8.58 0 13 0 C13 5.94 13 11.88 13 18 C10.81310547 18.19916016 10.81310547 18.19916016 8.58203125 18.40234375 C6.65884132 18.58059062 4.73566494 18.7589837 2.8125 18.9375 C1.85279297 19.02451172 0.89308594 19.11152344 -0.09570312 19.20117188 C-1.02705078 19.28818359 -1.95839844 19.37519531 -2.91796875 19.46484375 C-3.77156982 19.543396 -4.6251709 19.62194824 -5.50463867 19.70288086 C-8.0404426 20.00481544 -10.50359947 20.46631375 -13 21 C-12.61328125 20.55269531 -12.2265625 20.10539062 -11.828125 19.64453125 C-10.74378261 18.38572783 -9.66462459 17.1224457 -8.58984375 15.85546875 C-7.35978535 14.41989691 -6.09325357 13.01553245 -4.8125 11.625 C-2.27847098 7.95502693 -1.27427613 4.26882503 0 0 Z " fill="#FDC34D" transform="translate(251,340)"/>
<path d="M0 0 C0 3.90079996 -1.41793017 5.68416703 -3.4375 9 C-6.07683294 13.33373016 -6.07683294 13.33373016 -8 18 C-12.62 18 -17.24 18 -22 18 C-20.35 16.68 -18.7 15.36 -17 14 C-15.8553125 12.515 -15.8553125 12.515 -14.6875 11 C-12.20281212 7.87055134 -9.46795784 6.56356137 -5.87109375 4.9453125 C-3.43185076 3.71296009 -1.76777722 2.06240676 0 0 Z " fill="#FFC04C" transform="translate(312,364)"/>
<path d="M0 0 C4.29 0 8.58 0 13 0 C13 1.32 13 2.64 13 4 C8.71 4 4.42 4 0 4 C0 2.68 0 1.36 0 0 Z " fill="#FBDE71" transform="translate(251,340)"/>
</svg>
