<?xml version="1.0" encoding="UTF-8"?>
<svg version="1.1" xmlns="http://www.w3.org/2000/svg" width="512" height="512">
<path d="M0 0 C3.4906132 0.00008074 6.98109369 -0.00679348 10.47167969 -0.02050781 C37.85089223 -0.12637153 65.05173645 0.67673238 92.33325195 3.12280273 C93.04318802 3.18441086 93.75312408 3.24601898 94.48457336 3.30949402 C99.77800929 3.88333429 104.74922247 5.1286355 108.82543945 8.72045898 C112.7766679 14.04780492 113.6734679 17.16001057 113.6184082 23.79077148 C112.80962593 28.92093059 110.22500662 32.35557969 107.36450195 36.61108398 C92.94935067 58.4353787 87.24826832 87.17604539 81.08325195 112.18530273 C80.92060852 112.84387268 80.75796509 113.50244263 80.59039307 114.18096924 C69.36703142 159.87100248 63.07370774 206.57608987 57.08325195 253.18530273 C51.98868603 292.77587983 44.09081626 330.71700046 25.08325195 366.18530273 C24.76388672 366.78536133 24.44452148 367.38541992 24.11547852 368.00366211 C-1.20571715 415.14992897 -44.04505533 448.50650004 -94.8112793 464.40014648 C-104.39962282 467.27162787 -114.06105381 469.45758463 -123.91674805 471.18530273 C-124.83311035 471.34901367 -125.74947266 471.51272461 -126.69360352 471.68139648 C-155.954186 476.6531788 -187.67061646 475.89723057 -216.91674805 471.18530273 C-217.983125 471.01369629 -219.04950195 470.84208984 -220.14819336 470.6652832 C-260.37904254 463.95614457 -297.99014801 450.12668215 -334.91674805 433.18530273 C-340.43310292 443.19586437 -344.81025034 453.59751146 -348.91674805 464.24780273 C-349.17470154 464.91586945 -349.43265503 465.58393616 -349.69842529 466.27224731 C-352.34722433 473.15798532 -354.91040319 480.05931548 -357.25268555 487.05639648 C-357.60202148 488.09852295 -357.95135742 489.14064941 -358.3112793 490.21435547 C-358.94231776 492.12648373 -359.55817305 494.04372469 -360.1550293 495.96679688 C-362.22173924 502.29014356 -364.97956515 507.90452438 -370.93041992 511.35180664 C-375.30093263 513.18574597 -380.28915592 512.68776247 -384.91674805 512.18530273 C-389.39545461 510.02592636 -392.09872993 507.25577335 -394.91674805 503.18530273 C-398.44739265 492.59336893 -393.73766457 482.60602899 -390.10424805 472.68530273 C-389.50985946 471.03082199 -388.91586927 469.37619807 -388.32226562 467.72143555 C-382.71684384 452.2146463 -376.67232864 436.84881719 -369.4206543 422.02905273 C-368.8469812 420.85197754 -368.8469812 420.85197754 -368.26171875 419.65112305 C-367.56229776 418.23575072 -366.84741226 416.82784721 -366.11279297 415.43041992 C-363.9586184 411.13676734 -363.87735169 408.80512318 -364.91674805 404.18530273 C-365.52053089 402.39203451 -366.17929165 400.61654323 -366.88549805 398.86108398 C-367.48817505 397.33946655 -367.48817505 397.33946655 -368.10302734 395.78710938 C-368.53655518 394.70163818 -368.97008301 393.61616699 -369.41674805 392.49780273 C-381.39809919 361.8351306 -390.47978922 330.67432245 -395.91674805 298.18530273 C-396.08190918 297.24235352 -396.24707031 296.2994043 -396.41723633 295.32788086 C-401.24253054 266.8850918 -401.68481753 234.47979383 -395.91674805 206.18530273 C-395.7451416 205.31583008 -395.57353516 204.44635742 -395.39672852 203.55053711 C-388.09881501 167.57619314 -372.04785568 135.58590337 -347.1550293 108.61499023 C-345.58687125 106.91273141 -344.04455175 105.18647435 -342.5222168 103.44311523 C-336.80221451 96.9394276 -330.71627805 91.52710557 -323.91674805 86.18530273 C-322.16614922 84.70684483 -320.41615466 83.22767115 -318.66674805 81.74780273 C-306.99823882 72.22788585 -293.97463069 64.61800781 -280.91674805 57.18530273 C-279.78624023 56.53045898 -278.65573242 55.87561523 -277.4909668 55.20092773 C-245.87944628 37.55389667 -210.02540443 26.37820981 -174.91674805 18.18530273 C-173.85278809 17.93087402 -172.78882813 17.67644531 -171.69262695 17.41430664 C-141.2474837 10.19676706 -110.04505517 6.08164419 -78.91674805 3.18530273 C-77.90918457 3.08765625 -76.90162109 2.99000977 -75.86352539 2.8894043 C-72.92362557 2.60494421 -69.98302275 2.33014909 -67.04174805 2.06030273 C-66.23600342 1.98457031 -65.43025879 1.90883789 -64.60009766 1.83081055 C-61.7071988 1.57987123 -58.81433804 1.37542228 -55.91674805 1.18530273 C-55.25593231 1.14186737 -54.59511658 1.09843201 -53.91427612 1.05368042 C-35.95995755 -0.06835605 -17.98126689 -0.00218796 0 0 Z " fill="#6DC82A" transform="translate(398.916748046875,-0.185302734375)"/>
<path d="M0 0 C3.4906132 0.00008074 6.98109369 -0.00679348 10.47167969 -0.02050781 C34.07972282 -0.11178147 57.53437996 0.45499941 81.08325195 2.18530273 C82.75476822 2.29341782 82.75476822 2.29341782 84.46005249 2.40371704 C85.46259064 2.47706268 86.46512878 2.55040833 87.49804688 2.62597656 C88.36628586 2.68610428 89.23452484 2.74623199 90.1290741 2.80818176 C90.77395279 2.93263168 91.41883148 3.0570816 92.08325195 3.18530273 C92.41325195 3.84530273 92.74325195 4.50530273 93.08325195 5.18530273 C92.4183374 5.48484863 91.75342285 5.78439453 91.06835938 6.09301758 C62.36828019 19.08165876 34.30877557 33.32581799 7.08325195 49.18530273 C5.35626675 50.18403817 3.62927705 51.18276588 1.90216064 52.18127441 C-37.08984368 74.74480425 -74.73212888 99.42070145 -111.09814453 126.01367188 C-114.61971022 128.57947192 -118.12427478 131.02559682 -121.91674805 133.18530273 C-122.47573448 122.75088936 -120.25799749 112.38690804 -117.22924805 102.43530273 C-115.61473355 96.78877321 -115.03307126 91.01583682 -115.91674805 85.18530273 C-117.37092428 82.99043739 -117.37092428 82.99043739 -118.91674805 81.18530273 C-118.91674805 80.52530273 -118.91674805 79.86530273 -118.91674805 79.18530273 C-125.23569341 76.62356813 -131.21596198 74.52832067 -137.95581055 76.90405273 C-143.57249091 79.86774791 -145.55507253 83.77511882 -147.41674805 89.59936523 C-151.80227908 104.43662367 -154.99579386 118.58422467 -154.96362305 134.09936523 C-154.97036317 135.71972662 -154.97711789 137.34008795 -154.98388672 138.96044922 C-154.99426723 142.19335758 -154.93424525 145.41525841 -154.8359375 148.64648438 C-154.69826013 159.60252915 -154.69826013 159.60252915 -157.94604492 163.82128906 C-160.50236631 165.86318722 -163.10156156 167.52426759 -165.91674805 169.18530273 C-167.22138039 170.23317316 -168.50300895 171.31074689 -169.75268555 172.42358398 C-170.33590576 172.92809082 -170.91912598 173.43259766 -171.52001953 173.95239258 C-172.10468994 174.46237793 -172.68936035 174.97236328 -173.29174805 175.49780273 C-173.92604736 176.04903809 -174.56034668 176.60027344 -175.21386719 177.16821289 C-180.23245731 181.54745613 -185.15741051 186.02015375 -190.0378418 190.55249023 C-192.27929252 192.60233797 -194.54070476 194.61279131 -196.83081055 196.60717773 C-208.32928352 206.63773176 -219.18205569 217.34947572 -229.97924805 228.12280273 C-230.51967743 228.66064392 -231.06010681 229.19848511 -231.61691284 229.75262451 C-237.03360371 235.14883542 -242.38596572 240.55795648 -247.35839844 246.37304688 C-250.02252124 249.47124264 -252.81789019 252.44732231 -255.60424805 255.43530273 C-256.43666016 256.33249023 -256.43666016 256.33249023 -257.28588867 257.24780273 C-260.11054607 260.28405754 -262.97462958 263.26180276 -265.91674805 266.18530273 C-266.24479945 248.24004971 -266.27063338 230.88716737 -262.91674805 213.18530273 C-262.63429861 211.5474883 -262.35305861 209.90946485 -262.07299805 208.27124023 C-260.23404054 197.98482486 -257.56716216 188.12170333 -254.20288086 178.22485352 C-252.2264007 172.18872189 -251.06852098 166.55354171 -251.91674805 160.18530273 C-254.21403624 155.67277236 -256.88700725 152.37555805 -261.66674805 150.49780273 C-267.44252021 149.69561216 -272.27616148 149.34659809 -277.33081055 152.70874023 C-287.82330265 162.47761219 -290.22757724 184.8761169 -293.16674805 198.12280273 C-293.41287842 199.20352051 -293.65900879 200.28423828 -293.91259766 201.39770508 C-297.52852018 218.34523565 -298.25551625 235.52105547 -298.17749023 252.79931641 C-298.16665869 255.64628924 -298.17752917 258.49264423 -298.19018555 261.33959961 C-298.19877687 272.59935384 -297.66303366 283.34052431 -295.20654297 294.37573242 C-294.18556695 299.13835585 -294.20271144 301.99371601 -296.74487305 306.23608398 C-298.54507313 308.58300354 -300.47635756 310.80541617 -302.41674805 313.03686523 C-306.61152009 317.88013939 -310.21860045 323.10373568 -313.85424805 328.37280273 C-314.88449097 329.86336182 -314.88449097 329.86336182 -315.93554688 331.3840332 C-330.79294672 353.01877022 -344.36782822 375.56739167 -356.09838867 399.05151367 C-356.78771484 400.41324707 -356.78771484 400.41324707 -357.4909668 401.80249023 C-358.08784302 403.00301025 -358.08784302 403.00301025 -358.69677734 404.2277832 C-359.91674805 406.18530273 -359.91674805 406.18530273 -362.91674805 408.18530273 C-382.32432738 363.16980053 -398.8599885 312.92698396 -399.11987305 263.39233398 C-399.12688736 262.49170227 -399.13390167 261.59107056 -399.14112854 260.66314697 C-399.15852521 257.77464738 -399.16498018 254.88635278 -399.16674805 251.99780273 C-399.16742279 251.01109589 -399.16809753 250.02438904 -399.16879272 249.00778198 C-399.15305982 234.54189375 -398.81588448 220.40662757 -395.91674805 206.18530273 C-395.7451416 205.31583008 -395.57353516 204.44635742 -395.39672852 203.55053711 C-388.09881501 167.57619314 -372.04785568 135.58590337 -347.1550293 108.61499023 C-345.58687125 106.91273141 -344.04455175 105.18647435 -342.5222168 103.44311523 C-336.80221451 96.9394276 -330.71627805 91.52710557 -323.91674805 86.18530273 C-322.16614922 84.70684483 -320.41615466 83.22767115 -318.66674805 81.74780273 C-306.99823882 72.22788585 -293.97463069 64.61800781 -280.91674805 57.18530273 C-279.78624023 56.53045898 -278.65573242 55.87561523 -277.4909668 55.20092773 C-245.87944628 37.55389667 -210.02540443 26.37820981 -174.91674805 18.18530273 C-173.85278809 17.93087402 -172.78882813 17.67644531 -171.69262695 17.41430664 C-141.2474837 10.19676706 -110.04505517 6.08164419 -78.91674805 3.18530273 C-77.90918457 3.08765625 -76.90162109 2.99000977 -75.86352539 2.8894043 C-72.92362557 2.60494421 -69.98302275 2.33014909 -67.04174805 2.06030273 C-66.23600342 1.98457031 -65.43025879 1.90883789 -64.60009766 1.83081055 C-61.7071988 1.57987123 -58.81433804 1.37542228 -55.91674805 1.18530273 C-55.25593231 1.14186737 -54.59511658 1.09843201 -53.91427612 1.05368042 C-35.95995755 -0.06835605 -17.98126689 -0.00218796 0 0 Z " fill="#90DB59" transform="translate(398.916748046875,-0.185302734375)"/>
<path d="M0 0 C0.60730957 0.18248291 1.21461914 0.36496582 1.84033203 0.55297852 C3.61377413 1.08548797 5.38738793 1.61742578 7.16113281 2.14892578 C8.93173852 2.67974204 10.70198484 3.21176034 12.47167969 3.74560547 C23.75598114 7.13365603 34.99730036 9.98411266 46.58203125 12.140625 C49.38562314 12.66282719 52.06546208 13.28021327 54.83203125 14.0078125 C72.41173104 18.48980315 91.23129473 18.2823216 109.25 18.25 C110.17149841 18.24913391 111.09299683 18.24826782 112.04241943 18.24737549 C114.7002835 18.24091818 117.357844 18.22473658 120.015625 18.203125 C120.8042392 18.1987442 121.59285339 18.1943634 122.40536499 18.18984985 C127.34629312 18.12748933 132.10540814 17.68075546 137 17 C143.75731901 16.45182435 149.23222738 16.93815318 154.73046875 21.40625 C158.68014649 25.38407271 159.94420281 29.00162124 160.1640625 34.57421875 C159.81323068 39.76151776 157.95517653 43.40789864 154.125 46.8125 C130.77339953 63.15862033 77.82376188 53.21356607 50.75201416 48.51025391 C26.44309362 44.0031108 2.18070885 37.61562022 -21 29 C-20.39806708 25.64258296 -19.24541247 23.75946274 -17.05078125 21.171875 C-16.44943359 20.45386719 -15.84808594 19.73585938 -15.22851562 18.99609375 C-14.59623047 18.25488281 -13.96394531 17.51367188 -13.3125 16.75 C-8.69720223 11.28540979 -4.2248869 5.77391437 0 0 Z " fill="#90DB59" transform="translate(136,289)"/>
<path d="M0 0 C13.95364076 4.4055697 27.3540236 6.1567429 41.91796875 6.23046875 C43.75976662 6.24531964 45.60156349 6.26029576 47.44335938 6.27539062 C50.29393584 6.29827003 53.14323905 6.31242084 55.99389648 6.30004883 C58.78198363 6.29120535 61.56763486 6.32015549 64.35546875 6.35546875 C65.1983696 6.34323776 66.04127045 6.33100677 66.90971375 6.31840515 C73.40172402 6.4502187 77.29506215 8.622085 81.9375 13.125 C84.79857777 17.14839062 85.59072312 20.88429232 85.41796875 25.74609375 C84.28095393 31.37570372 80.80057836 35.70551172 76.3125 39.125 C40.27119097 49.80390638 -8.00991817 37.33033684 -40.0625 20.125 C-40.0625 19.465 -40.0625 18.805 -40.0625 18.125 C-38.65625 16.85546875 -38.65625 16.85546875 -36.5625 15.3125 C-31.0783068 11.179612 -25.77714295 6.84043508 -20.47265625 2.48120117 C-19.80234375 1.93310791 -19.13203125 1.38501465 -18.44140625 0.8203125 C-17.8388501 0.32547363 -17.23629395 -0.16936523 -16.61547852 -0.67919922 C-11.51143238 -4.60933881 -5.59205144 -1.77990905 0 0 Z " fill="#90DB59" transform="translate(289.0625,158.875)"/>
</svg>
